<svg width="1920" height="1080" viewBox="0 0 1920 1080" fill="none" xmlns="http://www.w3.org/2000/svg">
<path d="M1957 0H-95V1080H1957V0Z" fill="#B983FF"/>
<path d="M-95 903.566C78.793 903.566 264.602 1016.18 283.48 1080C133.291 1080 -95 1080 -95 1080V903.566Z" fill="#A16EE7"/>
<path d="M904.78 1080C887.68 637.2 1396.12 675 1291.2 399.022C1201.53 163.156 710.41 273.24 632.89 0C1051.27 0 1957 0 1957 0V1080H904.78Z" fill="#A16EE7"/>
<path d="M1957 0H1676.87C1657.54 28.8036 1646.35 62.9748 1646.35 99.63C1646.35 202.37 1734.27 285.66 1842.72 285.66C1885.35 285.66 1924.81 272.781 1957 250.916V0Z" fill="#31DAE7"/>
</svg>
