<svg width="1920" height="1080" viewBox="0 0 1920 1080" fill="none" xmlns="http://www.w3.org/2000/svg">
<g clip-path="url(#clip0_25_4)">
<path d="M1957 0H-95V1080H1957V0Z" fill="#B983FF"/>
<path d="M-95 903.566C78.793 903.566 264.602 1016.18 283.48 1080C133.291 1080 -95 1080 -95 1080V903.566Z" fill="#A16EE7"/>
<path d="M904.78 1080C887.68 637.2 1396.12 675 1291.2 399.022C1201.53 163.156 710.41 273.24 632.89 0C1051.27 0 1957 0 1957 0V1080H904.78Z" fill="#A16EE7"/>
<path d="M1957 0H1676.87C1657.54 28.8036 1646.35 62.9748 1646.35 99.63C1646.35 202.37 1734.27 285.66 1842.72 285.66C1885.35 285.66 1924.81 272.781 1957 250.916V0Z" fill="#31DAE7"/>
<path d="M1657.79 947.63C1657.79 947.63 1756.36 901.584 1773.31 877.57C1790.26 853.556 1765.34 852.195 1765.34 852.195C1765.34 852.195 1809.33 811.668 1803.14 794.604C1796.95 777.54 1773.86 793.848 1773.86 793.848C1773.86 793.848 1802.45 733.547 1789.11 727.553C1764.27 716.385 1729.43 780.559 1729.43 780.559C1729.43 780.559 1736.92 752.679 1719.81 753.586C1694.01 754.952 1695.08 818.019 1695.08 818.019C1695.08 818.019 1692.17 793.838 1676.62 801.695C1648.72 815.783 1657.79 947.63 1657.79 947.63Z" fill="#5C407B"/>
<path d="M1674.21 792.023C1691.08 787.212 1694.99 804.919 1694.99 804.919C1694.99 804.919 1694.01 754.947 1719.81 753.581C1736.92 752.674 1729.43 780.554 1729.43 780.554C1729.43 780.554 1764.27 716.38 1789.11 727.547L1657.68 946.604C1656.75 931.306 1649.94 798.946 1674.21 792.023Z" fill="#8B5DD0"/>
<path d="M1660.34 948.202C1660.34 948.202 1740.95 957.69 1761.83 949.234C1782.7 940.783 1767.74 930.339 1767.74 930.339C1767.74 930.339 1812.56 921.991 1816.02 908.966C1819.48 895.941 1798.08 897.221 1798.08 897.221C1798.08 897.221 1841.78 870.615 1836.03 861.743C1825.33 845.213 1776.07 871.83 1776.07 871.83C1776.07 871.83 1792.7 857.326 1781.64 851.305C1764.97 842.227 1738.58 881.971 1738.58 881.971C1738.58 881.971 1740.22 872.176 1727.15 871.09C1703.7 869.141 1660.34 948.202 1660.34 948.202Z" fill="#5C407B"/>
<path d="M1726 868.493C1739.07 869.578 1738.58 881.971 1738.58 881.971C1738.58 881.971 1764.96 842.227 1781.63 851.305C1792.69 857.326 1776.06 871.83 1776.06 871.83C1776.06 871.83 1825.32 845.213 1836.03 861.743L1660.09 947.776C1666.07 937.877 1704.1 866.673 1726 868.493Z" fill="#8B5DD0"/>
<path d="M1815.12 952.517C1815.12 950.746 1814.12 949.315 1812.9 949.315H797.42C795.904 949.315 794.679 950.751 794.679 952.517C794.679 954.288 795.904 955.719 797.42 955.719H1812.9C1814.12 955.724 1815.12 954.288 1815.12 952.517Z" fill="#8B5DD0"/>
<path d="M1012.64 947.835C1012.64 947.835 884.152 887.814 862.059 856.51C839.96 825.206 872.444 823.435 872.444 823.435C872.444 823.435 815.108 770.607 823.173 748.364C831.239 726.122 861.34 747.376 861.34 747.376C861.34 747.376 824.074 668.768 841.453 660.955C873.835 646.396 919.258 730.053 919.258 730.053C919.258 730.053 909.494 693.711 931.792 694.894C965.417 696.676 964.032 778.88 964.032 778.88C964.032 778.88 967.828 747.36 988.097 757.598C1024.46 775.969 1012.64 947.835 1012.64 947.835Z" fill="#5C407B"/>
<path d="M994.977 748.985C977.25 739.06 963.724 762.415 963.724 762.415C963.724 762.415 965.423 696.67 931.798 694.894C909.5 693.711 919.264 730.053 919.264 730.053C919.264 730.053 873.841 646.396 841.459 660.955L1012.79 946.501C1014 926.559 1018.53 762.172 994.977 748.985Z" fill="#8B5DD0"/>
<path d="M1009.32 948.58C1009.32 948.58 904.239 960.946 877.027 949.925C849.821 938.903 869.315 925.295 869.315 925.295C869.315 925.295 810.89 914.414 806.381 897.437C801.872 880.459 829.762 882.128 829.762 882.128C829.762 882.128 772.802 847.444 780.292 835.877C794.246 814.331 858.456 849.026 858.456 849.026C858.456 849.026 836.779 830.115 851.194 822.269C872.934 810.437 907.328 862.245 907.328 862.245C907.328 862.245 905.19 849.474 922.222 848.059C952.791 845.521 1009.32 948.58 1009.32 948.58Z" fill="#5C407B"/>
<path d="M922.154 839.441C905.122 840.856 907.334 862.245 907.334 862.245C907.334 862.245 876.884 806.981 851.109 821.48C836.813 829.521 856.638 848.291 856.638 848.291C856.638 848.291 794.251 814.331 780.298 835.877L1009.64 948.024C1001.85 935.123 950.699 837.07 922.154 839.441Z" fill="#8B5DD0"/>
<path d="M1581.43 854.825H1025.68C1004.46 854.825 987.248 840.629 987.248 823.117V804.265C987.248 786.753 1004.46 772.556 1025.68 772.556H1581.43C1556.01 795.479 1555.57 830.509 1580.41 853.864L1581.43 854.825Z" fill="#31DAE7"/>
<path d="M1573.65 781.985H1293.98C1274.72 781.985 1259.11 796.181 1259.11 813.694C1259.11 831.206 1274.72 845.402 1293.98 845.402H1573.67C1560.61 825.946 1560.63 801.382 1573.65 781.985Z" fill="#F2F2F2"/>
<path d="M1703.21 850.489H1003.1C981.36 850.489 963.735 866.203 963.735 885.584V915.1C963.735 934.481 981.36 950.195 1003.1 950.195H1703.21L1702.85 949.855C1672.9 922.066 1673.05 878.105 1703.21 850.489Z" fill="#F36B80"/>
<path d="M1690.82 865.247H1316.55C1294.81 865.247 1277.18 880.961 1277.18 900.342C1277.18 919.723 1294.81 935.437 1316.55 935.437H1690.81C1677.05 913.707 1677.07 886.961 1690.82 865.247Z" fill="#F2F2F2"/>
<path d="M1475.01 900.526H1446.45C1440.31 900.526 1435.33 905.245 1435.33 911.061V912.006H1475.01V900.526Z" fill="#472A6A"/>
<path d="M1447.61 900.563C1454.44 900.558 1464.63 906.033 1470.39 912.789L1538.13 992.385L1577.92 992.363L1513.49 916.661C1505.91 907.751 1492.47 900.536 1483.47 900.542L1447.61 900.563Z" fill="#5C407B"/>
<path d="M997.975 355.784C997.787 356.341 997.28 356.746 996.676 356.827C996.066 356.913 995.461 356.665 995.108 356.184L988.416 347.02L976.657 347.047C976.042 347.047 975.477 346.718 975.204 346.199C974.93 345.676 974.993 345.055 975.369 344.59L982.5 335.729L978.84 325.139C978.646 324.583 978.806 323.978 979.245 323.568C979.684 323.158 980.328 323.023 980.909 323.217L992.007 326.905L1001.51 320.333C1002.01 319.988 1002.67 319.945 1003.21 320.215C1003.76 320.485 1004.1 321.025 1004.08 321.608L1003.81 332.748L1013.34 339.277C1013.83 339.617 1014.08 340.2 1013.98 340.772C1013.88 341.345 1013.44 341.815 1012.85 341.982L1001.58 345.179L997.975 355.784Z" fill="#F36B80"/>
<path d="M1419.95 222.718C1420.74 220.801 1420.46 213.932 1430.54 207.328C1434.68 204.644 1438.08 202.36 1439 199.222C1440.58 193.817 1434.57 191.219 1428.59 191.246C1425.49 191.263 1422.96 188.908 1422.86 185.976C1422.77 182.995 1425.21 180.5 1428.35 180.355C1431.78 180.198 1435.82 180.511 1440.07 181.629C1452.92 185.009 1456.78 193.271 1454.54 200.929C1452.49 207.938 1446.56 211.345 1441.73 214.245C1433.59 219.143 1433.59 224.597 1432.9 226.125L1419.95 222.718ZM1413.69 234.776C1415.12 229.889 1419.75 227.335 1424.81 228.663C1430.07 230.045 1432.45 234.446 1431.11 239.355C1429.7 244.15 1425.15 246.823 1419.89 245.441C1414.74 244.085 1412.29 239.571 1413.69 234.776Z" fill="#F2F2F2"/>
<path d="M1744.61 347.02L1749.38 354.542C1749.9 355.358 1751.18 355.255 1751.55 354.37L1754.94 346.199L1763.97 344.218C1764.95 344.002 1765.24 342.819 1764.47 342.214L1757.31 336.631L1758.11 327.883C1758.2 326.938 1757.1 326.306 1756.25 326.813L1748.44 331.533L1739.9 328.109C1738.98 327.737 1738.01 328.531 1738.26 329.454L1740.58 337.954L1734.5 344.585C1733.84 345.303 1734.34 346.426 1735.34 346.48L1744.61 347.02Z" fill="#F36B80"/>
<path d="M1527.11 235.04L1516.66 228.004L1519.56 215.881L1522.96 216.61L1520.57 226.589L1531.38 233.858L1525.81 246.877L1538.01 253.114L1532.46 264.605L1528.29 265.302L1533.48 254.551L1521.41 248.378L1527.11 235.04Z" fill="#F36B80"/>
<path d="M1045.57 285.611L1052.04 291.011L1060.09 287.669L1066.9 294.208L1074.32 288.139L1082.35 295.213L1089.91 290.423L1098.82 296.028L1096.58 299.225L1089.92 295.029L1081.94 300.083L1074.22 293.285L1066.67 299.457L1059.17 292.237L1051.3 295.504L1045.3 290.498L1040.61 293.668L1038.26 290.547L1045.57 285.611Z" fill="#F2F2F2"/>
<path d="M1116.97 220.671C1104.4 227.416 1106.88 245.43 1120.89 248.999C1123.4 249.642 1125.57 251.17 1127.03 253.211L1132.06 260.242C1133.44 262.181 1136.17 262.786 1138.31 261.63L1143.07 259.076C1145.22 257.92 1146.08 255.398 1145.04 253.276C1141.23 245.533 1139.24 242.941 1140.59 238.421C1144.57 225.212 1129.54 213.926 1116.97 220.671Z" fill="#E4C4FF"/>
<path d="M1131.45 254.011C1127.92 247.471 1123.9 240.673 1122.69 238.766C1115.18 241.839 1115.12 233.167 1119.87 235.046C1121.22 235.58 1122.17 236.617 1122.99 237.827C1125.46 236.725 1127.68 235.165 1129.51 233.264C1128.74 231.617 1128.07 230.402 1128.15 229.149C1128.27 227.259 1130.27 226.055 1131.78 227.335C1132.34 227.815 1132.7 228.56 1132.7 229.273C1132.71 230.801 1131.51 232.232 1130.43 233.399C1132.95 238.696 1135.63 243.988 1138.43 249.14L1137.74 249.475C1134.99 244.404 1132.34 239.204 1129.86 233.993C1128.02 235.84 1125.83 237.357 1123.4 238.453C1124.94 240.889 1128.84 247.531 1132.15 253.67L1131.45 254.011ZM1118.42 238.421C1119.37 238.88 1120.63 238.788 1122.27 238.135C1121.53 237.071 1120.7 236.174 1119.57 235.726C1117.01 234.716 1116.83 237.654 1118.42 238.421ZM1128.92 229.198C1128.85 230.251 1129.46 231.358 1130.07 232.659C1130.94 231.687 1131.93 230.504 1131.92 229.279C1131.91 228.42 1131.17 227.459 1130.28 227.545C1130.19 227.561 1128.96 228.458 1128.92 229.198Z" fill="#F2F2F2"/>
<path d="M1126.89 253.039C1126.94 253.098 1126.98 253.152 1127.02 253.211L1132.05 260.242C1133.44 262.181 1136.16 262.786 1138.31 261.63L1143.07 259.076C1145.22 257.92 1146.07 255.398 1145.03 253.276C1143.34 249.831 1142.01 247.406 1141.16 245.376L1126.89 253.039Z" fill="#F36B80"/>
<path d="M1104.81 218.349L1098.12 212.825C1097.48 212.29 1097.41 211.361 1097.98 210.746C1098.54 210.136 1099.52 210.071 1100.17 210.605L1106.86 216.13C1107.5 216.664 1107.57 217.593 1107 218.209C1106.43 218.824 1105.45 218.878 1104.81 218.349Z" fill="#E4C4FF"/>
<path d="M1102.56 238.124L1093.56 240.44C1092.73 240.651 1091.88 240.192 1091.65 239.404C1091.43 238.621 1091.91 237.811 1092.74 237.595L1101.74 235.278C1102.57 235.067 1103.43 235.526 1103.65 236.315C1103.88 237.103 1103.39 237.913 1102.56 238.124Z" fill="#E4C4FF"/>
<path d="M1103.74 266.463C1102.96 266.117 1102.63 265.243 1102.99 264.503C1104.35 261.749 1106.01 259.108 1107.9 256.651C1108.41 255.992 1109.38 255.847 1110.07 256.327C1110.77 256.808 1110.92 257.726 1110.41 258.385C1108.64 260.69 1107.09 263.174 1105.81 265.756C1105.44 266.485 1104.52 266.809 1103.74 266.463Z" fill="#E4C4FF"/>
<path d="M1126.21 210.47C1125.35 210.546 1124.6 209.947 1124.52 209.137C1124.15 205.292 1123.35 201.469 1122.16 197.78C1121.9 197.003 1122.36 196.177 1123.18 195.939C1124 195.701 1124.87 196.133 1125.13 196.911C1126.39 200.799 1127.22 204.822 1127.62 208.867C1127.69 209.687 1127.06 210.4 1126.21 210.47Z" fill="#E4C4FF"/>
<path d="M1139.31 217.966C1138.79 217.318 1138.93 216.394 1139.61 215.903L1147.67 210.157C1148.36 209.666 1149.33 209.801 1149.85 210.449C1150.37 211.097 1150.23 212.02 1149.54 212.512L1141.48 218.257C1140.8 218.743 1139.83 218.614 1139.31 217.966Z" fill="#E4C4FF"/>
<path d="M1163.06 235.629C1162.93 235.672 1162.8 235.705 1162.65 235.715C1159.18 235.975 1155.68 235.877 1152.23 235.429C1151.39 235.316 1150.79 234.576 1150.91 233.771C1151.02 232.967 1151.81 232.4 1152.66 232.513C1155.88 232.929 1159.16 233.021 1162.4 232.783C1163.26 232.718 1164 233.323 1164.07 234.139C1164.13 234.803 1163.7 235.408 1163.06 235.629Z" fill="#E4C4FF"/>
<path d="M1636.6 231.887L1632.61 238.858C1623.19 255.35 1610.47 270.34 1595.11 283.073L1593.42 284.472C1593.42 284.472 1596.67 298.544 1611.62 296.077C1623.21 279.31 1636.57 264.341 1652.4 250.517L1658.25 246.002L1636.6 231.887Z" fill="#31DAE7"/>
<path d="M1658.21 245.986C1657.33 246.996 1651.78 244.652 1645.82 240.748C1639.86 236.844 1635.69 232.853 1636.57 231.844C1637.46 230.834 1643.07 233.188 1649.02 237.087C1654.99 240.991 1659.1 244.976 1658.21 245.986Z" fill="#E1DDE7"/>
<path d="M1658.23 246.019L1658.25 245.997C1658.06 245.894 1644.58 238.826 1642.02 234.765L1640.38 236.725C1641.9 237.989 1643.77 239.377 1645.88 240.748C1651.76 244.609 1657.25 246.942 1658.23 246.019Z" fill="#E1DDE7"/>
<path d="M1633.37 268.947C1631.62 269.503 1623.84 271.242 1616.97 261.328C1616.08 262.391 1615.18 263.444 1614.27 264.487C1618.97 270.653 1624.13 272.495 1627.72 272.932C1628.29 273.002 1629.05 273.067 1629.62 273.083C1630.86 271.696 1632.11 270.313 1633.37 268.947Z" fill="#F36B80"/>
<path d="M1619.54 261.619L1614.75 245.398L1612.31 250.339L1606.76 249.529L1616.41 263.32L1619.54 261.619Z" fill="#F36B80"/>
<path d="M1615.72 264.4L1602.29 262.224L1605.42 265.685L1602.3 268.342L1615.3 267.322L1615.72 264.4Z" fill="#F36B80"/>
<path d="M1613.35 267.527C1612.16 264.784 1613.87 261.565 1617.15 260.329C1620.44 259.097 1624.07 260.318 1625.27 263.061C1626.46 265.804 1624.75 269.028 1621.46 270.259C1618.17 271.49 1614.54 270.27 1613.35 267.527Z" fill="#F36B80"/>
<path d="M1621.71 455.404C1609.19 448.999 1594.07 451.586 1585.5 462.143C1577.93 459.961 1569.42 460.831 1562.67 464.535C1549.35 471.841 1541.2 492.269 1552.02 503.339C1554.67 514.744 1556.72 526.505 1568.69 526.635C1575.78 538.942 1600.6 539.752 1613.32 528.19C1624.44 531.506 1636.32 525.463 1644.03 517.088C1645.85 515.111 1647.39 512.001 1648.08 511.585C1648.09 511.58 1676.74 506.552 1674.1 480.244C1671.34 452.714 1641.11 433.76 1621.71 455.404Z" fill="#F36B80"/>
<path d="M1512.69 784.804C1513.36 796.716 1515.75 807.424 1516.1 808.688C1516.27 809.298 1518.33 811.706 1518.52 812.333C1515.43 826.367 1505.21 833.647 1495.86 838.582C1498.65 831.659 1503.85 823.97 1503.52 822.312C1503 819.671 1501.17 807.689 1495.98 792.261C1503.23 792.358 1506.32 788.384 1512.69 784.804Z" fill="#FFB3C5"/>
<path d="M1547.42 613.656L1592.03 647.779C1592.03 647.779 1569.61 668.779 1561.2 676.588C1552.78 684.396 1510.45 712.541 1509.71 714.334C1509.56 714.695 1511.8 718.972 1512.5 724.313C1514.38 738.736 1516.8 779.296 1517.47 803.347C1512.68 808.115 1504.34 811.399 1498.14 812.9C1482.83 783.362 1474.9 711.985 1474.96 705.17C1475.05 694.073 1547.42 613.656 1547.42 613.656Z" fill="#F36B80"/>
<path d="M1677.51 687.852C1675.76 688.916 1662.06 705.132 1656.2 714.145C1651.66 709.663 1649.35 705.013 1643.94 701.471C1650.13 695.822 1662.91 681.755 1664.54 678.089C1668.39 669.395 1670.78 668.52 1670.78 668.52C1670.78 668.52 1699.2 685.697 1700.59 689.04C1701.99 692.388 1684.53 683.575 1677.51 687.852Z" fill="#FFB3C5"/>
<path d="M1663.72 680.027C1661.34 679.504 1666.37 669.395 1667.48 667.057C1668.73 664.427 1670.54 663.957 1670.96 663.946C1672.11 663.925 1703.7 683.008 1708.54 688.414C1708.87 688.781 1709.37 689.818 1709.43 690.039C1711.26 696.589 1682.81 691.411 1679.34 687.955C1676.24 684.877 1674.47 682.393 1663.72 680.027Z" fill="#5C407B"/>
<path d="M1537.74 623.549C1537.74 623.549 1577.07 608.18 1577.08 608.175C1576.92 608.24 1577.3 609.757 1577.33 609.876C1580.89 624.078 1588.93 617.533 1596.81 642.211C1602.37 659.648 1600.36 722.299 1600.36 722.299C1600.36 722.299 1634.43 702.389 1653.67 688.84C1655.43 687.604 1666.17 703.847 1666.17 703.847C1640.01 745.513 1586.18 765.358 1581.04 763.441C1563.5 756.902 1548.49 644.09 1548.54 644.101C1545.15 637.411 1537.74 623.549 1537.74 623.549Z" fill="#F36B80"/>
<path d="M1601.37 529.508C1601.37 529.508 1649.6 520.301 1660.33 518.875C1671.07 517.45 1708.5 506.023 1709.94 505.532C1711.38 505.04 1717.2 486.518 1719.25 487.922C1721.31 489.332 1715.77 497.237 1718.36 498.415C1720.95 499.592 1743.55 490.801 1743.65 492.588C1743.84 495.931 1730.04 498.49 1730.43 500.04C1730.81 501.59 1744.56 496.06 1746.16 498.431C1747.75 500.796 1732.63 502.47 1732.31 503.75C1732 505.03 1746.78 504.041 1745.91 506.758C1745.43 508.232 1732.73 507.325 1733.22 509.085C1733.7 510.845 1743.33 513.011 1742.61 514.658C1741.89 516.299 1734.77 511.79 1729.74 512.806C1724.71 513.821 1720.48 512.006 1713 515.921C1705.52 519.831 1680.84 536.652 1663.55 539.557C1646.26 542.462 1608.09 548.975 1608.09 548.975L1601.37 529.508Z" fill="#FFB3C5"/>
<path d="M1512.94 444.139C1509.95 434.522 1507.53 426.168 1507.36 425.498C1507 424.089 1520.16 409.315 1517.79 408.461C1515.42 407.608 1511.48 416.329 1509.02 414.925C1506.56 413.521 1501.92 390.798 1500.29 391.694C1497.24 393.374 1502.55 405.713 1500.97 406.258C1499.39 406.798 1496.73 392.877 1493.76 392.915C1490.8 392.953 1497.62 405.848 1496.66 406.798C1495.7 407.743 1488.47 395.491 1486.55 397.678C1485.51 398.866 1493.28 408.424 1491.45 409.007C1489.63 409.59 1482.44 403.153 1481.38 404.622C1480.33 406.096 1488.21 409.255 1490.08 413.802C1491.94 418.349 1495.86 420.698 1496.51 428.771C1496.78 432.016 1496.73 438.61 1497.02 446.321C1502.41 446.002 1507.76 445.478 1512.94 444.139Z" fill="#FFB3C5"/>
<path d="M1516.16 809.05C1517.35 806.927 1525.5 815.189 1527.45 816.901C1529.65 818.829 1529.59 820.676 1529.48 821.086C1529.18 822.161 1502.48 847.395 1495.23 850.435C1494.55 850.721 1493.21 850.565 1492.83 850.365C1489.27 848.464 1498.34 826.211 1503.84 822.285C1507.41 819.736 1510.83 818.591 1516.16 809.05Z" fill="#5C407B"/>
<path d="M1489.68 439.538C1491.17 451.138 1492.67 462.742 1494.33 474.325C1496.28 487.906 1503.01 500.353 1509.91 512.206C1511.78 515.414 1528.01 537.37 1526.29 540.351C1526.29 540.351 1521.17 549.266 1522.48 555.876C1531.03 598.898 1514.36 633.037 1489.75 667.856C1482.89 677.57 1476.4 687.744 1472.22 698.798C1468.07 709.744 1468.24 720.441 1467.27 731.759C1465.89 747.824 1464.67 763.906 1463.37 779.981C1463.37 779.981 1500.98 793.368 1519.74 779.744C1538.51 766.12 1567.05 782.892 1582.5 785.484C1597.95 788.076 1635.78 768.695 1643.14 750.098C1650.39 731.732 1644.94 691.481 1644.8 690.455C1645.05 692.296 1612.32 702.07 1608.88 696.098C1606.59 692.118 1610.22 679.115 1610.26 674.303C1610.31 666.004 1609.78 657.704 1608.67 649.469C1606.36 632.34 1599.6 616.804 1595.52 600.307C1592.8 589.291 1585.98 574.031 1589.45 562.68C1591.37 556.421 1643.53 549.482 1668.11 543.418C1692.69 537.349 1711.36 522.985 1711.36 522.985L1702.68 503.366C1702.68 503.366 1665.39 515.155 1646.21 517.163C1627.02 519.172 1585.22 530.998 1558.44 523.492C1531.65 515.986 1517.86 468.029 1517.86 468.029L1509.76 432.535C1509.76 432.529 1489.68 439.538 1489.68 439.538Z" fill="#5C407B"/>
<path d="M1574.21 510.089C1574.21 510.089 1571.61 522.801 1572.06 527.828C1572.52 532.856 1569.98 549.023 1559.24 548.991C1548.5 548.959 1557.38 528.395 1558.44 523.487C1559.49 518.573 1559.86 503.339 1559.86 503.339L1574.21 510.089Z" fill="#FFB3C5"/>
<path d="M1570.97 536.976C1568.59 537.959 1565.96 538.51 1563.31 538.099C1559.38 537.484 1557.16 534.757 1555.9 531.9C1553.7 539.519 1551.96 548.975 1559.24 548.991C1565.87 549.007 1569.37 542.862 1570.97 536.976Z" fill="#F2F2F2"/>
<path d="M1559.58 510.98C1559.78 506.817 1559.87 503.339 1559.87 503.339L1574.21 510.095C1574.21 510.095 1573.68 512.692 1573.14 516.008C1566.82 517.207 1562.28 514.863 1559.58 510.98Z" fill="#EA94AD"/>
<path d="M1579.78 474.995C1579.78 474.995 1585.3 478.084 1587.27 484.709C1589.24 491.33 1586.78 508.356 1572.42 512.352C1558.05 516.353 1551.96 502.805 1555 492.28C1558.05 481.75 1564.58 468.445 1579.78 474.995Z" fill="#FFB3C5"/>
<path d="M1553.25 488.176C1553.5 491.011 1555.06 493.193 1556.73 493.042C1558.4 492.89 1559.54 490.471 1559.29 487.636C1559.03 484.801 1557.47 482.62 1555.81 482.771C1554.14 482.922 1552.99 485.341 1553.25 488.176Z" fill="#FFB3C5"/>
<path d="M1578.1 474.12C1578.1 474.12 1580.54 493.155 1586.72 496.633C1592.9 500.11 1590.22 508.523 1590.22 508.523C1590.22 508.523 1596.02 488.986 1591.17 482.657C1586.32 476.329 1578.1 474.12 1578.1 474.12Z" fill="#F36B80"/>
<path d="M1583.02 499.333C1581.31 501.795 1581.29 504.716 1582.97 505.856C1584.65 506.995 1587.4 505.921 1589.11 503.458C1590.81 500.996 1590.83 498.074 1589.15 496.935C1587.47 495.796 1584.72 496.87 1583.02 499.333Z" fill="#FFB3C5"/>
<path d="M1095.63 447.671C1095.63 447.671 1085.68 434.824 1087.46 431.19C1089.25 427.556 1086.95 421.254 1086.95 421.254L1079.55 416.891L1064.98 430.142V430.445C1064.98 430.445 1073.92 442.503 1075.37 442.805C1075.95 442.924 1076.83 443.119 1077.7 443.308L1087.21 455.582L1095.63 447.671Z" fill="#FFB3C5"/>
<path d="M1187.29 357.464L1154.65 389.113C1153.39 390.328 1153.51 391.694 1154.91 392.17L1194.48 405.481C1195.88 405.95 1198.03 405.346 1199.28 404.131L1231.93 372.481C1233.19 371.266 1233.07 369.9 1231.66 369.425L1192.09 356.114C1190.7 355.644 1188.55 356.243 1187.29 357.464Z" fill="#5C407B"/>
<path d="M1258.64 414.466L1233.99 373.901C1233.07 372.389 1233.61 370.456 1235.21 369.581L1278.75 345.703C1280.34 344.828 1282.38 345.346 1283.29 346.858L1307.95 387.423C1308.86 388.935 1308.32 390.868 1306.73 391.743L1263.19 415.622C1261.59 416.497 1259.56 415.978 1258.64 414.466Z" fill="#5C407B"/>
<path d="M1252.95 401.436C1252.95 401.436 1249.8 388.735 1251.72 382.039C1253.61 375.467 1256.99 371.612 1257.9 370.91C1262.02 367.729 1266.95 365.467 1272.21 364.716C1284.23 363.004 1301.31 371.385 1301.54 385.112L1296.14 390.582L1252.95 401.436Z" fill="#472A6A"/>
<path d="M1181.61 393.865C1176.62 399.665 1139.42 403.272 1128.4 407.959C1101.85 419.251 1116.65 462.472 1133.9 465.129C1139.74 466.025 1154.83 461.889 1157.77 463.455C1166.64 468.175 1178.08 469.687 1189.71 461.959C1201.35 454.232 1195.57 447.925 1199.33 441.493C1203.09 435.062 1211.55 442.919 1216.11 429.041C1221.04 414.029 1221.16 398.088 1216.68 389.448C1209.26 375.149 1196.65 373.81 1189.85 376.601C1187.82 377.433 1182.7 392.596 1181.61 393.865Z" fill="#8B5DD0"/>
<path d="M1258.01 431.006L1238.57 431.417L1209.24 429.419L1188.19 428.036L1181.83 444.139L1245.12 472.057L1258.01 431.006Z" fill="#472A6A"/>
<path d="M1299.87 448.897C1299.87 448.897 1303.07 444.177 1300.86 441.38C1300.86 441.38 1302.73 442.498 1302.61 444.663C1302.5 446.839 1299.87 448.897 1299.87 448.897Z" fill="#F47458"/>
<path d="M1195.3 460.469L1251.03 481.221L1278.43 490.126L1272.54 459.945C1230.97 457.774 1213.84 434.543 1204.61 433.253C1193.14 431.66 1195.3 460.469 1195.3 460.469Z" fill="#5C407B"/>
<path d="M1080.45 701.255C1073.03 710.073 1064.86 716.942 1063.84 717.714C1063.35 718.087 1060.24 718.729 1059.72 719.102C1054.2 731.786 1058.54 743.472 1063.5 752.825C1065.17 745.821 1066.82 736.182 1068.05 735.091C1070.01 733.358 1076.88 725.776 1090.1 716.909C1084 712.703 1083.71 707.794 1080.45 701.255Z" fill="#FFB3C5"/>
<path d="M1063.44 717.903C1058.63 717.703 1049.33 719.712 1049.29 720.652C1049.24 721.769 1050.55 760.941 1056.44 764.975C1059.99 767.399 1061.27 761.454 1063.5 752.825C1058.54 743.472 1060.37 718.81 1063.44 717.903Z" fill="#F36B80"/>
<path d="M1171.1 726.786C1170.34 736.144 1168.43 756.972 1167.98 758.943C1167.85 759.515 1168.43 761.81 1168.74 762.323C1180.73 768.469 1192.92 765.38 1202.84 761.524C1196.06 759.413 1187.05 756.691 1185.7 755.876C1184.34 755.055 1182.68 752.495 1183.07 748.796C1183.89 741.145 1186.58 733.234 1184.76 724.756C1179.83 730.085 1178.01 724.297 1171.1 726.786Z" fill="#FFB3C5"/>
<path d="M1168.01 758.765C1167.23 763.209 1167.08 773.118 1168.01 773.231C1169.12 773.366 1208.82 773.037 1214.12 769.063C1217.51 766.535 1211.19 764.3 1202.85 761.53C1192.92 765.38 1168.54 761.681 1168.01 758.765Z" fill="#F36B80"/>
<path d="M1196.81 428.209C1196.81 428.209 1175.77 417.393 1153.59 426.481C1152.2 427.054 1147.98 432.346 1147.98 434.419C1147.98 436.941 1152.31 443.632 1152.31 443.632L1191.56 441.839L1196.81 428.209Z" fill="#472A6A"/>
<path d="M1388.78 340.141L1391.14 340.195C1392.36 340.222 1393.38 339.309 1393.41 338.153L1394.64 291.481C1394.67 290.326 1393.7 289.364 1392.48 289.332L1390.12 289.278C1388.9 289.251 1387.88 290.164 1387.85 291.319L1386.62 337.991C1386.6 339.152 1387.56 340.114 1388.78 340.141Z" fill="#472A6A"/>
<path d="M1401.35 349.979C1401.25 345.767 1405.54 322.288 1405.31 320.647C1405.07 318.973 1399.1 307.4 1398.6 306.293C1398.1 305.186 1395.85 303.988 1394.84 305.662C1394.28 306.58 1395.69 309.814 1397.07 312.563C1395.66 310.306 1392.06 306.094 1390.55 306.288C1387.6 306.666 1390.89 314.134 1393.12 317.12C1395.36 320.107 1390.78 332.397 1390.78 332.397C1390.78 332.397 1387.93 334.573 1387.03 332.537C1386.14 330.502 1388.43 324.724 1385.67 326.3C1382.91 327.877 1380.47 335.34 1381.84 337.23C1383.14 339.034 1388.34 350.892 1388.82 351.994L1388.81 351.999L1384.8 363.641C1389.73 365.926 1394.93 367.799 1400.02 369.554C1401.09 359.116 1401.35 349.979 1401.35 349.979Z" fill="#FFB3C5"/>
<path d="M1228.37 718.767C1228.37 718.767 1219 729.794 1216.67 731.155C1214.34 732.51 1217.72 748.537 1224.07 749.585C1227.65 750.179 1229.64 746.431 1229.64 746.431L1228.61 741.814L1241.99 728.719L1228.37 718.767Z" fill="#FFB3C5"/>
<path d="M1272.63 719.145C1272.63 719.145 1264.83 731.219 1262.69 732.85C1260.56 734.481 1266.06 749.963 1272.51 750.233C1276.14 750.384 1277.61 746.431 1277.61 746.431L1275.97 741.976L1287.48 727.364L1272.63 719.145Z" fill="#FFB3C5"/>
<path d="M1263.17 732.375C1263.17 732.375 1267.65 737.807 1270.1 739.967C1273.26 742.759 1277.3 745.486 1277.3 745.486C1277.3 745.486 1281.88 753.381 1283.13 756.14C1285.92 762.275 1289.05 769.111 1288.6 772.546C1288.45 773.647 1285.84 774.814 1283.67 774.182C1274.62 771.541 1251.5 751.442 1248.58 746.048C1245.21 739.816 1263.17 732.375 1263.17 732.375Z" fill="#5C407B"/>
<path d="M1329.18 548.462C1328.34 546.226 1327.53 544.163 1326.76 542.219C1317.14 544.212 1306.27 546.404 1295.09 548.672L1293.73 587.596C1293.74 584.588 1302.13 649.674 1302.13 649.674C1302.13 649.674 1282.37 694.894 1267.52 721.521C1273.62 728.746 1275.22 729.778 1284.05 734.702C1307.11 708.442 1336.58 662.153 1337.83 654.161C1338.56 649.555 1339.21 575.262 1329.18 548.462Z" fill="#F36B80"/>
<path d="M1245.1 566.746C1248.04 597.073 1254.57 655.052 1254.02 659.713C1252.38 665.523 1224.5 719.177 1219.27 726.986C1223.43 732.931 1229.55 738.526 1236.46 740.297C1237.83 740.648 1284.92 676.625 1287.54 671.474C1290.5 665.653 1295.42 633.911 1295.51 594.61L1296.87 555.692C1278.26 559.472 1261.13 563.171 1245.1 566.746Z" fill="#F36B80"/>
<path d="M1322.03 461.587C1322.03 461.587 1372.71 437.513 1377.45 432.124C1380.67 428.463 1405.19 360.245 1405.19 360.245C1405.6 355.736 1385.68 354.067 1385.06 354.964C1382.73 358.366 1357.39 412.695 1357.39 412.695L1299.67 428.414L1286.17 432.189L1322.03 461.587Z" fill="#472A6A"/>
<path d="M1217.2 730.739C1217.2 730.739 1220.92 736.668 1223.05 739.109C1225.81 742.262 1229.45 745.454 1229.45 745.454C1229.45 745.454 1232.93 753.84 1233.8 756.729C1235.74 763.15 1237.93 770.899 1237.02 774.252C1236.73 775.327 1234.24 777.384 1232.18 776.11C1224.25 771.206 1203.06 748.224 1200.89 742.522C1198.39 735.939 1217.2 730.739 1217.2 730.739Z" fill="#5C407B"/>
<path d="M1188.04 534.724L1201.73 534.848C1201.73 534.848 1198.09 558.598 1198.13 566.411C1198.17 574.225 1209.52 639.306 1208.73 647.757C1207.93 656.208 1185.44 744.941 1185.44 744.941L1166.92 744.428C1166.92 744.428 1169.96 687.415 1173.25 676.156C1176.54 664.891 1179.18 654.626 1179.18 654.626L1158.94 587.034L1188.04 534.724Z" fill="#E1DDE7"/>
<path d="M1201.61 532.532C1201.61 532.532 1178.51 651.332 1172.36 655.609C1166.21 659.885 1083.73 722.369 1083.73 722.369L1073.59 707.53C1073.59 707.53 1108.66 642.902 1139.6 640.602C1139.6 640.602 1137.66 562.874 1143.36 550.352C1149.06 537.829 1167.8 521.624 1167.8 521.624L1201.62 527.396L1201.61 532.532Z" fill="#E1DDE7"/>
<path d="M1350.35 307.984L1350.78 316.543L1336.36 318.719L1335.35 331.312L1324.84 334.616L1326.6 339.676L1340.66 335.254L1341.61 323.32L1356.62 321.057L1355.98 308.173L1350.35 307.984Z" fill="#31DAE7"/>
<path d="M1360.68 289.829L1351.7 290.693L1348.64 277.123L1335.35 276.853L1331.31 267.052L1326.09 268.996L1331.49 282.101L1344.08 282.361L1347.27 296.476L1360.78 295.175L1360.68 289.829Z" fill="#31DAE7"/>
<path d="M1246.76 432.038C1240.51 478.732 1240.79 520.247 1238.58 567.248C1237.55 589.34 1237.91 622.55 1232.19 643.896C1228.94 655.992 1216.23 667.116 1207.38 676.053C1207.36 676.08 1218.98 681.194 1219.71 681.442C1230.9 685.228 1242.95 686.74 1254.81 686.21C1270.54 685.508 1285.79 682.079 1301.68 681.286C1319.3 680.405 1334.22 689.807 1351.36 685.957C1356.72 684.752 1369.39 641.239 1361.67 599.265C1349.7 534.211 1319.12 453.227 1319.12 453.227L1308.7 425.871L1246.76 432.038Z" fill="#472A6A"/>
<path d="M1279.07 370.105C1279.07 370.105 1270.59 363.339 1265.6 373.226C1265.6 373.226 1260.61 371.228 1257.85 376.045C1257.85 376.045 1249.08 374.539 1248.46 386.802C1248.46 386.802 1244 386.489 1244.02 391.484C1244.03 396.473 1247.06 399.476 1247.06 399.476C1247.06 399.476 1244.82 401.485 1246.47 405.896C1247.88 409.644 1251.31 409.871 1251.31 409.871C1251.31 409.871 1252.99 416.264 1256.19 417.901C1259.38 419.537 1263.3 418.16 1263.3 418.16C1263.3 418.16 1264.8 421.562 1268.22 420.876C1271.64 420.19 1275.54 416.599 1279.58 417.587C1283.62 418.576 1293.49 416.005 1293.49 416.005C1293.49 416.005 1304.2 410.017 1299.51 399.433C1299.51 399.433 1304.82 393.709 1298.91 388.168C1298.91 388.168 1301.55 378.216 1293.38 373.394C1285.23 368.572 1279.07 370.105 1279.07 370.105Z" fill="#F36B80"/>
<path d="M1283.96 421.751L1286.49 431.266C1286.49 431.266 1290.37 447.314 1283.76 447.617C1278.87 447.844 1266.66 430.088 1266.66 430.088L1267.18 408.143L1283.96 421.751Z" fill="#FFB3C5"/>
<path d="M1267.69 416.135C1271.96 424.132 1280.35 428.425 1286.1 429.824L1283.96 421.756L1267.18 408.154L1267.69 416.135Z" fill="#EA94AD"/>
<path d="M1244.16 393.779C1244.6 397.51 1247.2 400.291 1249.96 399.994C1252.71 399.697 1254.58 396.43 1254.13 392.704C1253.69 388.973 1251.09 386.192 1248.34 386.489C1245.58 386.786 1243.71 390.053 1244.16 393.779Z" fill="#F36B80"/>
<path d="M1257.38 377.649C1257.64 379.793 1260.56 381.235 1263.91 380.873C1267.27 380.511 1269.77 378.481 1269.52 376.337C1269.26 374.193 1266.34 372.751 1262.99 373.113C1259.63 373.475 1257.12 375.505 1257.38 377.649Z" fill="#F36B80"/>
<path d="M1273.23 381.434C1280.94 377.946 1290.09 382.082 1292.25 389.804C1293.2 393.158 1294.19 397.402 1294.84 402.084C1296.41 413.348 1291.58 424.996 1286.18 425.579C1280.78 426.163 1265 420.466 1262.54 404.503C1261.02 394.648 1265.15 385.096 1273.23 381.434Z" fill="#FFB3C5"/>
<path d="M1266.67 405.34C1266.96 407.83 1265.47 410.038 1263.33 410.265C1261.18 410.497 1259.21 408.667 1258.9 406.177C1258.61 403.688 1260.1 401.479 1262.24 401.252C1264.39 401.02 1266.37 402.851 1266.67 405.34Z" fill="#FFB3C5"/>
<path d="M1295.93 373.297C1302.01 376.888 1304.72 383.049 1302 387.056C1299.27 391.063 1292.14 391.403 1286.06 387.812C1279.99 384.221 1277.27 378.059 1280 374.053C1282.72 370.04 1289.86 369.7 1295.93 373.297Z" fill="#F36B80"/>
<path d="M1281.77 378.308C1281.99 380.133 1279.85 381.856 1277 382.169C1274.14 382.477 1271.64 381.251 1271.43 379.426C1271.21 377.6 1273.35 375.872 1276.2 375.565C1279.06 375.257 1281.56 376.483 1281.77 378.308Z" fill="#F36B80"/>
<path d="M1298.85 390.668C1299.13 393.012 1297.38 395.123 1294.94 395.388C1292.5 395.653 1290.29 393.968 1290.01 391.624C1289.74 389.281 1291.49 387.169 1293.92 386.905C1296.36 386.64 1298.57 388.325 1298.85 390.668Z" fill="#F36B80"/>
<path d="M1271.63 436.779C1275.58 441.785 1280.92 447.752 1283.76 447.617C1287.98 447.422 1287.92 440.802 1287.33 436.045C1284.15 440.581 1276.49 438.637 1271.63 436.779Z" fill="white"/>
<path d="M1262.87 352.966C1261.03 352.966 1259.1 352.739 1257.11 352.193C1253.08 351.097 1250.23 349.126 1248.64 346.334C1246.15 341.987 1247.64 337.273 1247.7 337.079C1247.82 336.685 1248.26 336.463 1248.68 336.582C1249.09 336.701 1249.33 337.122 1249.2 337.516C1249.19 337.559 1247.85 341.852 1250.02 345.638C1251.41 348.062 1253.94 349.785 1257.54 350.762C1269.32 353.97 1278.97 345.098 1279.06 345.006C1279.37 344.714 1279.87 344.72 1280.18 345.011C1280.48 345.303 1280.48 345.778 1280.17 346.064C1279.82 346.399 1272.68 352.966 1262.87 352.966Z" fill="#F36B80"/>
<path d="M1252.21 328.12L1250.35 333.077C1249.36 332.91 1248.23 333.283 1247.45 334.125C1246.32 335.356 1246.33 337.127 1247.48 338.089C1248.63 339.05 1250.49 338.828 1251.62 337.597C1252.36 336.793 1252.62 335.756 1252.38 334.865L1257.39 332.435L1265.69 328.412L1255.34 319.783L1252.21 328.12Z" fill="#F36B80"/>
<path d="M1184.77 373.226C1183.58 374.555 1182.16 375.808 1180.43 376.904C1176.96 379.112 1173.53 379.906 1170.25 379.258C1165.16 378.254 1162.32 374.139 1162.2 373.961C1161.97 373.615 1162.07 373.151 1162.44 372.929C1162.8 372.708 1163.29 372.805 1163.52 373.156C1163.54 373.194 1166.14 376.931 1170.58 377.8C1173.43 378.356 1176.45 377.638 1179.55 375.662C1189.75 369.182 1188.85 356.459 1188.83 356.33C1188.8 355.919 1189.12 355.558 1189.56 355.531C1189.99 355.498 1190.37 355.806 1190.4 356.216C1190.44 356.686 1191.11 366.109 1184.77 373.226Z" fill="#F36B80"/>
<path d="M1157.92 364.91L1160.71 369.457C1159.93 370.073 1159.51 371.126 1159.68 372.238C1159.93 373.858 1161.37 374.992 1162.88 374.776C1164.39 374.56 1165.42 373.075 1165.16 371.461C1165 370.402 1164.32 369.549 1163.45 369.144L1164.73 363.944L1166.86 355.325L1153.24 357.259L1157.92 364.91Z" fill="#F36B80"/>
<path d="M1092.82 438.707L1076.49 451.31C1076.49 451.31 1111.5 498.982 1117.52 498.463C1123.55 497.945 1159.51 468.493 1159.54 468.472C1158.22 469.552 1158.44 477.905 1158.2 479.531C1153.55 510.457 1150.8 510.943 1134.27 547.155C1120.48 577.373 1132.65 604.638 1110.76 633.188C1099.88 647.379 1082.4 656.656 1067.13 666.02C1067.13 666.02 1085.75 693.079 1113.14 693.079C1140.53 693.079 1154.77 691 1171.75 698.285C1188.73 705.569 1215.8 700.596 1224.57 695.914C1231.48 692.221 1236.76 685.157 1243.44 681.113C1234.1 653.665 1228.93 627.685 1222.14 599.573C1215.82 573.361 1205.2 544.525 1214.09 518.071C1222.53 492.95 1232.8 459.632 1212.47 436.185C1212.47 436.185 1202.45 430.99 1179.85 427.48C1157.26 423.97 1120.29 466.506 1120.29 466.506L1092.82 438.707Z" fill="#5C407B"/>
<path d="M1156.65 447.503C1157.13 447.082 1155.75 445.079 1155.52 443.983C1157.22 447.439 1158.85 451.472 1159.9 450.614C1160.36 450.247 1159.22 445.111 1159.18 444.199C1159.94 445.851 1160.99 450.333 1162.7 449.545C1163.73 449.069 1162.65 443.848 1161.96 440.856C1162.53 442.66 1164.13 448.411 1164.72 447.941C1166 446.92 1163.16 434.095 1164.75 432.113C1165.37 431.336 1163.46 429.813 1160.94 429.068C1159.43 428.62 1157.7 428.452 1156.16 428.895C1153.9 429.149 1152.07 430.294 1150.72 431.055C1149.89 431.53 1149.26 432.162 1148.79 432.853C1147.34 434.959 1147.32 437.665 1148.55 439.889C1150.34 443.14 1155.29 448.681 1156.65 447.503Z" fill="#FFB3C5"/>
<path d="M1168.39 434.354C1168.39 434.354 1167.78 432.076 1166.99 430.909C1166.2 429.737 1158.05 426.973 1153.81 429.511C1149.57 432.049 1163.2 433.642 1163.2 433.642C1163.2 433.642 1164.94 434.489 1165.76 435.688C1166.58 436.892 1165.62 439.398 1166.85 439.884C1168.09 440.37 1169.15 437.054 1168.39 434.354Z" fill="#FFB3C5"/>
<path d="M1300.99 441.515C1300.5 441.094 1301.88 439.09 1302.11 437.994C1300.41 441.45 1298.79 445.484 1297.73 444.625C1297.28 444.258 1298.42 439.123 1298.46 438.21C1297.69 439.862 1296.64 444.344 1294.93 443.556C1293.91 443.081 1294.98 437.859 1295.67 434.867C1295.1 436.671 1293.5 442.422 1292.91 441.952C1291.63 440.932 1294.47 428.107 1292.89 426.125C1292.27 425.347 1294.17 423.824 1296.69 423.079C1298.2 422.631 1299.93 422.464 1301.47 422.906C1303.73 423.16 1305.56 424.305 1306.91 425.066C1307.75 425.542 1308.37 426.173 1308.85 426.865C1310.29 428.971 1310.31 431.676 1309.09 433.901C1307.3 437.152 1302.34 442.692 1300.99 441.515Z" fill="#FFB3C5"/>
<path d="M1289.24 428.371C1289.24 428.371 1289.85 426.092 1290.64 424.926C1291.43 423.754 1299.58 420.989 1303.82 423.527C1308.07 426.065 1294.44 427.658 1294.44 427.658C1294.44 427.658 1292.69 428.506 1291.87 429.705C1291.05 430.909 1292.01 433.415 1290.78 433.901C1289.55 434.387 1288.49 431.071 1289.24 428.371Z" fill="#FFB3C5"/>
<path d="M1192.88 414.963C1192.88 414.963 1191.22 427.761 1189.15 432.346C1187.09 436.93 1190.8 454.54 1201.03 457.958C1211.25 461.376 1202.94 437.594 1203.53 432.632C1204.12 427.669 1208.72 413.213 1208.72 413.213L1192.88 414.963Z" fill="#FFB3C5"/>
<path d="M1201.03 457.952C1208.85 460.566 1205.83 447.287 1204.24 438.664C1204.23 438.691 1204.22 438.718 1204.21 438.745C1200.79 447.617 1193.76 443.318 1188.79 438.599C1189.65 445.619 1193.64 455.485 1201.03 457.952Z" fill="white"/>
<path d="M1206.51 420.493C1207.67 416.507 1208.72 413.208 1208.72 413.208L1192.88 414.958C1192.88 414.958 1192.53 417.577 1191.97 420.865C1197.59 424.03 1202.68 423.279 1206.51 420.493Z" fill="#EA94AD"/>
<path d="M1219.95 401.069C1218.79 403.655 1216.59 405.205 1215.05 404.53C1213.52 403.855 1213.21 401.209 1214.38 398.623C1215.54 396.036 1217.73 394.486 1219.27 395.161C1220.81 395.836 1221.11 398.482 1219.95 401.069Z" fill="#FFB3C5"/>
<path d="M1198.99 380.144C1198.99 380.144 1192.73 381.283 1188.7 386.878C1184.67 392.477 1181.48 409.288 1193.85 417.663C1206.22 426.038 1216.42 415.249 1216.95 404.363C1217.47 393.482 1215.57 378.859 1198.99 380.144Z" fill="#FFB3C5"/>
<path d="M1188 402.008C1188.82 404.876 1187.89 407.63 1185.92 408.164C1183.94 408.699 1181.68 406.809 1180.86 403.942C1180.04 401.074 1180.97 398.32 1182.94 397.786C1184.91 397.251 1187.17 399.146 1188 402.008Z" fill="#FFB3C5"/>
<path d="M1180.85 394.578C1180.85 394.578 1207.91 384.253 1216.67 389.448C1216.67 389.448 1213.66 376.445 1213.65 376.429C1212.3 370.597 1198.5 373.27 1194.46 373.858C1189.53 374.571 1180.32 376.688 1178.32 381.634C1176.95 385.02 1180.85 394.578 1180.85 394.578Z" fill="#472A6A"/>
<path d="M1085.68 381.046L1082.16 389.524C1077.26 413.343 1068.5 426.508 1046.36 444.706L1044.68 446.51C1044.68 446.51 1050 462.305 1066.14 457.731C1076.81 437.114 1089.67 418.354 1105.37 400.626L1111.25 394.762L1085.68 381.046Z" fill="#31DAE7"/>
<path d="M1111.26 394.735C1110.41 395.998 1104.02 393.946 1096.98 390.155C1089.94 386.365 1084.85 382.261 1085.7 380.997C1086.55 379.733 1093.01 381.785 1100.05 385.582C1107.09 389.372 1112.11 393.471 1111.26 394.735Z" fill="#F2F2F2"/>
<path d="M1111.23 394.778L1111.25 394.751C1111.25 394.751 1095.23 387.99 1091.99 383.724L1090.44 386.165C1092.26 387.439 1094.49 388.816 1096.98 390.155C1103.94 393.903 1110.27 395.95 1111.23 394.778Z" fill="#F2F2F2"/>
<path d="M1079.36 419.742C1079.36 419.742 1077.32 421.076 1078.4 422.831C1079.49 424.586 1083.7 425.374 1083.7 425.374C1083.7 425.374 1081.4 428.463 1082.55 431.676C1083.7 434.889 1087.47 424.71 1087.47 424.71L1087.34 422.042L1079.36 419.742Z" fill="#FFB3C5"/>
<path d="M1077.25 438.205C1078.5 436.207 1079.77 434.225 1081.06 432.259C1078.3 426.962 1074.85 420.703 1072.14 416.961C1070.97 418.9 1069.71 420.8 1068.33 422.674C1070.92 426.886 1074.57 433.042 1077.25 438.205Z" fill="#F36B80"/>
<path d="M1072.3 416.61C1072.3 416.61 1069.54 416.61 1068.71 417.085C1067.88 417.56 1068.96 419.067 1067.88 419.861C1066.8 420.655 1064.63 420.417 1064.79 421.924C1064.96 423.43 1064.08 424.775 1063.25 425.887C1062.41 426.994 1066.96 433.496 1069.04 433.733C1071.13 433.971 1067.08 425.65 1067.5 425.806C1067.91 425.963 1071.04 431.352 1072.3 430.877C1073.55 430.402 1070.34 421.924 1070.34 421.924C1070.34 421.924 1073.47 427.156 1074.71 426.443C1075.97 425.725 1072.3 416.61 1072.3 416.61Z" fill="#FFB3C5"/>
<path d="M1547.16 400.837C1545.53 400.027 1543.92 398.974 1542.4 397.613C1539.36 394.87 1537.78 391.867 1537.74 388.687C1537.66 383.74 1541.3 380.219 1541.46 380.074C1541.77 379.782 1542.27 379.777 1542.58 380.068C1542.89 380.36 1542.89 380.83 1542.59 381.121C1542.55 381.154 1539.25 384.367 1539.32 388.676C1539.37 391.435 1540.77 394.076 1543.5 396.533C1552.44 404.573 1565.43 400.977 1565.56 400.945C1565.98 400.826 1566.42 401.047 1566.54 401.441C1566.67 401.836 1566.44 402.251 1566.01 402.37C1565.54 402.505 1555.93 405.167 1547.16 400.837Z" fill="#F36B80"/>
<path d="M1549.91 374.134L1545.8 377.703C1544.99 377.114 1543.81 376.947 1542.7 377.352C1541.08 377.941 1540.21 379.512 1540.76 380.873C1541.32 382.228 1543.08 382.855 1544.7 382.266C1545.76 381.883 1546.49 381.073 1546.72 380.182L1552.39 380.241L1561.78 380.338L1556.8 368.129L1549.91 374.134Z" fill="#F36B80"/>
<path d="M1584.82 408.235C1586.86 409.779 1590.42 414.752 1594.96 418.241C1597.61 420.282 1599.66 419.764 1603.04 420.152C1619.11 421.994 1614.76 425.104 1616.68 425.407C1616.13 426.6 1611.13 436.676 1610.2 438.718C1609.33 440.597 1607.84 441.439 1605.68 441.153C1602.36 440.716 1599.01 440.392 1595.73 439.722C1587.35 437.999 1582.69 434.025 1576.67 429.203C1575.08 427.923 1574.68 426.325 1575.51 424.516C1579.35 416.097 1584.4 409.007 1584.82 408.235Z" fill="#5C407B"/>
<path d="M1639.57 430.115C1630.36 422.831 1621.13 415.557 1611.93 408.256C1608.9 405.853 1605.45 404.46 1601.54 404.023C1598.57 403.693 1569.22 400.243 1566.23 399.886C1565.13 399.757 1564.11 399.794 1563.34 400.669C1562.33 401.809 1562.49 403.283 1563.76 404.293C1573.12 411.723 1582.49 419.148 1591.85 426.573C1594.57 428.722 1597.68 430.013 1601.19 430.423C1601.23 430.429 1637.53 434.619 1637.57 434.624C1639.17 434.954 1640.24 434.371 1640.73 433.15C1641.17 432.032 1640.83 431.114 1639.57 430.115Z" fill="#472A6A"/>
<path d="M1668.6 328.25L1675.15 326.225L1679.76 335.848L1689.72 334.006L1694.41 340.675L1697.98 338.429L1691.71 329.508L1682.26 331.252L1677.47 321.241L1667.61 324.286L1668.6 328.25Z" fill="#31DAE7"/>
<path d="M1305.71 205.016C1303.02 217.62 1290.06 225.769 1276.76 223.214C1263.46 220.66 1254.86 208.381 1257.55 195.777C1260.24 183.173 1273.2 175.025 1286.5 177.579C1299.8 180.133 1308.4 192.413 1305.71 205.016Z" fill="#E4C4FF"/>
<path d="M1267.98 201.544C1266.55 208.283 1271.14 214.85 1278.26 216.216C1285.37 217.582 1292.3 213.224 1293.74 206.485L1267.98 201.544Z" fill="#EFEFEF"/>
<path d="M939.641 468.742C937.641 466.22 935.435 464.94 933.081 464.94C919.703 464.94 916.688 502.281 916.688 515.36C916.688 530.28 918.432 543.11 921.738 552.469C924.781 561.082 928.84 565.828 933.172 565.828C937.772 565.828 941.973 560.374 945.005 550.476C952.751 525.209 949.89 481.669 939.641 468.742ZM942.343 550.19C939.761 558.376 936.301 563.263 933.081 563.263C929.86 563.263 926.4 558.376 923.818 550.19C920.94 541.058 919.355 528.692 919.355 515.365C919.355 502.038 920.94 489.672 923.818 480.541C926.4 472.354 929.86 467.467 933.081 467.467C936.301 467.467 939.761 472.354 942.343 480.541C945.222 489.672 946.806 502.038 946.806 515.365C946.806 528.692 945.222 541.058 942.343 550.19Z" fill="#31DAE7"/>
<path d="M978.549 529.308C967.85 512.492 918.397 487.458 895.871 487.458C890.678 487.458 887.292 488.808 885.805 491.47C884.414 493.96 884.881 497.059 887.19 500.688C897.917 517.552 947.302 542.657 969.748 542.657C974.987 542.657 978.412 541.285 979.923 538.574C981.325 536.063 980.864 532.948 978.549 529.308ZM977.865 536.971C977.056 538.861 974.28 539.86 969.828 539.86H969.823C954.227 539.86 918.739 527.278 896.378 506.801C887.851 498.992 887.047 495.04 887.874 493.096C888.677 491.211 891.453 490.212 895.894 490.212C904.199 490.212 917.172 493.609 930.595 499.306C945.752 505.732 959.523 514.237 969.361 523.244C977.894 531.063 978.692 535.027 977.865 536.971Z" fill="#31DAE7"/>
<path d="M979.011 490.925C977.461 488.219 974.086 486.848 968.973 486.848C958.759 486.848 941.385 492.626 923.636 501.93C905.903 511.223 891.778 521.932 886.785 529.88C884.505 533.509 884.049 536.571 885.429 538.985C886.939 541.631 890.279 542.97 895.358 542.97C917.645 542.97 966.876 517.423 977.666 500.256C979.986 496.557 980.442 493.42 979.011 490.925ZM954.062 517.531C938.29 527.958 919.856 536.036 904.757 539.152C901.138 539.897 897.963 540.275 895.312 540.275C891.317 540.275 888.712 539.411 887.777 537.775C886.865 536.177 887.275 533.979 888.997 531.23C893.545 523.994 907.054 513.616 923.425 504.781C941.015 495.288 958.104 489.623 969.133 489.623C974.2 489.623 976.914 490.882 977.193 493.371C977.763 498.382 968.683 507.865 954.062 517.531Z" fill="#31DAE7"/>
<path d="M941.648 513.848C941.648 518.303 937.834 521.915 933.132 521.915C928.429 521.915 924.616 518.303 924.616 513.848C924.616 509.393 928.429 505.78 933.132 505.78C937.834 505.78 941.648 509.393 941.648 513.848Z" fill="#31DAE7"/>
<path d="M1849.2 580.48L1827.86 587.091L1829.06 590.571L1850.41 583.96L1849.2 580.48Z" fill="#E4C4FF"/>
<path d="M1810.8 540.154L1799.6 559.884L1803 561.619L1814.21 541.889L1810.8 540.154Z" fill="#E4C4FF"/>
<path d="M1818.5 623.992L1815.57 626.37L1831.6 644.145L1834.54 641.767L1818.5 623.992Z" fill="#E4C4FF"/>
<path d="M1818.33 625.536L1779.49 635.477L1750.16 612.387L1752.63 609.568L1780.41 631.449L1815.2 622.544L1825.13 588.638L1799.47 562.615L1802.3 560.115L1829.43 587.639L1818.33 625.536Z" fill="#E4C4FF"/>
<path d="M1759.48 607.943C1761.2 612.554 1758.66 617.609 1753.79 619.24C1748.92 620.87 1743.59 618.457 1741.86 613.845C1740.14 609.233 1742.69 604.179 1747.56 602.548C1752.43 600.917 1757.77 603.331 1759.48 607.943Z" fill="#E4C4FF"/>
<path d="M1788.89 631.762C1790.61 636.374 1788.06 641.428 1783.2 643.059C1778.33 644.69 1772.99 642.276 1771.27 637.664C1769.55 633.053 1772.1 627.998 1776.97 626.368C1781.83 624.737 1787.17 627.156 1788.89 631.762Z" fill="#E4C4FF"/>
<path d="M1825.71 621.151C1827.43 625.763 1824.89 630.817 1820.02 632.448C1815.15 634.079 1809.81 631.665 1808.09 627.053C1806.37 622.442 1808.92 617.387 1813.79 615.757C1818.65 614.126 1823.99 616.54 1825.71 621.151Z" fill="#E4C4FF"/>
<path d="M1844.57 642.357C1846.29 646.969 1843.74 652.023 1838.87 653.654C1834.01 655.285 1828.67 652.871 1826.95 648.259C1825.23 643.648 1827.78 638.593 1832.64 636.963C1837.51 635.332 1842.85 637.746 1844.57 642.357Z" fill="#E4C4FF"/>
<path d="M1864.63 578C1866.35 582.611 1863.8 587.666 1858.93 589.297C1854.06 590.927 1848.73 588.514 1847.01 583.902C1845.29 579.29 1847.83 574.236 1852.7 572.605C1857.56 570.974 1862.9 573.388 1864.63 578Z" fill="#E4C4FF"/>
<path d="M1824.86 534.659C1826.58 539.271 1824.03 544.325 1819.16 545.956C1814.29 547.587 1808.96 545.173 1807.24 540.562C1805.52 535.95 1808.06 530.896 1812.93 529.265C1817.8 527.634 1823.14 530.048 1824.86 534.659Z" fill="#E4C4FF"/>
<path d="M1837.65 584.771C1839.37 589.383 1836.82 594.437 1831.95 596.068C1827.09 597.699 1821.75 595.285 1820.03 590.674C1818.31 586.062 1820.86 581.008 1825.72 579.377C1830.59 577.746 1835.93 580.16 1837.65 584.771Z" fill="#E4C4FF"/>
<path d="M1810.02 557.766C1811.74 562.378 1809.19 567.432 1804.33 569.063C1799.46 570.694 1794.12 568.28 1792.4 563.668C1790.68 559.057 1793.23 554.002 1798.1 552.371C1802.96 550.741 1808.3 553.154 1810.02 557.766Z" fill="#E4C4FF"/>
<path d="M1805.73 497.918L1793.19 495.439L1795.86 485.849L1799.59 486.778L1797.97 492.642L1806.53 494.332L1805.73 497.918Z" fill="#F36B80"/>
<path d="M958.081 604.001L955.259 611.415L942.166 608.434L936.626 618.791L926.44 618.079L926.058 622.96L939.681 623.921L944.931 614.099L958.554 617.204L962.8 606.047L958.081 604.001Z" fill="#31DAE7"/>
<path d="M946.094 397.926L952.951 398.596L953.025 409.163L962.92 411.318L964.345 419.218L968.563 418.538L966.665 407.97L957.289 405.929L957.209 394.934L946.892 393.925L946.094 397.926Z" fill="#31DAE7"/>
<path d="M1778.21 439.641C1777.57 439.641 1776.92 439.479 1776.36 439.171L1770.48 435.877C1769.6 435.407 1770.03 435.245 1770.32 435.154C1771.49 434.765 1771.73 434.684 1772.98 434.009C1773.11 433.939 1773.28 433.966 1773.41 434.047L1777.93 436.585C1778.09 436.676 1778.32 436.676 1778.47 436.585L1796.07 426.962C1796.23 426.87 1796.34 426.692 1796.34 426.508V407.263C1796.34 407.074 1796.24 406.901 1796.07 406.804L1778.48 397.186C1778.32 397.094 1778.09 397.094 1777.93 397.186L1760.35 406.809C1760.18 406.901 1760.08 407.079 1760.08 407.268V426.508C1760.08 426.686 1760.18 426.87 1760.35 426.951L1765.17 429.586C1767.79 430.823 1769.4 429.37 1769.4 427.896V408.899C1769.4 408.629 1769.62 408.418 1769.91 408.418H1772.14C1772.41 408.418 1772.65 408.623 1772.65 408.899V427.901C1772.65 431.206 1770.75 433.102 1767.44 433.102C1766.42 433.102 1765.62 433.102 1763.39 432.054L1758.78 429.538C1757.63 428.917 1756.93 427.75 1756.93 426.497V407.257C1756.93 406.01 1757.64 404.838 1758.78 404.217L1776.36 394.594C1777.48 394 1778.96 394 1780.06 394.594L1797.66 404.228C1798.81 404.849 1799.51 406.015 1799.51 407.268V426.508C1799.51 427.756 1798.8 428.917 1797.66 429.548L1780.06 439.171C1779.5 439.479 1778.86 439.641 1778.21 439.641ZM1792.42 420.676C1792.42 417.074 1789.85 416.119 1784.44 415.438C1778.97 414.752 1778.42 414.401 1778.42 413.192C1778.42 412.187 1778.89 410.854 1782.93 410.854C1786.55 410.854 1787.88 411.593 1788.43 413.905C1788.48 414.121 1788.69 414.283 1788.93 414.283H1791.22C1791.36 414.283 1791.49 414.229 1791.59 414.131C1791.68 414.034 1791.73 413.899 1791.72 413.759C1791.36 409.779 1788.57 407.927 1782.93 407.927C1777.91 407.927 1774.92 409.93 1774.92 413.3C1774.92 416.945 1777.9 417.96 1782.72 418.408C1788.48 418.943 1788.93 419.742 1788.93 420.817C1788.93 422.674 1787.35 423.473 1783.64 423.473C1778.98 423.473 1777.96 422.361 1777.62 420.169C1777.58 419.936 1777.37 419.764 1777.11 419.764H1774.83C1774.54 419.764 1774.32 419.98 1774.32 420.244C1774.32 423.052 1775.93 426.4 1783.64 426.4C1789.22 426.389 1792.42 424.305 1792.42 420.676Z" fill="#31DAE7"/>
<path d="M1776.74 706.979L1776.03 705.618C1776.03 705.618 1781.59 700.569 1780.04 698.36C1780.25 695.725 1844.27 637.902 1785.12 702.772C1785.12 702.772 1782.69 702.011 1781.05 703.058C1779.41 704.057 1776.74 706.979 1776.74 706.979Z" fill="white"/>
<path d="M1776.74 706.979L1776.03 705.618C1776.03 705.618 1781.59 700.569 1780.04 698.36C1780.25 695.725 1844.27 637.902 1785.12 702.772C1785.12 702.772 1782.69 702.011 1781.05 703.058C1779.41 704.057 1776.74 706.979 1776.74 706.979Z" fill="#A6A385"/>
<path d="M1782.58 702.529C1782.58 702.529 1798.03 705.542 1808.64 691.367C1815.82 680.594 1813.89 672.98 1814.52 671.366C1814.76 670.005 1815.66 668.077 1815.66 668.077L1790.21 692.917C1790.18 693.004 1781.51 699.694 1782.58 702.529Z" fill="white"/>
<path d="M1782.58 702.529C1782.58 702.529 1798.03 705.542 1808.64 691.367C1815.82 680.594 1813.89 672.98 1814.52 671.366C1814.76 670.005 1815.66 668.077 1815.66 668.077L1790.21 692.917C1790.18 693.004 1781.51 699.694 1782.58 702.529Z" fill="#499D4A"/>
<path d="M1780.04 700.801C1780.04 700.801 1777.28 686.842 1788.33 677.338C1799.37 667.834 1810.7 668.758 1812.85 668.984C1814.49 668.952 1814.83 668.698 1815.73 667.964C1815.1 669.578 1798.67 684.979 1796.78 686.875C1789.61 694.105 1782.04 700.034 1780.04 700.801Z" fill="white"/>
<path d="M1780.04 700.801C1780.04 700.801 1777.28 686.842 1788.33 677.338C1799.37 667.834 1810.7 668.758 1812.85 668.984C1814.49 668.952 1814.83 668.698 1815.73 667.964C1815.1 669.578 1798.67 684.979 1796.78 686.875C1789.61 694.105 1782.04 700.034 1780.04 700.801Z" fill="#58AA50"/>
</g>
<path d="M1024.16 896.32L1018.64 906.952V913H1015.9V906.952L1010.36 896.32H1013.41L1017.27 904.504L1021.14 896.32H1024.16ZM1032.07 913.216C1030.82 913.216 1029.69 912.936 1028.68 912.376C1027.68 911.8 1026.88 911 1026.31 909.976C1025.73 908.936 1025.44 907.736 1025.44 906.376C1025.44 905.032 1025.74 903.84 1026.33 902.8C1026.92 901.76 1027.73 900.96 1028.76 900.4C1029.78 899.84 1030.92 899.56 1032.19 899.56C1033.45 899.56 1034.6 899.84 1035.62 900.4C1036.64 900.96 1037.45 901.76 1038.04 902.8C1038.64 903.84 1038.93 905.032 1038.93 906.376C1038.93 907.72 1038.63 908.912 1038.02 909.952C1037.41 910.992 1036.58 911.8 1035.52 912.376C1034.48 912.936 1033.33 913.216 1032.07 913.216ZM1032.07 910.84C1032.77 910.84 1033.43 910.672 1034.04 910.336C1034.66 910 1035.16 909.496 1035.55 908.824C1035.93 908.152 1036.12 907.336 1036.12 906.376C1036.12 905.416 1035.94 904.608 1035.57 903.952C1035.2 903.28 1034.72 902.776 1034.11 902.44C1033.5 902.104 1032.84 901.936 1032.14 901.936C1031.44 901.936 1030.78 902.104 1030.17 902.44C1029.58 902.776 1029.11 903.28 1028.76 903.952C1028.4 904.608 1028.23 905.416 1028.23 906.376C1028.23 907.8 1028.59 908.904 1029.31 909.688C1030.04 910.456 1030.96 910.84 1032.07 910.84ZM1053.61 899.776V913H1050.88V911.44C1050.44 911.984 1049.88 912.416 1049.17 912.736C1048.48 913.04 1047.75 913.192 1046.96 913.192C1045.92 913.192 1044.99 912.976 1044.16 912.544C1043.34 912.112 1042.69 911.472 1042.21 910.624C1041.75 909.776 1041.52 908.752 1041.52 907.552V899.776H1044.23V907.144C1044.23 908.328 1044.52 909.24 1045.12 909.88C1045.71 910.504 1046.52 910.816 1047.54 910.816C1048.56 910.816 1049.37 910.504 1049.96 909.88C1050.57 909.24 1050.88 908.328 1050.88 907.144V899.776H1053.61ZM1068.9 896.32C1070.68 896.32 1072.23 896.664 1073.56 897.352C1074.9 898.024 1075.94 899 1076.66 900.28C1077.39 901.544 1077.76 903.024 1077.76 904.72C1077.76 906.416 1077.39 907.888 1076.66 909.136C1075.94 910.384 1074.9 911.344 1073.56 912.016C1072.23 912.672 1070.68 913 1068.9 913H1063.46V896.32H1068.9ZM1068.9 910.768C1070.86 910.768 1072.35 910.24 1073.39 909.184C1074.43 908.128 1074.95 906.64 1074.95 904.72C1074.95 902.784 1074.43 901.272 1073.39 900.184C1072.35 899.096 1070.86 898.552 1068.9 898.552H1066.19V910.768H1068.9ZM1086.21 913.216C1084.96 913.216 1083.83 912.936 1082.82 912.376C1081.82 911.8 1081.02 911 1080.45 909.976C1079.87 908.936 1079.58 907.736 1079.58 906.376C1079.58 905.032 1079.88 903.84 1080.47 902.8C1081.06 901.76 1081.87 900.96 1082.9 900.4C1083.92 899.84 1085.06 899.56 1086.33 899.56C1087.59 899.56 1088.74 899.84 1089.76 900.4C1090.78 900.96 1091.59 901.76 1092.18 902.8C1092.78 903.84 1093.07 905.032 1093.07 906.376C1093.07 907.72 1092.77 908.912 1092.16 909.952C1091.55 910.992 1090.72 911.8 1089.66 912.376C1088.62 912.936 1087.47 913.216 1086.21 913.216ZM1086.21 910.84C1086.91 910.84 1087.57 910.672 1088.18 910.336C1088.8 910 1089.3 909.496 1089.69 908.824C1090.07 908.152 1090.26 907.336 1090.26 906.376C1090.26 905.416 1090.08 904.608 1089.71 903.952C1089.34 903.28 1088.86 902.776 1088.25 902.44C1087.64 902.104 1086.98 901.936 1086.28 901.936C1085.58 901.936 1084.92 902.104 1084.31 902.44C1083.72 902.776 1083.25 903.28 1082.9 903.952C1082.54 904.608 1082.37 905.416 1082.37 906.376C1082.37 907.8 1082.73 908.904 1083.45 909.688C1084.18 910.456 1085.1 910.84 1086.21 910.84ZM1102.45 899.56C1103.49 899.56 1104.42 899.776 1105.23 900.208C1106.06 900.64 1106.71 901.28 1107.18 902.128C1107.64 902.976 1107.87 904 1107.87 905.2V913H1105.16V905.608C1105.16 904.424 1104.86 903.52 1104.27 902.896C1103.68 902.256 1102.87 901.936 1101.85 901.936C1100.82 901.936 1100.01 902.256 1099.4 902.896C1098.81 903.52 1098.51 904.424 1098.51 905.608V913H1095.78V899.776H1098.51V901.288C1098.96 900.744 1099.53 900.32 1100.22 900.016C1100.92 899.712 1101.66 899.56 1102.45 899.56ZM1112.85 893.872L1112.56 898.792H1110.69L1110.38 893.872H1112.85ZM1118.68 902.008V909.328C1118.68 909.824 1118.79 910.184 1119.02 910.408C1119.26 910.616 1119.66 910.72 1120.22 910.72H1121.9V913H1119.74C1118.5 913 1117.56 912.712 1116.9 912.136C1116.25 911.56 1115.92 910.624 1115.92 909.328V902.008H1114.36V899.776H1115.92V896.488H1118.68V899.776H1121.9V902.008H1118.68ZM1139.84 913L1133.39 905.536V913H1130.65V896.32H1133.39V903.928L1139.87 896.32H1143.3L1136.05 904.672L1143.42 913H1139.84ZM1152.51 899.56C1153.55 899.56 1154.48 899.776 1155.3 900.208C1156.13 900.64 1156.78 901.28 1157.24 902.128C1157.7 902.976 1157.94 904 1157.94 905.2V913H1155.22V905.608C1155.22 904.424 1154.93 903.52 1154.34 902.896C1153.74 902.256 1152.94 901.936 1151.91 901.936C1150.89 901.936 1150.07 902.256 1149.46 902.896C1148.87 903.52 1148.58 904.424 1148.58 905.608V913H1145.84V899.776H1148.58V901.288C1149.02 900.744 1149.59 900.32 1150.28 900.016C1150.98 899.712 1151.73 899.56 1152.51 899.56ZM1167.16 913.216C1165.91 913.216 1164.79 912.936 1163.78 912.376C1162.77 911.8 1161.98 911 1161.4 909.976C1160.83 908.936 1160.54 907.736 1160.54 906.376C1160.54 905.032 1160.83 903.84 1161.43 902.8C1162.02 901.76 1162.83 900.96 1163.85 900.4C1164.87 899.84 1166.02 899.56 1167.28 899.56C1168.55 899.56 1169.69 899.84 1170.71 900.4C1171.74 900.96 1172.55 901.76 1173.14 902.8C1173.73 903.84 1174.03 905.032 1174.03 906.376C1174.03 907.72 1173.72 908.912 1173.11 909.952C1172.51 910.992 1171.67 911.8 1170.62 912.376C1169.58 912.936 1168.43 913.216 1167.16 913.216ZM1167.16 910.84C1167.87 910.84 1168.52 910.672 1169.13 910.336C1169.75 910 1170.26 909.496 1170.64 908.824C1171.03 908.152 1171.22 907.336 1171.22 906.376C1171.22 905.416 1171.03 904.608 1170.67 903.952C1170.3 903.28 1169.81 902.776 1169.2 902.44C1168.59 902.104 1167.94 901.936 1167.23 901.936C1166.53 901.936 1165.87 902.104 1165.27 902.44C1164.67 902.776 1164.2 903.28 1163.85 903.952C1163.5 904.608 1163.32 905.416 1163.32 906.376C1163.32 907.8 1163.68 908.904 1164.4 909.688C1165.14 910.456 1166.06 910.84 1167.16 910.84ZM1194.49 899.776L1190.39 913H1187.51L1184.84 903.232L1182.18 913H1179.3L1175.17 899.776H1177.95L1180.71 910.408L1183.52 899.776H1186.38L1189.07 910.36L1191.8 899.776H1194.49ZM1211.86 896.32V908.344C1211.86 909.832 1211.41 911.008 1210.5 911.872C1209.6 912.736 1208.42 913.168 1206.94 913.168C1205.47 913.168 1204.28 912.736 1203.37 911.872C1202.47 911.008 1202.02 909.832 1202.02 908.344H1204.78C1204.8 909.08 1204.98 909.664 1205.34 910.096C1205.7 910.528 1206.24 910.744 1206.94 910.744C1207.65 910.744 1208.18 910.528 1208.55 910.096C1208.92 909.648 1209.1 909.064 1209.1 908.344V896.32H1211.86ZM1221.81 913.168C1220.69 913.168 1219.68 912.976 1218.79 912.592C1217.89 912.192 1217.19 911.632 1216.68 910.912C1216.16 910.192 1215.91 909.352 1215.91 908.392H1218.84C1218.9 909.112 1219.18 909.704 1219.68 910.168C1220.19 910.632 1220.9 910.864 1221.81 910.864C1222.76 910.864 1223.49 910.64 1224.02 910.192C1224.55 909.728 1224.81 909.136 1224.81 908.416C1224.81 907.856 1224.64 907.4 1224.31 907.048C1223.99 906.696 1223.58 906.424 1223.08 906.232C1222.6 906.04 1221.93 905.832 1221.07 905.608C1219.98 905.32 1219.09 905.032 1218.4 904.744C1217.73 904.44 1217.16 903.976 1216.68 903.352C1216.2 902.728 1215.96 901.896 1215.96 900.856C1215.96 899.896 1216.2 899.056 1216.68 898.336C1217.16 897.616 1217.83 897.064 1218.69 896.68C1219.56 896.296 1220.56 896.104 1221.69 896.104C1223.31 896.104 1224.63 896.512 1225.65 897.328C1226.69 898.128 1227.27 899.232 1227.38 900.64H1224.36C1224.31 900.032 1224.02 899.512 1223.49 899.08C1222.96 898.648 1222.27 898.432 1221.4 898.432C1220.62 898.432 1219.98 898.632 1219.48 899.032C1218.99 899.432 1218.74 900.008 1218.74 900.76C1218.74 901.272 1218.89 901.696 1219.2 902.032C1219.52 902.352 1219.92 902.608 1220.4 902.8C1220.88 902.992 1221.53 903.2 1222.36 903.424C1223.47 903.728 1224.36 904.032 1225.05 904.336C1225.76 904.64 1226.35 905.112 1226.83 905.752C1227.32 906.376 1227.57 907.216 1227.57 908.272C1227.57 909.12 1227.34 909.92 1226.88 910.672C1226.43 911.424 1225.76 912.032 1224.88 912.496C1224.02 912.944 1223 913.168 1221.81 913.168Z" fill="#FFBBC6"/>
<path d="M1048.8 807.1L1044.2 815.96V821H1041.92V815.96L1037.3 807.1H1039.84L1043.06 813.92L1046.28 807.1H1048.8ZM1055.39 821.18C1054.35 821.18 1053.41 820.947 1052.57 820.48C1051.73 820 1051.07 819.333 1050.59 818.48C1050.11 817.613 1049.87 816.613 1049.87 815.48C1049.87 814.36 1050.12 813.367 1050.61 812.5C1051.1 811.633 1051.78 810.967 1052.63 810.5C1053.48 810.033 1054.44 809.8 1055.49 809.8C1056.54 809.8 1057.5 810.033 1058.35 810.5C1059.2 810.967 1059.88 811.633 1060.37 812.5C1060.86 813.367 1061.11 814.36 1061.11 815.48C1061.11 816.6 1060.86 817.593 1060.35 818.46C1059.84 819.327 1059.15 820 1058.27 820.48C1057.4 820.947 1056.44 821.18 1055.39 821.18ZM1055.39 819.2C1055.98 819.2 1056.52 819.06 1057.03 818.78C1057.55 818.5 1057.97 818.08 1058.29 817.52C1058.61 816.96 1058.77 816.28 1058.77 815.48C1058.77 814.68 1058.62 814.007 1058.31 813.46C1058 812.9 1057.6 812.48 1057.09 812.2C1056.58 811.92 1056.04 811.78 1055.45 811.78C1054.86 811.78 1054.32 811.92 1053.81 812.2C1053.32 812.48 1052.92 812.9 1052.63 813.46C1052.34 814.007 1052.19 814.68 1052.19 815.48C1052.19 816.667 1052.49 817.587 1053.09 818.24C1053.7 818.88 1054.47 819.2 1055.39 819.2ZM1073.34 809.98V821H1071.06V819.7C1070.7 820.153 1070.23 820.513 1069.64 820.78C1069.07 821.033 1068.46 821.16 1067.8 821.16C1066.94 821.16 1066.16 820.98 1065.46 820.62C1064.78 820.26 1064.24 819.727 1063.84 819.02C1063.46 818.313 1063.26 817.46 1063.26 816.46V809.98H1065.52V816.12C1065.52 817.107 1065.77 817.867 1066.26 818.4C1066.76 818.92 1067.43 819.18 1068.28 819.18C1069.14 819.18 1069.81 818.92 1070.3 818.4C1070.81 817.867 1071.06 817.107 1071.06 816.12V809.98H1073.34ZM1086.09 807.1C1087.57 807.1 1088.86 807.387 1089.97 807.96C1091.09 808.52 1091.95 809.333 1092.55 810.4C1093.16 811.453 1093.47 812.687 1093.47 814.1C1093.47 815.513 1093.16 816.74 1092.55 817.78C1091.95 818.82 1091.09 819.62 1089.97 820.18C1088.86 820.727 1087.57 821 1086.09 821H1081.55V807.1H1086.09ZM1086.09 819.14C1087.71 819.14 1088.96 818.7 1089.83 817.82C1090.69 816.94 1091.13 815.7 1091.13 814.1C1091.13 812.487 1090.69 811.227 1089.83 810.32C1088.96 809.413 1087.71 808.96 1086.09 808.96H1083.83V819.14H1086.09ZM1100.51 821.18C1099.47 821.18 1098.53 820.947 1097.69 820.48C1096.85 820 1096.19 819.333 1095.71 818.48C1095.23 817.613 1094.99 816.613 1094.99 815.48C1094.99 814.36 1095.23 813.367 1095.73 812.5C1096.22 811.633 1096.89 810.967 1097.75 810.5C1098.6 810.033 1099.55 809.8 1100.61 809.8C1101.66 809.8 1102.61 810.033 1103.47 810.5C1104.32 810.967 1104.99 811.633 1105.49 812.5C1105.98 813.367 1106.23 814.36 1106.23 815.48C1106.23 816.6 1105.97 817.593 1105.47 818.46C1104.96 819.327 1104.27 820 1103.39 820.48C1102.52 820.947 1101.56 821.18 1100.51 821.18ZM1100.51 819.2C1101.09 819.2 1101.64 819.06 1102.15 818.78C1102.67 818.5 1103.09 818.08 1103.41 817.52C1103.73 816.96 1103.89 816.28 1103.89 815.48C1103.89 814.68 1103.73 814.007 1103.43 813.46C1103.12 812.9 1102.71 812.48 1102.21 812.2C1101.7 811.92 1101.15 811.78 1100.57 811.78C1099.98 811.78 1099.43 811.92 1098.93 812.2C1098.43 812.48 1098.04 812.9 1097.75 813.46C1097.45 814.007 1097.31 814.68 1097.31 815.48C1097.31 816.667 1097.61 817.587 1098.21 818.24C1098.82 818.88 1099.59 819.2 1100.51 819.2ZM1114.04 809.8C1114.91 809.8 1115.68 809.98 1116.36 810.34C1117.05 810.7 1117.59 811.233 1117.98 811.94C1118.37 812.647 1118.56 813.5 1118.56 814.5V821H1116.3V814.84C1116.3 813.853 1116.05 813.1 1115.56 812.58C1115.07 812.047 1114.39 811.78 1113.54 811.78C1112.69 811.78 1112.01 812.047 1111.5 812.58C1111.01 813.1 1110.76 813.853 1110.76 814.84V821H1108.48V809.98H1110.76V811.24C1111.13 810.787 1111.61 810.433 1112.18 810.18C1112.77 809.927 1113.39 809.8 1114.04 809.8ZM1122.71 805.06L1122.47 809.16H1120.91L1120.65 805.06H1122.71ZM1127.57 811.84V817.94C1127.57 818.353 1127.66 818.653 1127.85 818.84C1128.05 819.013 1128.38 819.1 1128.85 819.1H1130.25V821H1128.45C1127.42 821 1126.63 820.76 1126.09 820.28C1125.54 819.8 1125.27 819.02 1125.27 817.94V811.84H1123.97V809.98H1125.27V807.24H1127.57V809.98H1130.25V811.84H1127.57ZM1145.2 821L1139.82 814.78V821H1137.54V807.1H1139.82V813.44L1145.22 807.1H1148.08L1142.04 814.06L1148.18 821H1145.2ZM1155.76 809.8C1156.63 809.8 1157.4 809.98 1158.08 810.34C1158.77 810.7 1159.31 811.233 1159.7 811.94C1160.09 812.647 1160.28 813.5 1160.28 814.5V821H1158.02V814.84C1158.02 813.853 1157.77 813.1 1157.28 812.58C1156.79 812.047 1156.11 811.78 1155.26 811.78C1154.41 811.78 1153.73 812.047 1153.22 812.58C1152.73 813.1 1152.48 813.853 1152.48 814.84V821H1150.2V809.98H1152.48V811.24C1152.85 810.787 1153.33 810.433 1153.9 810.18C1154.49 809.927 1155.11 809.8 1155.76 809.8ZM1167.97 821.18C1166.93 821.18 1165.99 820.947 1165.15 820.48C1164.31 820 1163.65 819.333 1163.17 818.48C1162.69 817.613 1162.45 816.613 1162.45 815.48C1162.45 814.36 1162.69 813.367 1163.19 812.5C1163.68 811.633 1164.35 810.967 1165.21 810.5C1166.06 810.033 1167.01 809.8 1168.07 809.8C1169.12 809.8 1170.07 810.033 1170.93 810.5C1171.78 810.967 1172.45 811.633 1172.95 812.5C1173.44 813.367 1173.69 814.36 1173.69 815.48C1173.69 816.6 1173.43 817.593 1172.93 818.46C1172.42 819.327 1171.73 820 1170.85 820.48C1169.98 820.947 1169.02 821.18 1167.97 821.18ZM1167.97 819.2C1168.55 819.2 1169.1 819.06 1169.61 818.78C1170.13 818.5 1170.55 818.08 1170.87 817.52C1171.19 816.96 1171.35 816.28 1171.35 815.48C1171.35 814.68 1171.19 814.007 1170.89 813.46C1170.58 812.9 1170.17 812.48 1169.67 812.2C1169.16 811.92 1168.61 811.78 1168.03 811.78C1167.44 811.78 1166.89 811.92 1166.39 812.2C1165.89 812.48 1165.5 812.9 1165.21 813.46C1164.91 814.007 1164.77 814.68 1164.77 815.48C1164.77 816.667 1165.07 817.587 1165.67 818.24C1166.28 818.88 1167.05 819.2 1167.97 819.2ZM1190.74 809.98L1187.32 821H1184.92L1182.7 812.86L1180.48 821H1178.08L1174.64 809.98H1176.96L1179.26 818.84L1181.6 809.98H1183.98L1186.22 818.8L1188.5 809.98H1190.74ZM1205.22 807.1V817.12C1205.22 818.36 1204.84 819.34 1204.08 820.06C1203.33 820.78 1202.35 821.14 1201.12 821.14C1199.89 821.14 1198.9 820.78 1198.14 820.06C1197.39 819.34 1197.02 818.36 1197.02 817.12H1199.32C1199.33 817.733 1199.49 818.22 1199.78 818.58C1200.09 818.94 1200.53 819.12 1201.12 819.12C1201.71 819.12 1202.15 818.94 1202.46 818.58C1202.77 818.207 1202.92 817.72 1202.92 817.12V807.1H1205.22ZM1213.51 821.14C1212.58 821.14 1211.74 820.98 1210.99 820.66C1210.24 820.327 1209.66 819.86 1209.23 819.26C1208.8 818.66 1208.59 817.96 1208.59 817.16H1211.03C1211.08 817.76 1211.32 818.253 1211.73 818.64C1212.16 819.027 1212.75 819.22 1213.51 819.22C1214.3 819.22 1214.91 819.033 1215.35 818.66C1215.79 818.273 1216.01 817.78 1216.01 817.18C1216.01 816.713 1215.87 816.333 1215.59 816.04C1215.32 815.747 1214.98 815.52 1214.57 815.36C1214.17 815.2 1213.61 815.027 1212.89 814.84C1211.98 814.6 1211.24 814.36 1210.67 814.12C1210.11 813.867 1209.63 813.48 1209.23 812.96C1208.83 812.44 1208.63 811.747 1208.63 810.88C1208.63 810.08 1208.83 809.38 1209.23 808.78C1209.63 808.18 1210.19 807.72 1210.91 807.4C1211.63 807.08 1212.46 806.92 1213.41 806.92C1214.76 806.92 1215.86 807.26 1216.71 807.94C1217.58 808.607 1218.06 809.527 1218.15 810.7H1215.63C1215.59 810.193 1215.35 809.76 1214.91 809.4C1214.47 809.04 1213.89 808.86 1213.17 808.86C1212.52 808.86 1211.98 809.027 1211.57 809.36C1211.16 809.693 1210.95 810.173 1210.95 810.8C1210.95 811.227 1211.08 811.58 1211.33 811.86C1211.6 812.127 1211.93 812.34 1212.33 812.5C1212.73 812.66 1213.28 812.833 1213.97 813.02C1214.89 813.273 1215.64 813.527 1216.21 813.78C1216.8 814.033 1217.29 814.427 1217.69 814.96C1218.1 815.48 1218.31 816.18 1218.31 817.06C1218.31 817.767 1218.12 818.433 1217.73 819.06C1217.36 819.687 1216.8 820.193 1216.07 820.58C1215.35 820.953 1214.5 821.14 1213.51 821.14Z" fill="#6DF3FD"/>
<defs>
<clipPath id="clip0_25_4">
<rect width="2052" height="1080" fill="white" transform="translate(-95)"/>
</clipPath>
</defs>
</svg>
