<svg width="34" height="33" viewBox="0 0 34 33" fill="none" xmlns="http://www.w3.org/2000/svg">
<path d="M27.2466 18.2116L12.3904 15.8835L14.3598 24.7362L27.2466 18.2116Z" fill="#D12053"/>
<path d="M27.2464 18.2115L16.0518 2.65771L12.3931 15.8862L27.2464 18.2115Z" fill="#E2136E"/>
<path d="M12.0457 15.707L0.315918 0.716309L15.6764 2.55127L12.0457 15.707Z" fill="#D12053"/>
<path d="M6.70336 9.44295L0.189941 3.30493H1.90444L6.70336 9.44295Z" fill="#9E1638"/>
<path d="M30.4149 10.6504L27.6583 18.1275L23.1899 11.9475L30.4149 10.6504Z" fill="#D12053"/>
<path d="M16 24.7262L26.8165 20.3811L27.2703 19L16 24.7262Z" fill="#E2136E"/>
<path d="M7.44312 32.4878L12.0767 16.2336L14.4272 26.8092L7.44312 32.4878Z" fill="#9E1638"/>
<path d="M30.8464 10.7092L29.709 13.7964L33.8103 13.7292L30.8464 10.7092Z" fill="#E2136E"/>
</svg>
