<svg width="648" height="177" viewBox="0 0 648 177" fill="none" xmlns="http://www.w3.org/2000/svg">
<path d="M66.8342 124.03C61.8885 135.833 48.396 140.993 35.0162 137.552C23.9984 134.343 15.9022 126.436 11.5161 115.087C6.23249 101.446 5.5566 82.9895 8.81616 64.8784C-2.64863 55.2487 -2.31431 30.2587 8.70715 20.858C10.9529 17.8819 15.6769 22.3478 15.6769 23.9576C2.74764 28.6562 1.06152 52.7304 9.6047 61.3245C13.9908 40.3463 23.9984 23.0383 39.5113 17.6493C60.3114 10.4288 76.2785 25.5602 68.0697 48.944C60.6457 69.9222 36.586 78.4036 22.0833 72.5567C18.7111 99.9559 24.4453 126.087 38.3848 133.086C65.7077 143.74 69.5305 91.2383 52.7784 91.013C51.652 91.1257 51.9899 88.7164 53.5633 89.4105C67.51 91.4709 72.3467 110.043 66.8342 124.03ZM40.4161 28.5399C30.6338 38.8564 24.449 58.2284 22.3123 69.4643C38.283 75.1949 56.1543 59.9509 62.7933 42.5266C69.0835 21.89 55.8163 14.8984 40.4161 28.5399Z" fill="url(#paint0_linear_20_4662)"/>
<path d="M98.9869 105.457V105.57C104.274 104.429 107.087 95.9401 108.21 90.5547C108.769 88.6033 110.684 89.0612 110.572 91.0126C109.336 97.7752 105.397 107.408 98.4272 108.095C96.4032 116.464 91.7955 124.03 84.7095 123.339C76.388 122.765 72.1146 112.103 71.8929 102.019C71.6676 93.9923 73.6917 77.0259 86.8462 75.0781C98.0893 74.7329 99.2122 86.6556 97.4134 93.8797C99.5501 95.4858 99.4375 102.935 98.9869 105.457ZM86.5082 81.2702C80.2108 88.8359 80.774 108.44 84.0336 118.637C88.1907 124.371 92.0135 112.797 90.8907 106.144C86.6172 103.506 86.2829 91.8156 92.1298 91.6957C95.1641 77.829 90.331 76.6843 86.5082 81.2702Z" fill="url(#paint1_linear_20_4662)"/>
<path d="M118.664 121.163C119.002 123.343 111.353 124.597 109.216 119.785C106.741 110.156 108.206 90.2059 107.079 89.1775C116.527 85.9688 117.875 95.137 118.326 105.453L119.111 100.868C120.688 90.4348 124.285 77.4801 130.805 75.4197C139.686 74.5004 141.822 82.9854 142.051 90.5511C142.16 96.8558 141.263 127.689 143.061 128.034C148.458 129.292 154.305 92.3825 154.755 90.5511C155.315 88.1418 157.789 89.0576 157.114 91.1216C153.178 108.546 149.472 134.11 140.362 133.423C133.054 132.962 130.245 109.124 130.467 101.329C130.358 90.0896 132.378 81.3793 128.108 83.327C125.634 85.2784 122.937 92.4988 120.128 109.349L120.237 109.462C120.016 110.265 119.899 111.064 119.787 111.874L119.449 114.167C119.002 116.693 118.773 119.099 118.664 121.163Z" fill="url(#paint2_linear_20_4662)"/>
<path d="M165.991 171.143C158.908 162.2 158.908 145.691 167.339 137.439C169.926 134.804 174.312 133.656 178.807 133.889C180.384 134.001 181.954 134.343 183.531 134.804C183.982 118.757 183.306 102.249 183.869 95.3699C179.934 107.06 171.387 124.829 163.407 123.107C153.399 121.388 151.263 106.486 152.16 98.6913C152.498 88.3748 160.482 74.2718 171.274 75.3038C177.684 76.1069 179.709 80.4639 180.272 86.427C180.722 91.8124 172.288 92.0449 173.64 87.4554C175.664 81.7248 174.2 76.5684 171.729 79.6608C170.268 81.4959 168.582 84.7046 167.568 88.2585C164.868 96.7435 163.073 108.546 164.868 117.489C167.005 127.922 178.586 103.045 182.521 87.4517L182.859 85.7329C183.419 81.7212 193.877 86.536 195.676 90.2026C195.901 90.7767 195.901 91.3509 195.788 91.925C194.437 102.358 193.761 121.047 191.515 138.122C206.465 146.037 223.555 162.538 242.331 167.469C259.65 171.593 259.65 152.679 245.143 147.178C244.355 155.092 238.057 155.434 236.371 152.45C234.347 149.696 237.047 143.62 245.703 145.688C262.342 151.309 265.605 178.818 242.556 176.063C220.404 171.939 204.775 151.073 191.061 141.102C189.149 154.169 186.115 165.979 180.94 172.055C176.111 177.444 170.152 175.841 165.991 171.143ZM179.934 165.18C182.183 158.188 183.081 147.643 183.419 136.868C182.292 136.52 181.282 136.182 180.156 136.058C175.21 135.945 171.612 140.073 170.039 148.784C168.912 154.293 169.138 160.369 170.261 165.754C172.401 175.267 175.998 177.56 179.934 165.18Z" fill="url(#paint3_linear_20_4662)"/>
<path d="M217.036 88.491C221.869 86.3107 224.227 79.7807 227.941 75.1948C229.74 72.5566 240.645 75.8816 239.184 84.1377C238.846 86.5433 238.057 93.3059 237.723 104.542C237.498 112.336 238.174 117.38 240.532 117.834C243.345 118.409 247.956 97.7792 249.529 90.5551C250.093 88.6037 252.229 89.2905 251.891 91.0129C248.403 106.257 245.031 122.304 236.709 123.22H236.6C225.132 122.304 226.142 91.9287 227.152 80.006C224.907 84.2467 221.08 90.0899 216.469 91.2382C215.796 99.1528 212.533 115.2 210.96 118.983C209.499 122.54 207.137 123.794 205.564 122.191C203.877 119.673 206.461 117.151 208.376 118.18C210.734 114.284 213.772 99.3781 214.67 91.3545C214.332 91.3545 213.994 91.3545 213.66 91.2382C209.724 90.3225 207.479 86.8849 206.577 82.9858C205.451 79.3156 206.352 74.617 207.817 71.1758C209.052 68.3123 211.076 66.5898 213.776 66.5898C214.223 66.5898 214.786 66.7025 215.349 66.8224C216.81 67.3929 217.824 68.6575 218.613 70.4926C219.063 71.9825 219.176 73.8139 219.176 75.878C219.172 80.1223 218.046 84.8209 217.036 88.491Z" fill="url(#paint4_linear_20_4662)"/>
<path d="M293.826 114.4C296.86 108.553 300.908 92.3862 301.359 90.5548C301.806 88.4907 304.168 88.9486 303.717 91.1253C299.782 107.521 296.297 122.416 287.637 123.456H287.412C277.633 122.769 275.268 109.011 275.835 94.6828C271.899 106.373 267.4 119.785 259.417 118.07C249.409 116.344 246.484 106.148 247.385 98.353C247.723 88.0329 255.703 74.3914 266.499 75.4234C270.994 76.3391 274.595 79.6641 276.169 81.7245L276.728 79.4316C277.404 74.733 289.323 80.122 289.211 84.2464C287.754 90.0933 284.719 132.162 293.826 114.4ZM273.473 91.2416L273.698 90.5548C275.497 85.1658 269.537 78.1742 267.175 78.7448C259.976 86.0851 258.854 102.248 260.881 112.445C262.455 120.127 268.527 107.289 273.473 91.2416Z" fill="url(#paint5_linear_20_4662)"/>
<path d="M312.261 68.8862C311.701 78.6322 311.363 88.3746 311.585 103.502C311.697 111.529 312.711 133.885 323.842 135.604C328.115 136.178 333.399 133.652 335.761 130.215C332.835 127.348 335.648 123.216 338.344 123.794C340.594 124.368 340.706 127.464 339.921 129.528C336.437 136.981 324.18 140.073 315.299 135.03C305.742 130.218 302.595 115.774 301.355 105.795C299.557 92.6152 300.007 78.0544 300.007 63.4972C277.408 52.3777 254.584 34.1539 244.464 31.1705C222.541 23.1434 209.161 49.9721 226.138 57.1889C226.927 49.2816 233.221 48.9364 234.907 51.9162C236.931 54.6706 234.231 60.7464 225.579 58.6787C208.936 53.0645 215.459 24.6332 241.655 25.8942C257.172 27.613 279.77 43.0859 300.683 54.2091C301.021 45.7241 301.81 40.6803 302.26 39.0741C302.936 34.3756 315.415 39.7646 315.302 43.889C314.626 47.3266 313.616 51.4547 312.715 60.165C329.245 67.3855 343.185 69.1079 349.486 54.7796C351.281 49.278 350.267 38.8452 343.185 36.3233C342.396 44.2342 336.102 44.5758 334.42 41.596C332.396 38.8452 335.096 32.7694 343.744 34.8334C354.093 38.391 354.882 52.0288 351.844 58.6787C343.635 74.3915 328.678 74.7367 312.261 68.8862Z" fill="url(#paint6_linear_20_4662)"/>
<path d="M362.407 81.4991C360.946 87.3423 357.792 132.162 366.906 114.4C369.937 108.553 373.988 92.3861 374.435 90.5547C374.889 88.4906 377.244 88.9485 376.797 91.1252C372.858 107.521 369.373 122.416 360.714 123.456H360.492C353.181 122.994 349.812 113.597 349.358 96.5142C346.327 107.408 342.843 115.777 336.432 116.464H336.204C326.421 115.774 323.609 109.701 325.407 80.1219C326.08 75.4233 337.999 80.8087 337.89 84.9367C336.429 90.78 333.504 125.171 342.61 107.408C347.668 97.3173 349.351 88.2617 349.921 76.6843C350.604 71.9857 362.52 77.3711 362.407 81.4991Z" fill="url(#paint7_linear_20_4662)"/>
<path d="M391.748 131.134C401.534 130.331 412.777 96.6271 413.453 90.555C413.682 88.9488 416.265 89.4103 415.811 91.1255C411.32 108.208 402.213 133.427 390.516 136.407C378.037 137.671 374.552 116.115 373.767 107.285C372.754 94.2179 373.313 76.7936 375.904 59.7145L377.14 51.3458C357.571 47.1051 359.374 17.7581 373.095 8.12842C385.011 1.13326 383.997 14.5494 373.655 10.6467C362.412 18.6738 361.623 45.7242 377.587 48.8202C382.202 23.3724 391.868 1.47847 410.306 0.562744H410.418C433.472 0.562744 415.139 48.7076 390.403 52.0326C387.26 69.8021 386.697 80.6927 386.13 90.5513C385.567 98.2333 384.444 131.825 391.748 131.134ZM410.415 3.20456C402.322 3.89136 394.339 24.7569 390.959 48.7112C413.678 44.1289 425.597 2.17255 410.415 3.20456Z" fill="url(#paint8_linear_20_4662)"/>
<path d="M457.745 114.4C460.783 108.553 464.828 92.3862 465.282 90.5548C465.729 88.4907 468.091 88.9486 467.637 91.1253C463.705 107.521 460.22 122.416 451.561 123.456H451.332C441.553 122.769 439.187 109.011 439.758 94.6828C435.819 106.373 431.32 119.785 423.333 118.07C413.333 116.344 410.407 106.148 411.309 98.353C411.643 88.0329 419.626 74.3914 430.423 75.4234C434.914 76.3391 438.515 79.6641 440.089 81.7245L440.648 79.4316C441.324 74.733 453.239 80.122 453.134 84.2464C451.677 90.0933 448.639 132.162 457.745 114.4ZM437.4 91.2416L437.625 90.5548C439.42 85.1658 433.46 78.1742 431.102 78.7448C423.903 86.0851 422.777 102.248 424.801 112.445C426.378 120.127 432.45 107.289 437.4 91.2416Z" fill="url(#paint9_linear_20_4662)"/>
<path d="M501.937 84.2501C500.476 90.0933 497.438 132.166 506.541 114.4C509.579 108.553 513.623 92.3863 514.07 90.5548C514.524 88.4908 516.879 88.9487 516.432 91.1253C512.5 107.521 509.016 122.416 500.356 123.456H500.127C493.386 122.994 490.007 116.232 489.113 102.477C485.733 114.287 481.689 123.91 475.955 123.456C465.275 123.343 463.585 90.7837 464.039 65.9064C456.056 66.2516 445.827 63.5008 440.539 58.3408C433.904 51.1203 444.137 49.2889 442.116 56.5093C446.837 61.3205 456.615 62.4688 463.814 62.1272H464.156C464.49 49.8594 465.279 41.0327 465.838 39.0814C466.51 34.3828 478.437 39.7718 478.32 43.8962C477.648 47.2212 477.194 53.1843 476.743 61.0916C484.055 60.4048 501.257 50.7751 508.903 64.7581C511.828 69.6856 505.752 69.4603 508.002 65.9028C501.821 54.7832 483.266 64.4166 476.518 64.9871L476.405 67.0475C475.17 92.6116 475.283 126.657 482.14 114.393C484.502 109.807 487.54 98.8 488.888 93.5273C488.888 89.2866 489.117 84.588 489.447 79.428C490.127 74.7367 502.049 80.122 501.937 84.2501ZM491.929 71.8696C489.68 69.2314 489.567 66.139 492.489 64.878C495.974 63.1556 500.36 64.7618 502.609 67.3963C504.964 70.1508 504.964 73.5884 501.937 74.7367C499.012 76.1103 494.284 74.6204 491.929 71.8696Z" fill="url(#paint10_linear_20_4662)"/>
<path d="M539.365 105.457V105.57C544.652 104.429 547.465 95.9401 548.584 90.5547C549.151 88.6033 551.062 89.0612 550.946 91.0126C549.711 97.7752 545.772 107.408 538.802 108.095C536.778 116.464 532.166 124.03 525.084 123.339C516.766 122.765 512.493 112.103 512.275 102.019C512.049 93.9923 514.07 77.0259 527.221 75.0781C538.471 74.7329 539.59 86.6556 537.795 93.8797C539.936 95.4858 539.819 102.935 539.365 105.457ZM526.89 81.2702C520.596 88.8359 521.156 108.44 524.412 118.637C528.573 124.371 532.395 112.797 531.276 106.144C527.003 103.506 526.661 91.8156 532.512 91.6957C535.55 77.829 530.713 76.6843 526.89 81.2702Z" fill="url(#paint11_linear_20_4662)"/>
<path d="M559.039 121.163C559.38 123.343 551.735 124.597 549.598 119.785C547.12 110.156 548.584 90.2059 547.461 89.1775C556.902 85.9688 558.25 95.137 558.705 105.453L559.493 100.868C561.07 90.4348 564.668 77.4801 571.183 75.4197C580.068 74.5004 582.205 82.9854 582.426 90.5511C582.539 96.8558 581.645 127.689 583.44 128.034C588.833 129.292 594.683 92.3825 595.137 90.5511C595.697 88.1418 598.168 89.0576 597.492 91.1216C593.56 108.546 589.847 134.11 580.744 133.423C573.433 132.962 570.624 109.124 570.849 101.329C570.736 90.0896 572.757 81.3793 568.487 83.327C566.016 85.2784 563.312 92.4988 560.503 109.349L560.616 109.462C560.387 110.265 560.282 111.064 560.169 111.874L559.827 114.167C559.38 116.693 559.155 119.099 559.039 121.163Z" fill="url(#paint12_linear_20_4662)"/>
<path d="M594.683 89.6359C594.007 87.5755 594.57 84.2469 596.26 81.1545C598.615 76.6813 602.67 74.1594 604.69 75.3077C607.161 76.6849 607.161 81.3835 604.69 85.973C603.342 88.3786 601.54 90.3264 599.857 91.2421C606.268 98.8078 628.638 113.826 613.35 131.712C600.868 143.744 583.774 125.749 594.458 113.14C597.266 110.16 601.206 116.468 598.055 118.412C588.494 124.488 602.1 136.298 605.025 132.054C613.008 116.694 596.932 101.101 594.683 89.6359Z" fill="url(#paint13_linear_20_4662)"/>
<path d="M647.97 25.6725C648.424 31.2904 643.591 99.1561 641.901 106.486C641.676 107.634 637.403 109.24 637.515 105.683C637.297 97.4264 633.696 30.8289 633.696 21.4281C633.696 17.6489 647.41 20.7414 647.97 25.6725ZM643.362 118.982C642.803 120.814 640.212 123.219 638.075 122.653C636.051 122.304 634.816 120.36 635.72 117.605C636.509 115.2 638.751 113.593 641 114.284C642.915 114.854 643.809 117.031 643.362 118.982Z" fill="url(#paint14_linear_20_4662)"/>
<defs>
<linearGradient id="paint0_linear_20_4662" x1="0.329102" y1="77.218" x2="70.266" y2="77.218" gradientUnits="userSpaceOnUse">
<stop stop-color="#8E2DE2"/>
<stop offset="1" stop-color="#4A00E0"/>
</linearGradient>
<linearGradient id="paint1_linear_20_4662" x1="71.877" y1="99.227" x2="110.576" y2="99.227" gradientUnits="userSpaceOnUse">
<stop stop-color="#8E2DE2"/>
<stop offset="1" stop-color="#4A00E0"/>
</linearGradient>
<linearGradient id="paint2_linear_20_4662" x1="107.079" y1="104.394" x2="157.23" y2="104.394" gradientUnits="userSpaceOnUse">
<stop stop-color="#8E2DE2"/>
<stop offset="1" stop-color="#4A00E0"/>
</linearGradient>
<linearGradient id="paint3_linear_20_4662" x1="151.975" y1="125.753" x2="259.013" y2="125.753" gradientUnits="userSpaceOnUse">
<stop stop-color="#8E2DE2"/>
<stop offset="1" stop-color="#4A00E0"/>
</linearGradient>
<linearGradient id="paint4_linear_20_4662" x1="205.018" y1="94.9048" x2="251.927" y2="94.9048" gradientUnits="userSpaceOnUse">
<stop stop-color="#8E2DE2"/>
<stop offset="1" stop-color="#4A00E0"/>
</linearGradient>
<linearGradient id="paint5_linear_20_4662" x1="247.231" y1="99.4119" x2="303.774" y2="99.4119" gradientUnits="userSpaceOnUse">
<stop stop-color="#8E2DE2"/>
<stop offset="1" stop-color="#4A00E0"/>
</linearGradient>
<linearGradient id="paint6_linear_20_4662" x1="216.442" y1="81.6774" x2="353.397" y2="81.6774" gradientUnits="userSpaceOnUse">
<stop stop-color="#8E2DE2"/>
<stop offset="1" stop-color="#4A00E0"/>
</linearGradient>
<linearGradient id="paint7_linear_20_4662" x1="324.897" y1="99.1577" x2="376.853" y2="99.1577" gradientUnits="userSpaceOnUse">
<stop stop-color="#8E2DE2"/>
<stop offset="1" stop-color="#4A00E0"/>
</linearGradient>
<linearGradient id="paint8_linear_20_4662" x1="362.62" y1="68.5115" x2="420.983" y2="68.5115" gradientUnits="userSpaceOnUse">
<stop stop-color="#8E2DE2"/>
<stop offset="1" stop-color="#4A00E0"/>
</linearGradient>
<linearGradient id="paint9_linear_20_4662" x1="411.154" y1="99.4119" x2="467.694" y2="99.4119" gradientUnits="userSpaceOnUse">
<stop stop-color="#8E2DE2"/>
<stop offset="1" stop-color="#4A00E0"/>
</linearGradient>
<linearGradient id="paint10_linear_20_4662" x1="438.271" y1="80.3643" x2="516.488" y2="80.3643" gradientUnits="userSpaceOnUse">
<stop stop-color="#8E2DE2"/>
<stop offset="1" stop-color="#4A00E0"/>
</linearGradient>
<linearGradient id="paint11_linear_20_4662" x1="512.259" y1="99.227" x2="550.951" y2="99.227" gradientUnits="userSpaceOnUse">
<stop stop-color="#8E2DE2"/>
<stop offset="1" stop-color="#4A00E0"/>
</linearGradient>
<linearGradient id="paint12_linear_20_4662" x1="547.461" y1="104.394" x2="597.608" y2="104.394" gradientUnits="userSpaceOnUse">
<stop stop-color="#8E2DE2"/>
<stop offset="1" stop-color="#4A00E0"/>
</linearGradient>
<linearGradient id="paint13_linear_20_4662" x1="591.095" y1="105.356" x2="618.594" y2="105.356" gradientUnits="userSpaceOnUse">
<stop stop-color="#8E2DE2"/>
<stop offset="1" stop-color="#4A00E0"/>
</linearGradient>
<linearGradient id="paint14_linear_20_4662" x1="633.696" y1="71.2408" x2="648" y2="71.2408" gradientUnits="userSpaceOnUse">
<stop stop-color="#8E2DE2"/>
<stop offset="1" stop-color="#4A00E0"/>
</linearGradient>
</defs>
</svg>
