<svg width="573" height="384" viewBox="0 0 573 384" fill="none" xmlns="http://www.w3.org/2000/svg">
<g clip-path="url(#clip0_17_1302)">
<path d="M-6.10352e-05 204.09C-6.10352e-05 281.762 49.2374 347.942 118.203 373.124C128.694 376.962 139.524 379.804 150.548 381.612C180.877 386.586 211.973 383.762 240.91 373.407C310.311 348.432 359.909 282.029 359.876 204.052C359.876 104.731 279.313 24.1804 179.938 24.1804C142.381 24.1257 105.757 35.8736 75.2411 57.7635C29.6842 90.3981 -6.10352e-05 143.777 -6.10352e-05 204.09Z" fill="#DEDEDE"/>
<path d="M118.203 373.124C128.694 376.962 139.524 379.804 150.548 381.612C180.877 386.585 211.973 383.762 240.91 373.407L232.6 340.069L232.098 338.068L215.14 338.134L129.948 338.439L128.857 341.661L118.203 373.124Z" fill="#2F2E41"/>
<path d="M416.699 0H573V176.832H416.699V0Z" fill="#E6E6E6"/>
<path d="M419.759 3.74109H570.213V173.092H419.759V3.74109Z" fill="white"/>
<path d="M494.849 167.07C490.191 167.07 486.415 163.295 486.415 158.638C486.415 153.981 490.191 150.206 494.849 150.206C499.507 150.206 503.283 153.981 503.283 158.638C503.283 163.295 499.507 167.07 494.849 167.07Z" fill="#E6E6E6"/>
<path d="M496.274 63.6875H544.714V68.6421H496.274V63.6875Z" fill="#E6E6E6"/>
<path d="M471.605 78.5344H544.714V83.489H471.605V78.5344Z" fill="#A435F0"/>
<path d="M478.781 93.4746H544.714V98.4292H478.781V93.4746Z" fill="#E6E6E6"/>
<path d="M442.9 108.02H544.714V112.975H442.9V108.02Z" fill="#A435F0"/>
<path d="M460.679 121.873H543.655V126.827H460.679V121.873Z" fill="#E6E6E6"/>
<path d="M350.744 287.742C350.15 288.352 349.605 289.008 349.113 289.704L272.717 287.835L263.804 271.552L237.468 281.788L250.445 312.148C251.494 314.6 253.309 316.647 255.62 317.98C257.93 319.313 260.611 319.861 263.259 319.541L349.575 309.116C351.611 311.693 354.383 313.589 357.524 314.552C360.664 315.516 364.023 315.5 367.154 314.508C370.286 313.516 373.04 311.594 375.053 308.998C377.065 306.402 378.239 303.255 378.419 299.976C378.599 296.697 377.776 293.441 376.059 290.64C374.343 287.84 371.815 285.629 368.811 284.3C365.807 282.972 362.47 282.589 359.243 283.203C356.016 283.817 353.053 285.399 350.747 287.738L350.744 287.742Z" fill="#9F616A"/>
<path d="M247.918 194.761L212.165 183.046L201.665 168.647L150.564 171.671L143.062 188.473L115.814 201.346L120.002 279.102L127.165 351.871C164.003 332.799 232.75 347.34 233.352 347.576L247.918 194.761Z" fill="#A435F0"/>
<path d="M240.275 300.008L276.641 285.461L276.486 284.813C276.33 284.159 260.852 219.491 258.797 209.099C256.657 198.272 248.835 195.279 248.503 195.157L248.26 195.068L233.868 199.448L227.547 249.104L240.275 300.008Z" fill="#A435F0"/>
<path d="M161.754 348.673C160.901 348.653 160.049 348.7 159.204 348.813L108.632 291.53L114.514 273.928L89.1003 261.579L75.6567 291.735C74.5707 294.171 74.3042 296.893 74.8975 299.494C75.4907 302.094 76.9117 304.432 78.9469 306.156L145.279 362.35C144.773 365.595 145.268 368.917 146.697 371.874C148.126 374.831 150.421 377.283 153.278 378.904C156.135 380.525 159.417 381.238 162.689 380.948C165.961 380.658 169.067 379.379 171.594 377.281C174.121 375.183 175.95 372.366 176.836 369.203C177.723 366.041 177.625 362.684 176.557 359.578C175.489 356.473 173.5 353.766 170.856 351.818C168.212 349.87 165.037 348.773 161.754 348.673Z" fill="#9F616A"/>
<path d="M112.668 297.106L133.764 247.491L125.536 212.932L116.671 201.733C116.021 201.456 115.321 201.316 114.615 201.322C113.909 201.329 113.212 201.482 112.568 201.771C109.296 203.087 106.516 207.12 104.293 213.757L84.5217 270.063L112.668 297.106Z" fill="#A435F0"/>
<path d="M222.119 150.262V112.857C222.141 106.275 220.866 99.7531 218.367 93.6636C215.868 87.5741 212.193 82.0364 207.554 77.3666C202.914 72.6969 197.4 68.9866 191.326 66.4475C185.252 63.9085 178.738 62.5904 172.155 62.5686C165.572 62.5468 159.048 63.8217 152.958 66.3204C146.868 68.8192 141.329 72.4929 136.659 77.1318C131.988 81.7707 128.277 87.2839 125.738 93.3567C123.198 99.4295 121.88 105.943 121.858 112.525C121.858 112.636 121.858 112.747 121.858 112.857V150.262C121.86 152.047 122.57 153.759 123.833 155.021C125.095 156.283 126.807 156.993 128.592 156.995H215.385C217.17 156.993 218.882 156.283 220.145 155.021C221.407 153.759 222.117 152.047 222.119 150.262Z" fill="#2F2E41"/>
<path d="M182.29 156.124C161.992 156.124 145.537 139.671 145.537 119.376C145.537 99.0804 161.992 82.6278 182.29 82.6278C202.589 82.6278 219.044 99.0804 219.044 119.376C219.044 139.671 202.589 156.124 182.29 156.124Z" fill="#9F616A"/>
<path d="M233.979 115.85C233.967 105.338 229.785 95.2596 222.351 87.8264C214.917 80.3933 204.837 76.2121 194.323 76.2003H186.84C176.327 76.2122 166.247 80.3933 158.813 87.8265C151.379 95.2596 147.197 105.338 147.185 115.85V116.598H162.998L168.391 101.496L169.47 116.598H177.641L180.362 108.979L180.907 116.598H233.979V115.85Z" fill="#2F2E41"/>
<path d="M185.907 161.202C186.649 160.197 187.093 159.002 187.186 157.756C187.279 156.51 187.019 155.263 186.434 154.159C178.505 139.08 167.404 111.218 182.139 94.0348L183.196 92.8016H140.416V157.019L179.278 163.874C179.671 163.944 180.07 163.979 180.469 163.979C181.53 163.979 182.576 163.728 183.521 163.245C184.466 162.763 185.282 162.063 185.904 161.203L185.907 161.202Z" fill="#2F2E41"/>
<path d="M494.985 13.7725C498.532 13.7723 501.999 14.8238 504.949 16.794C507.898 18.7641 510.197 21.5645 511.555 24.841C512.912 28.1175 513.268 31.7229 512.576 35.2013C511.884 38.6797 510.176 41.8749 507.668 44.3828C505.16 46.8907 501.964 48.5987 498.486 49.2908C495.007 49.9828 491.401 49.6279 488.124 48.2709C484.846 46.9139 482.045 44.6157 480.075 41.667C478.104 38.7182 477.052 35.2514 477.052 31.7049V31.704C477.052 29.3492 477.515 27.0174 478.417 24.8419C479.318 22.6663 480.639 20.6896 482.304 19.0245C483.97 17.3594 485.947 16.0386 488.123 15.1374C490.299 14.2363 492.631 13.7725 494.986 13.7725H494.985ZM494.985 19.1514C493.921 19.1514 492.881 19.4669 491.996 20.0579C491.111 20.649 490.422 21.4891 490.015 22.4719C489.607 23.4548 489.501 24.5364 489.708 25.5798C489.916 26.6232 490.428 27.5816 491.181 28.3339C491.933 29.0862 492.892 29.5985 493.935 29.806C494.979 30.0136 496.061 29.9071 497.044 29.4999C498.027 29.0928 498.867 28.4034 499.458 27.5188C500.049 26.6343 500.365 25.5943 500.365 24.5304C500.365 23.1038 499.798 21.7357 498.789 20.7269C497.78 19.7182 496.412 19.1514 494.985 19.1514ZM494.985 45.0482C497.11 45.0385 499.201 44.5105 501.076 43.5099C502.952 42.5094 504.554 41.0665 505.746 39.3065C505.659 35.7202 498.572 33.7461 494.985 33.7461C491.398 33.7461 484.311 35.7202 484.224 39.3065C485.417 41.0652 487.02 42.5071 488.895 43.5075C490.77 44.5079 492.86 45.0367 494.985 45.0482Z" fill="#A435F0"/>
<path d="M494.777 161.87C487.388 148.333 469.689 139.76 455.21 147.487C448.693 150.965 443.513 157.117 441.868 164.388C439.96 172.834 443.981 180.888 448.132 187.984C450.385 191.836 452.854 195.609 454.719 199.672C456.65 203.879 458.03 208.742 456.576 213.318C455.268 217.442 451.986 220.441 448.393 222.645C444.427 224.985 440.209 226.869 435.819 228.26C426.782 231.265 417.25 232.498 407.746 231.892C403.022 231.571 398.338 230.814 393.754 229.63C388.878 228.387 384.092 226.812 379.208 225.596C371.053 223.571 361.754 222.564 354.021 226.632C346.509 230.585 343.147 238.854 342.107 246.898C340.186 261.752 346.077 277.167 356.712 287.569C361.815 292.56 368.236 296.683 375.23 298.369C381.332 299.841 389.167 299.747 394.023 295.186C399.442 290.096 398.167 281.933 393.864 276.563C388.37 269.71 379.063 268.064 370.758 267.898C361.311 267.708 351.873 269.115 342.431 268.24C337.822 267.881 333.3 266.791 329.035 265.009C325.285 263.36 321.864 261.046 318.939 258.179C313.11 252.516 309.179 244.973 307.224 237.13C304.87 227.699 305.383 217.786 307.21 208.313C308.184 203.428 309.438 198.603 310.966 193.862C311.597 191.861 314.757 192.717 314.121 194.731C308.494 212.572 305.356 233.201 316.229 249.765C320.728 256.789 327.737 261.834 335.827 263.87C345.237 266.209 355.11 265.053 364.677 264.705C373.773 264.374 383.761 264.731 391.558 270.028C397.955 274.373 402.429 282.637 400.495 290.438C398.631 297.962 391.4 301.778 384.167 302.366C376.579 302.984 369.111 300.437 362.738 296.455C349.481 288.172 340.666 273.605 338.822 258.161C337.86 250.113 338.839 241.445 342.489 234.141C344.412 230.187 347.405 226.851 351.129 224.512C354.843 222.236 359.132 221.116 363.439 220.719C373.226 219.818 382.628 223.178 391.912 225.748C396.655 227.123 401.516 228.051 406.431 228.519C411.203 228.914 416.001 228.836 420.757 228.285C425.476 227.729 430.126 226.697 434.638 225.205C439.058 223.839 443.291 221.925 447.238 219.51C450.719 217.284 453.73 214.095 453.901 209.751C454.087 205.04 451.711 200.633 449.452 196.662C444.988 188.816 439.474 181.142 438.309 171.957C437.29 163.923 440.523 156.004 446.107 150.274C448.905 147.365 452.274 145.066 456.002 143.519C459.731 141.973 463.738 141.213 467.774 141.286C476.058 141.524 483.99 145.126 490.084 150.658C493.106 153.403 495.649 156.633 497.608 160.215C498.618 162.063 495.794 163.716 494.783 161.865L494.777 161.87Z" fill="#3F3D56"/>
</g>
<defs>
<clipPath id="clip0_17_1302">
<rect width="573" height="384" fill="white" transform="matrix(-1 0 0 1 573 0)"/>
</clipPath>
</defs>
</svg>
