<svg width="193" height="103" viewBox="0 0 193 103" fill="none" xmlns="http://www.w3.org/2000/svg">
<g clip-path="url(#clip0_1_29)">
<path d="M7.12357 89.1032H44.6759L38.94 83.7598V18.9802L44.3576 13.6369H6.80518L12.5412 18.9802V83.7598L7.12357 89.1032ZM20.9574 22.1574H30.5285V80.5826H20.9574V22.1574Z" fill="#A435F0"/>
<path d="M51.4765 0.369995H0V6.36319H51.4765V0.369995Z" fill="#A435F0"/>
<path d="M51.4765 96.3766H0V102.37H51.4765V96.3766Z" fill="#A435F0"/>
<path d="M66.798 84.0678H64.0986V79.2349L59.9167 71.8263H62.8393L65.453 76.3802L68.062 71.8263H70.9847L66.8027 79.2349V84.0678H66.798Z" fill="#2A3040"/>
<path d="M80.9933 71.8263V74.2622H74.9769V76.7845H80.3896V79.1145H74.9769V81.6562H81.1833V84.0727H72.2776V71.8312H80.9933V71.8263Z" fill="#2A3040"/>
<path d="M92.1987 84.0678L91.0724 81.4251H86.0066L84.8803 84.0678H82.01L87.2328 71.8263H89.8416L95.0644 84.0678H92.1987ZM88.549 75.4656L87.0283 79.023H90.0556L88.549 75.4656Z" fill="#2A3040"/>
<path d="M106.275 75.8893C106.275 77.8533 105.505 79.1193 103.975 79.6922L107.036 84.0727H103.714L101.033 80.1687H99.1659V84.0727H96.4666V71.8312H101.048C102.925 71.8312 104.27 72.1537 105.068 72.7939C105.876 73.4294 106.275 74.4643 106.275 75.8893ZM103.025 77.3431C103.357 77.0398 103.524 76.5584 103.524 75.899C103.524 75.2394 103.353 74.7868 103.006 74.5413C102.659 74.2959 102.055 74.1707 101.19 74.1707H99.1659V77.7955H101.138C102.06 77.7955 102.687 77.6462 103.025 77.3431Z" fill="#2A3040"/>
<path d="M108.965 83.7597C108.67 83.4614 108.523 83.0954 108.523 82.667C108.523 82.2338 108.67 81.868 108.965 81.5742C109.259 81.2759 109.616 81.1266 110.043 81.1266C110.471 81.1266 110.832 81.2759 111.127 81.5742C111.422 81.8728 111.569 82.2386 111.569 82.667C111.569 83.1003 111.422 83.4662 111.127 83.7597C110.832 84.0583 110.471 84.2075 110.043 84.2075C109.616 84.2075 109.259 84.0583 108.965 83.7597Z" fill="#2A3040"/>
<path d="M121.387 84.0678H119.624V82.826C118.864 83.7501 117.842 84.2076 116.564 84.2076C115.609 84.2076 114.815 83.9332 114.188 83.3842C113.56 82.8355 113.247 82.1038 113.247 81.1844C113.247 80.2698 113.579 79.5813 114.249 79.1288C114.919 78.6715 115.822 78.4454 116.963 78.4454H119.472V78.0938C119.472 76.8567 118.793 76.2357 117.429 76.2357C116.573 76.2357 115.689 76.5487 114.767 77.1792L113.902 75.9518C115.019 75.0515 116.288 74.6039 117.704 74.6039C118.788 74.6039 119.672 74.8831 120.361 75.4367C121.045 75.9903 121.387 76.8664 121.387 78.0554V84.0678ZM119.453 80.5971V79.8076H117.272C115.879 79.8076 115.181 80.2505 115.181 81.1411C115.181 81.5984 115.352 81.945 115.699 82.1808C116.046 82.4215 116.526 82.5419 117.144 82.5419C117.761 82.5419 118.298 82.3687 118.759 82.0171C119.22 81.6657 119.453 81.194 119.453 80.5971Z" fill="#A435F0"/>
<path d="M128.169 84.2074C126.89 84.2074 125.788 83.7645 124.866 82.8836C123.944 82.0026 123.483 80.8473 123.483 79.4225C123.483 77.9976 123.963 76.8375 124.928 75.9469C125.892 75.0515 127.061 74.6086 128.444 74.6086C129.827 74.6086 130.996 75.0948 131.956 76.0625L130.816 77.4825C130.017 76.7797 129.219 76.4331 128.411 76.4331C127.603 76.4331 126.905 76.7027 126.31 77.2467C125.717 77.7905 125.417 78.4886 125.417 79.3503C125.417 80.2071 125.712 80.934 126.301 81.5309C126.89 82.1279 127.613 82.4263 128.473 82.4263C129.333 82.4263 130.141 82.0315 130.901 81.2373L132.042 82.4985C130.92 83.6346 129.632 84.2074 128.169 84.2074Z" fill="#A435F0"/>
<path d="M141.427 84.0678H139.664V82.826C138.904 83.7501 137.882 84.2076 136.604 84.2076C135.649 84.2076 134.855 83.9332 134.228 83.3842C133.601 82.8355 133.287 82.1038 133.287 81.1844C133.287 80.2698 133.619 79.5813 134.29 79.1288C134.96 78.6715 135.862 78.4454 137.003 78.4454H139.512V78.0938C139.512 76.8567 138.833 76.2357 137.469 76.2357C136.613 76.2357 135.73 76.5487 134.808 77.1792L133.943 75.9518C135.059 75.0515 136.328 74.6039 137.744 74.6039C138.828 74.6039 139.712 74.8831 140.401 75.4367C141.085 75.9903 141.427 76.8664 141.427 78.0554V84.0678ZM139.493 80.5971V79.8076H137.312C135.92 79.8076 135.221 80.2505 135.221 81.1411C135.221 81.5984 135.392 81.945 135.739 82.1808C136.086 82.4215 136.566 82.5419 137.184 82.5419C137.802 82.5419 138.338 82.3687 138.799 82.0171C139.26 81.6657 139.493 81.194 139.493 80.5971Z" fill="#A435F0"/>
<path d="M144.835 82.8788C143.97 81.9931 143.538 80.8234 143.538 79.3744C143.538 77.9255 143.979 76.7702 144.868 75.9085C145.757 75.0467 146.812 74.6136 148.043 74.6136C149.269 74.6136 150.257 75.1382 151.008 76.1926V71.0801H152.942V84.0775H151.008V82.6767C150.295 83.7021 149.25 84.2171 147.876 84.2171C146.717 84.2075 145.7 83.7647 144.835 82.8788ZM145.476 79.4515C145.476 80.3468 145.757 81.0738 146.322 81.632C146.888 82.1905 147.548 82.4746 148.309 82.4746C149.069 82.4746 149.715 82.1905 150.243 81.6225C150.775 81.0544 151.041 80.3276 151.041 79.4418C151.041 78.5561 150.775 77.8147 150.243 77.2178C149.715 76.621 149.06 76.3224 148.29 76.3224C147.515 76.3224 146.855 76.621 146.303 77.2178C145.752 77.8147 145.476 78.5608 145.476 79.4515Z" fill="#A435F0"/>
<path d="M164.305 80.2649H157.096C157.143 80.9437 157.448 81.4875 158.013 81.9016C158.579 82.3156 159.225 82.5225 159.947 82.5225C161.102 82.5225 161.976 82.1566 162.575 81.4202L163.683 82.6478C162.689 83.6875 161.401 84.2074 159.809 84.2074C158.517 84.2074 157.419 83.7742 156.516 82.9028C155.613 82.0315 155.162 80.8667 155.162 79.3984C155.162 77.9301 155.623 76.77 156.545 75.9035C157.467 75.0418 158.555 74.6086 159.805 74.6086C161.055 74.6086 162.119 74.9937 162.998 75.7543C163.873 76.5198 164.31 77.574 164.31 78.917V80.2649H164.305ZM157.096 78.7245H162.371C162.371 77.9446 162.129 77.3429 161.644 76.9193C161.159 76.5004 160.565 76.2886 159.857 76.2886C159.149 76.2886 158.512 76.5053 157.947 76.9434C157.376 77.3863 157.096 77.9784 157.096 78.7245Z" fill="#A435F0"/>
<path d="M168.368 79.0229V84.0678H166.434V74.7482H168.368V76.4475C168.643 75.8746 169.061 75.427 169.622 75.0996C170.184 74.7724 170.782 74.6086 171.428 74.6086C172.883 74.6086 173.866 75.2152 174.385 76.4331C175.296 75.22 176.427 74.6086 177.792 74.6086C178.827 74.6086 179.67 74.9311 180.311 75.5714C180.947 76.2116 181.271 77.1408 181.271 78.3537V84.063H179.336V78.9459C179.336 77.2323 178.632 76.3705 177.226 76.3705C176.57 76.3705 175.996 76.5823 175.506 77.0107C175.016 77.4391 174.759 78.0602 174.736 78.8736V84.0581H172.797V78.9411C172.797 78.0554 172.641 77.4007 172.331 76.9866C172.022 76.5727 171.528 76.3658 170.859 76.3658C170.192 76.3658 169.608 76.5919 169.113 77.0396C168.62 77.5017 168.368 78.1613 168.368 79.0229Z" fill="#A435F0"/>
<path d="M185.124 87.7794C184.283 87.7794 183.523 87.4714 182.843 86.8503L183.728 85.2569C184.13 85.6422 184.55 85.8346 184.981 85.8346C185.414 85.8346 185.767 85.6758 186.037 85.3628C186.307 85.05 186.445 84.7034 186.445 84.3279C186.445 84.1642 185.204 80.9726 182.729 74.7484H184.807L187.552 81.613L190.3 74.7484H192.376L187.913 85.8201C187.648 86.4267 187.267 86.9081 186.774 87.2548C186.275 87.6062 185.723 87.7794 185.124 87.7794Z" fill="#A435F0"/>
<path d="M94.6933 59.7243C90.3117 64.0568 84.9226 66.2231 78.5165 66.2231C72.1104 66.2231 66.7167 64.0568 62.3398 59.7243C57.9582 55.3918 55.7722 50.0052 55.7722 43.5595C55.7722 37.1138 57.963 31.7272 62.3398 27.39C66.7214 23.0575 72.1104 20.8914 78.5165 20.8914C84.9226 20.8914 90.3117 23.0575 94.6933 27.39C99.0747 31.7224 101.266 37.1138 101.266 43.5595C101.261 50.0052 99.07 55.3918 94.6933 59.7243ZM91.4046 43.5884C91.4046 39.6748 90.1643 36.3388 87.6884 33.5758C85.2077 30.8126 82.1615 29.431 78.545 29.431C74.9286 29.431 71.8823 30.8126 69.4017 33.5758C66.9209 36.3388 65.6807 39.6748 65.6807 43.5884C65.6807 47.5022 66.9209 50.8284 69.4017 53.5723C71.8823 56.3114 74.9286 57.6833 78.545 57.6833C82.1615 57.6833 85.2077 56.3114 87.6884 53.5723C90.169 50.8333 91.4046 47.5022 91.4046 43.5884Z" fill="#2A3040"/>
<path d="M139.75 21.8974H149.42V65.785H139.75L119.11 38.2837V65.785H109.444V21.8974H118.493L139.75 50.1497V21.8974Z" fill="#2A3040"/>
<path d="M191.317 21.8974V30.6249H169.746V39.6653H189.145V48.0173H169.746V57.1201H191.996V65.785H160.075V21.8974H191.317Z" fill="#2A3040"/>
</g>
<defs>
<clipPath id="clip0_1_29">
<rect width="193" height="102" fill="white" transform="translate(0 0.369995)"/>
</clipPath>
</defs>
</svg>
