<svg width="649" height="640" viewBox="0 0 649 640" fill="none" xmlns="http://www.w3.org/2000/svg">
<path d="M173.278 161.084L104.001 140.156C101.313 139.344 98.4747 140.865 97.6625 143.554L85.3406 184.344C84.5284 187.032 86.0496 189.87 88.7382 190.682L158.015 211.61C160.704 212.422 163.542 210.901 164.354 208.212L176.676 167.423C177.488 164.734 175.967 161.896 173.278 161.084Z" stroke="#263238" stroke-width="1.00285" stroke-miterlimit="10"/>
<path d="M95.2185 149.853L173.97 173.72" stroke="#263238" stroke-miterlimit="10"/>
<path d="M92.8198 157.756L171.586 181.622" stroke="#263238" stroke-miterlimit="10"/>
<path d="M147.618 196.402C147.418 197.067 147.354 197.766 147.431 198.456C147.508 199.146 147.724 199.814 148.066 200.418C146.885 201.001 145.528 201.115 144.266 200.736C143.463 200.494 142.732 200.058 142.137 199.467C141.541 198.876 141.1 198.148 140.851 197.346C140.603 196.545 140.554 195.695 140.711 194.871C140.867 194.047 141.223 193.273 141.748 192.619C142.272 191.964 142.95 191.448 143.72 191.116C144.491 190.784 145.331 190.647 146.167 190.715C147.003 190.783 147.81 191.055 148.516 191.508C149.222 191.96 149.807 192.579 150.219 193.31C149.601 193.626 149.053 194.062 148.606 194.593C148.159 195.124 147.824 195.739 147.618 196.402Z" stroke="#263238" stroke-miterlimit="10"/>
<path d="M157.428 199.378C157.132 200.348 156.556 201.209 155.771 201.852C154.986 202.495 154.028 202.89 153.018 202.988C152.008 203.086 150.992 202.883 150.098 202.403C149.204 201.924 148.472 201.19 147.995 200.295C147.518 199.399 147.318 198.383 147.418 197.373C147.519 196.364 147.917 195.407 148.562 194.624C149.207 193.841 150.069 193.266 151.041 192.973C152.012 192.68 153.048 192.682 154.018 192.978C155.319 193.375 156.409 194.272 157.048 195.472C157.688 196.672 157.824 198.077 157.428 199.378Z" stroke="#263238" stroke-miterlimit="10"/>
<path d="M644.147 259.545L586.865 242.185C584.185 241.373 581.354 242.887 580.541 245.568L570.502 278.695C569.69 281.375 571.204 284.207 573.884 285.019L631.166 302.379C633.846 303.191 636.677 301.677 637.49 298.997L647.529 265.869C648.342 263.189 646.827 260.358 644.147 259.545Z" stroke="#263238" stroke-miterlimit="10"/>
<path d="M578.997 250.666L645.989 270.964" stroke="#263238" stroke-miterlimit="10"/>
<path d="M576.96 257.398L643.937 277.697" stroke="#263238" stroke-miterlimit="10"/>
<path d="M623.567 290.222C623.394 290.786 623.338 291.379 623.403 291.966C623.468 292.552 623.651 293.119 623.942 293.632C623.31 293.939 622.612 294.088 621.909 294.066C621.206 294.044 620.519 293.851 619.908 293.504C619.296 293.157 618.778 292.666 618.398 292.074C618.019 291.482 617.789 290.806 617.728 290.106C617.668 289.405 617.779 288.7 618.052 288.052C618.325 287.404 618.752 286.832 619.295 286.385C619.839 285.939 620.483 285.631 621.171 285.489C621.86 285.347 622.573 285.375 623.249 285.57C624.321 285.892 625.227 286.617 625.777 287.593C625.249 287.857 624.781 288.227 624.4 288.679C624.02 289.131 623.737 289.656 623.567 290.222Z" stroke="#263238" stroke-miterlimit="10"/>
<path d="M631.903 292.794C631.647 293.61 631.156 294.332 630.491 294.869C629.826 295.407 629.017 295.735 628.165 295.814C627.314 295.893 626.458 295.718 625.706 295.311C624.954 294.905 624.339 294.285 623.938 293.529C623.537 292.774 623.369 291.917 623.454 291.066C623.539 290.216 623.874 289.409 624.417 288.748C624.959 288.087 625.685 287.602 626.503 287.352C627.321 287.103 628.194 287.101 629.013 287.347C629.563 287.512 630.074 287.784 630.517 288.148C630.96 288.512 631.327 288.96 631.596 289.467C631.864 289.974 632.03 290.529 632.083 291.1C632.135 291.671 632.074 292.247 631.903 292.794Z" stroke="#263238" stroke-miterlimit="10"/>
<path d="M552.471 101.273L468.848 139.559L488.766 183.065L572.39 144.779L552.471 101.273Z" stroke="#263238" stroke-miterlimit="10"/>
<path d="M565.2 138.526L552.544 110.889C551.362 111.429 550.014 111.478 548.795 111.026C547.577 110.574 546.587 109.657 546.043 108.476L478.445 139.422C478.984 140.605 479.034 141.953 478.581 143.171C478.129 144.39 477.212 145.379 476.032 145.923L488.688 173.561C489.274 173.292 489.907 173.142 490.551 173.118C491.196 173.095 491.838 173.199 492.442 173.424C493.046 173.65 493.6 173.992 494.071 174.432C494.543 174.872 494.922 175.401 495.189 175.988L562.773 145.028C562.504 144.442 562.354 143.808 562.33 143.164C562.307 142.52 562.411 141.877 562.636 141.273C562.862 140.669 563.205 140.115 563.644 139.644C564.084 139.173 564.613 138.793 565.2 138.526Z" stroke="#263238" stroke-miterlimit="10"/>
<path d="M528.276 152.149C533.781 147.92 534.815 140.03 530.587 134.525C526.358 129.02 518.467 127.985 512.962 132.214C507.457 136.442 506.422 144.333 510.651 149.838C514.88 155.343 522.771 156.378 528.276 152.149Z" stroke="#263238" stroke-miterlimit="10"/>
<path d="M524.04 148.264L524.979 150.315L524.083 150.72L523.159 148.697C521.576 149.386 519.802 149.498 518.145 149.015V147.758C519.609 148.201 521.181 148.125 522.595 147.541L520.471 142.86C518.275 143.279 516.007 143.597 514.924 141.228C514.143 139.523 514.692 137.472 517.322 136.012L516.383 133.947L517.279 133.542L518.261 135.637C519.56 135.073 520.991 134.883 522.393 135.088V136.345C521.159 136.167 519.899 136.311 518.738 136.764L520.905 141.502C523.144 141.055 525.528 140.65 526.684 143.048C527.406 144.71 526.785 146.805 524.04 148.264ZM519.908 141.604L517.856 137.082C516.079 138.078 515.689 139.408 516.209 140.534C516.816 141.95 518.261 141.892 519.893 141.604H519.908ZM525.355 143.641C524.719 142.196 523.187 142.34 521.483 142.673L523.52 147.137C525.485 146.097 525.86 144.782 525.34 143.641H525.355Z" fill="#263238"/>
<path d="M90.9764 299.457L26.6719 305.244L29.6819 338.689L93.9864 332.902L90.9764 299.457Z" stroke="#263238" stroke-width="1.00404" stroke-miterlimit="10"/>
<path d="M88.8179 326.138L86.9975 304.972C86.0919 305.049 85.1929 304.763 84.4971 304.178C83.8014 303.594 83.3654 302.757 83.2846 301.852L31.5059 306.33C31.5782 307.235 31.2912 308.132 30.7072 308.827C30.1232 309.522 29.289 309.959 28.3853 310.043L30.2056 331.209C30.6544 331.169 31.1067 331.218 31.5364 331.354C31.9662 331.489 32.3649 331.708 32.7099 331.998C33.0548 332.288 33.3391 332.643 33.5465 333.043C33.7539 333.443 33.8804 333.88 33.9185 334.329L85.6973 329.85C85.625 328.946 85.9119 328.049 86.4959 327.354C87.08 326.659 87.9141 326.222 88.8179 326.138Z" stroke="#263238" stroke-miterlimit="10"/>
<path d="M67.3639 317.34C67.5147 319.074 67.1478 320.813 66.3097 322.339C65.4716 323.864 64.1999 325.106 62.6556 325.909C61.1112 326.712 59.3635 327.038 57.6336 326.847C55.9037 326.656 54.2692 325.956 52.937 324.837C51.6048 323.717 50.6346 322.227 50.1493 320.555C49.664 318.884 49.6853 317.106 50.2105 315.447C50.7357 313.787 51.7412 312.321 53.0998 311.233C54.4585 310.146 56.1092 309.485 57.8432 309.336C58.9942 309.235 60.1538 309.362 61.2556 309.71C62.3574 310.057 63.3798 310.619 64.2642 311.362C65.1486 312.106 65.8776 313.017 66.4095 314.042C66.9414 315.068 67.2657 316.188 67.3639 317.34Z" stroke="#263238" stroke-miterlimit="10"/>
<path d="M59.4178 322.916L59.5479 324.491H58.8689L58.7244 322.931C57.5238 323.01 56.333 322.668 55.3582 321.963L55.676 321.154C56.5381 321.78 57.5873 322.096 58.6521 322.049L58.3488 318.452C56.8029 318.221 55.2282 317.888 55.0837 316.083C54.9681 314.768 55.806 313.54 57.8864 313.193L57.7564 311.618H58.4354L58.5655 313.164C59.5675 313.1 60.5677 313.315 61.4549 313.785L61.1804 314.609C60.4095 314.208 59.5496 314.01 58.681 314.031L58.9844 317.657C60.5592 317.889 62.235 318.192 62.394 320.027C62.4806 321.37 61.5705 322.598 59.4178 322.916ZM58.2621 317.556L57.9587 314.132C56.514 314.378 55.9939 315.158 56.0661 316.025C56.1383 316.892 57.1063 317.368 58.2621 317.556ZM61.3682 320.186C61.2671 319.102 60.2413 318.741 59.0422 318.625L59.3312 322.049C60.8337 321.804 61.4405 321.052 61.3682 320.186Z" fill="#263238"/>
<path d="M611.2 120.771C618.142 120.771 623.769 115.144 623.769 108.202C623.769 101.26 618.142 95.6328 611.2 95.6328C604.258 95.6328 598.631 101.26 598.631 108.202C598.631 115.144 604.258 120.771 611.2 120.771Z" stroke="#263238" stroke-miterlimit="10"/>
<path d="M611.763 115.18V117.433H610.723V115.194C609 115.16 607.342 114.532 606.028 113.417L606.591 112.29C607.74 113.299 609.196 113.89 610.723 113.966V108.809C608.556 108.274 606.389 107.609 606.389 105.009C606.389 103.131 607.747 101.498 610.723 101.267V98.97H611.706V101.209C613.123 101.239 614.504 101.665 615.693 102.437L615.202 103.593C614.154 102.917 612.95 102.524 611.706 102.452V107.653C613.916 108.187 616.256 108.809 616.256 111.452C616.314 113.345 614.884 115.006 611.763 115.18ZM610.781 107.393V102.495C608.758 102.668 607.892 103.709 607.892 104.951C607.834 106.439 609.163 106.988 610.723 107.393H610.781ZM614.884 111.525C614.884 109.979 613.439 109.444 611.763 109.025V113.966C613.916 113.778 614.884 112.781 614.884 111.525Z" fill="#263238"/>
<path d="M528.415 276.355C535.172 274.763 539.358 267.995 537.766 261.238C536.174 254.481 529.406 250.295 522.649 251.887C515.892 253.479 511.706 260.247 513.298 267.004C514.89 273.761 521.658 277.947 528.415 276.355Z" stroke="#263238" stroke-miterlimit="10"/>
<path d="M522.364 270.343L521.194 272.264L520.356 271.744L521.526 269.837C520.071 268.913 518.987 267.507 518.463 265.864L519.532 265.2C519.985 266.654 520.917 267.912 522.176 268.768L524.892 264.362C523.318 262.787 521.801 261.068 523.159 258.857C524.141 257.254 526.149 256.575 528.836 257.947L530.021 256.011L530.859 256.531L529.689 258.438C530.874 259.21 531.827 260.289 532.448 261.559L531.422 262.296C530.878 261.175 530.058 260.211 529.039 259.493L526.308 263.928C527.926 265.546 529.588 267.294 528.201 269.548C527.204 271.166 525.124 271.816 522.364 270.343ZM525.615 263.119L528.172 258.944C526.366 258.034 525.051 258.438 524.401 259.493C523.621 260.837 524.444 262.007 525.615 263.191V263.119ZM526.944 268.783C527.753 267.468 526.814 266.269 525.586 265.026L523.014 269.216C524.936 270.285 526.279 269.996 526.929 268.855L526.944 268.783Z" fill="#263238"/>
<path d="M345.155 21.5038C346.187 23.7651 346.526 26.2816 346.128 28.7353C345.73 31.189 344.614 33.4697 342.92 35.2889C341.226 37.1081 339.031 38.3842 336.611 38.9559C334.192 39.5275 331.658 39.369 329.329 38.5004C327 37.6318 324.981 36.0921 323.527 34.076C322.073 32.0599 321.249 29.6579 321.16 27.1738C321.071 24.6896 321.72 22.2349 323.026 20.1199C324.333 18.0049 326.236 16.3246 328.497 15.2915C329.999 14.6034 331.621 14.2183 333.271 14.1582C334.922 14.0981 336.568 14.3642 338.115 14.9413C339.662 15.5184 341.081 16.3951 342.289 17.5212C343.497 18.6473 344.471 20.0007 345.155 21.5038Z" stroke="#263238" stroke-miterlimit="10"/>
<path d="M337.137 32.8165L338.076 34.868L337.18 35.2869L336.226 33.2499C334.644 33.9386 332.87 34.051 331.213 33.5677V32.3108C332.671 32.7515 334.237 32.6801 335.649 32.1086L333.51 27.3988C331.314 27.8177 329.046 28.1211 327.963 25.7662C327.183 24.047 327.732 22.01 330.375 20.5508L329.436 18.4848L330.318 18.0803L331.257 20.1174C332.556 19.5536 333.987 19.3635 335.389 19.5684V20.8253C334.154 20.6504 332.896 20.7947 331.733 21.2443L333.9 25.9829C336.14 25.5351 338.524 25.145 339.679 27.5288C340.561 29.2625 339.896 31.3573 337.137 32.8165ZM333.005 26.1563L330.968 21.6921C329.191 22.689 328.801 24.0181 329.321 25.1306C329.942 26.4886 331.372 26.4453 333.005 26.1563ZM338.451 28.1934C337.801 26.7486 336.284 26.9076 334.579 27.2254L336.617 31.6896C338.509 30.6494 338.971 29.3491 338.451 28.1934Z" fill="#263238"/>
<path d="M302.824 530.522C304.376 533.919 304.884 537.7 304.287 541.386C303.689 545.073 302.012 548.499 299.467 551.232C296.922 553.965 293.624 555.882 289.99 556.741C286.355 557.6 282.548 557.362 279.049 556.057C275.55 554.752 272.516 552.438 270.332 549.409C268.148 546.38 266.911 542.772 266.777 539.04C266.644 535.307 267.62 531.62 269.582 528.442C271.545 525.265 274.405 522.741 277.802 521.189C280.058 520.159 282.494 519.583 284.973 519.494C287.451 519.406 289.923 519.806 292.246 520.673C294.57 521.539 296.7 522.855 298.515 524.545C300.33 526.235 301.794 528.266 302.824 530.522Z" stroke="#263238" stroke-miterlimit="10"/>
<path d="M290.761 547.541L292.206 550.633L290.862 551.239L289.417 548.176C287.043 549.217 284.379 549.39 281.89 548.668L281.977 546.79C284.17 547.443 286.52 547.326 288.637 546.457L285.415 539.407C282.136 540.028 278.712 540.491 277.094 536.951C275.909 534.379 276.747 531.302 280.706 529.106L279.261 526.029L280.59 525.408L282.035 528.471C283.99 527.629 286.14 527.344 288.247 527.647V529.525C286.398 529.264 284.512 529.483 282.772 530.161L286.008 537.269C289.374 536.604 292.957 536.012 294.604 539.595C295.846 542.21 294.922 545.359 290.761 547.541ZM284.577 537.529L281.5 530.825C278.856 532.27 278.264 534.307 279.044 536.012C279.969 538.049 282.107 537.977 284.577 537.529ZM292.755 540.606C291.787 538.482 289.49 538.656 286.976 539.161L290.039 545.865C292.885 544.29 293.535 542.325 292.755 540.606Z" fill="#263238"/>
<path d="M32.3439 237.099C29.5383 239.564 26.065 241.141 22.3632 241.632C18.6613 242.122 14.8971 241.504 11.5465 239.856C8.1959 238.207 5.4093 235.602 3.53903 232.37C1.66876 229.138 0.798811 225.424 1.03916 221.697C1.27951 217.971 2.61938 214.399 4.88935 211.434C7.15933 208.469 10.2575 206.244 13.7921 205.039C17.3267 203.835 21.1391 203.706 24.7473 204.668C28.3554 205.63 31.5973 207.64 34.0631 210.444C35.701 212.307 36.9558 214.474 37.7558 216.822C38.5559 219.17 38.8855 221.653 38.7258 224.128C38.5662 226.603 37.9204 229.023 36.8253 231.249C35.7303 233.474 34.2075 235.463 32.3439 237.099Z" stroke="#263238" stroke-miterlimit="10"/>
<path d="M12.609 230.454L10.0662 232.693L9.08384 231.581L11.6121 229.37C9.93709 227.388 9.00255 224.886 8.96826 222.291L10.8031 221.829C10.804 224.105 11.5726 226.314 12.9846 228.099L18.7635 222.985C17.2176 220.023 15.7873 216.874 18.7635 214.316C20.9016 212.453 24.08 212.366 27.3162 215.516L29.9456 213.291L30.9136 214.389L28.3853 216.614C29.7303 218.25 30.5998 220.224 30.8991 222.32L29.1077 222.913C28.8199 221.065 28.0694 219.321 26.9261 217.842L21.0461 222.999C22.6498 226.019 24.2534 229.284 21.2917 231.899C19.1391 233.777 15.8596 233.878 12.609 230.454ZM20.4104 221.641L25.9437 216.773C23.7477 214.663 21.6096 214.678 20.2804 215.906C18.5468 217.379 19.2402 219.431 20.3671 221.641H20.4104ZM19.8181 230.31C21.5807 228.778 20.7572 226.625 19.5436 224.314L14.0103 229.183C16.2785 231.509 18.3878 231.595 19.8326 230.353L19.8181 230.31Z" fill="#263238"/>
<path d="M118.785 398.156C118.986 393.121 115.068 388.876 110.034 388.675C104.999 388.474 100.754 392.392 100.553 397.427C100.351 402.461 104.269 406.706 109.304 406.907C114.339 407.109 118.584 403.191 118.785 398.156Z" stroke="#263238" stroke-width="1.0008" stroke-miterlimit="10"/>
<path d="M112.295 399.559L113.335 400.815L112.8 401.263L111.76 400.021C110.783 400.807 109.561 401.226 108.307 401.206L108.105 400.31C109.208 400.339 110.288 399.992 111.168 399.327L108.77 396.438C107.325 397.146 105.793 397.796 104.58 396.351C103.713 395.311 103.713 393.765 105.273 392.234L104.219 390.977L104.768 390.529L105.808 391.772C106.612 391.133 107.577 390.728 108.596 390.601L108.856 391.468C107.963 391.592 107.115 391.934 106.386 392.465L108.798 395.354C110.243 394.618 111.876 393.91 113.133 395.354C114.014 396.424 113.985 398.013 112.295 399.559ZM108.163 395.687L105.88 392.956C104.84 393.996 104.825 394.993 105.389 395.687C105.952 396.38 107.079 396.192 108.163 395.687ZM112.367 396.077C111.645 395.224 110.604 395.586 109.477 396.149L111.76 398.88C112.873 397.782 112.945 396.77 112.367 396.062V396.077Z" fill="#263238"/>
<path d="M399.202 577.967C400.355 579.352 401.071 581.049 401.261 582.841C401.45 584.634 401.104 586.443 400.265 588.039C399.427 589.635 398.134 590.946 396.55 591.807C394.967 592.669 393.163 593.041 391.368 592.877C389.573 592.714 387.866 592.022 386.464 590.888C385.062 589.755 384.028 588.231 383.491 586.51C382.955 584.789 382.941 582.948 383.452 581.219C383.962 579.49 384.973 577.951 386.358 576.796C388.218 575.251 390.614 574.507 393.022 574.726C395.429 574.946 397.652 576.111 399.202 577.967Z" stroke="#263238" stroke-miterlimit="10"/>
<path d="M395.734 587.43L396.789 588.687L396.24 589.135L395.2 587.892C394.228 588.678 393.011 589.097 391.761 589.077L391.559 588.181C392.663 588.217 393.745 587.87 394.622 587.199L392.224 584.309C390.779 585.017 389.233 585.667 388.034 584.223C387.153 583.182 387.153 581.637 388.713 580.105L387.673 578.848L388.222 578.4L389.262 579.643C390.063 578.999 391.029 578.593 392.05 578.473L392.31 579.339C391.413 579.463 390.56 579.806 389.825 580.336L392.253 583.226C393.697 582.489 395.33 581.781 396.587 583.226C397.425 584.295 397.396 585.884 395.734 587.43ZM391.588 583.5L389.305 580.77C388.251 581.81 388.236 582.807 388.814 583.5C389.392 584.194 390.49 584.064 391.588 583.5ZM395.778 583.905C395.055 583.038 394.015 583.399 392.888 583.905L395.171 586.635C396.298 585.653 396.37 584.642 395.778 583.948V583.905Z" fill="#263238"/>
<path d="M149.695 58.6093C150.154 53.5956 146.463 49.1584 141.449 48.6986C136.435 48.2388 131.998 51.9304 131.538 56.9441C131.079 61.9578 134.77 66.395 139.784 66.8548C144.798 67.3146 149.235 63.6229 149.695 58.6093Z" stroke="#263238" stroke-miterlimit="10"/>
<path d="M144.18 61.4069L145.22 62.6638L144.671 63.1117L143.631 61.8693C142.66 62.6572 141.442 63.0768 140.192 63.0539L139.99 62.1582C141.093 62.1872 142.173 61.8408 143.053 61.1758L140.654 58.2863C139.21 58.9943 137.664 59.6444 136.465 58.1997C135.598 57.1595 135.583 55.6136 137.158 54.0822L136.104 52.8253L136.653 52.3774L137.693 53.6199C138.496 52.9785 139.461 52.5733 140.481 52.4497L140.741 53.3165C139.848 53.4403 139 53.7828 138.271 54.3134L140.683 57.2028C142.128 56.466 143.761 55.7581 145.017 57.2028C145.87 58.2719 145.827 59.8611 144.18 61.4069ZM140.019 57.5206L137.736 54.7323C136.696 55.7725 136.667 56.7694 137.245 57.4629C137.823 58.1563 138.921 58.0407 140.019 57.5206ZM144.223 57.9107C143.501 57.0583 142.446 57.4195 141.333 57.9107L143.616 60.6412C144.729 59.6299 144.801 58.6186 144.223 57.9107Z" fill="#263238"/>
<path opacity="0.2" d="M346.065 431.53C346.065 431.53 334.926 488.062 266.605 500.876C266.605 500.876 248.763 515.107 242.825 523.53C236.887 531.952 205.262 546.269 173.045 590.94C140.828 635.611 92.8633 493.754 92.8633 493.754L198.877 356.072L346.065 431.53Z" fill="black" fill-opacity="0.7"/>
<path d="M406.786 166.091C406.786 166.091 443.627 148.076 451.732 151.182C459.837 154.288 467.624 172.925 436.634 190.767C405.645 208.609 414.891 241.852 414.891 241.852H436.996C436.996 241.852 450.258 247.256 455.416 254.205C460.573 261.154 464.257 284.847 467.205 292.88C470.152 300.913 468.649 308.96 460.573 311.575C460.573 311.575 455.416 334.054 456.889 344.023C458.363 353.992 457.626 360.406 448.048 361.62C445.637 361.871 443.202 361.595 440.909 360.811C438.616 360.028 436.52 358.755 434.768 357.081C433.016 355.407 431.649 353.372 430.761 351.118C429.873 348.863 429.487 346.442 429.627 344.023L422.259 370.721L427.417 380.979C434.703 383.799 441.437 387.877 447.311 393.028C457.626 401.87 467.941 404.282 464.994 414.135C462.047 423.988 456.152 434.607 425.207 422.298C394.261 409.989 368.472 361.62 368.472 361.62L349.879 192.963L406.786 166.091Z" fill="white"/>
<path opacity="0.4" d="M445.563 262.974C428.862 285.743 447.34 311.964 447.34 311.964C447.34 311.964 435.782 318.408 435.45 334.849C435.32 341.682 437.039 351.232 439.09 360.074C436.087 358.655 433.58 356.365 431.895 353.503C430.21 350.64 429.425 347.337 429.642 344.023L422.259 370.721L427.417 380.964C432.843 383.041 437.958 385.856 442.615 389.329C438.036 399.847 436.634 412.849 437.039 426.256C433.015 425.188 429.063 423.866 425.207 422.298C394.261 409.974 368.472 361.62 368.472 361.62L349.879 192.948L406.786 166.091C406.786 166.091 426.911 156.253 440.694 152.366C439.625 165.253 442.139 178.588 443.959 186.014C441.608 187.734 439.163 189.321 436.634 190.767C405.688 208.609 414.891 241.852 414.891 241.852H437.01C437.01 241.852 449.608 246.995 455.011 253.684C451.316 256.172 448.112 259.321 445.563 262.974Z" fill="#A435F0"/>
<path d="M349.229 404.355C349.229 404.355 309.152 482.933 236.916 500.761C236.916 500.761 234.157 516.306 221.934 522.981C215.404 526.535 189.052 566.019 165.922 602.065L37.8047 523.472C45.6929 515.67 54.679 506.684 63.8097 497.308C90.537 470.06 119.056 439.519 127.782 424.407C135.583 410.971 145.451 387.654 154.047 365.737C165.056 337.71 174.013 311.965 174.013 311.965L216.719 264.491L283.855 189.843L286.744 199.392L349.229 404.355Z" fill="white"/>
<path opacity="0.4" d="M283.913 189.843L349.229 404.355C349.229 404.355 309.152 482.933 236.916 500.761C236.916 500.761 234.157 516.306 221.934 522.981C216.069 526.173 194.239 558.318 173.117 590.882C180.948 564.011 203.615 521.175 203.615 521.175C189.067 503.939 193.314 485.779 199.137 490.951C204.959 496.123 219.594 510.657 220.518 511.567C214.089 503.997 212.601 492.136 212.601 492.136C212.601 492.136 230.631 504.127 232.091 484.912C233.55 465.697 221.284 418.744 221.284 418.744L189.081 295.278L283.913 189.843Z" fill="#A435F0"/>
<path d="M349.879 192.963L406.786 166.091C406.786 166.091 443.627 148.076 451.732 151.182C459.837 154.288 467.624 172.925 436.634 190.767C405.645 208.609 414.891 241.852 414.891 241.852H436.996C436.996 241.852 450.258 247.256 455.416 254.205C460.573 261.154 464.257 284.847 467.205 292.88C470.152 300.913 468.649 308.96 460.573 311.575C460.573 311.575 455.416 334.054 456.889 344.023C458.363 353.992 457.626 360.406 448.048 361.62C445.637 361.871 443.202 361.595 440.909 360.811C438.616 360.028 436.52 358.755 434.768 357.081C433.016 355.407 431.649 353.372 430.761 351.118C429.873 348.863 429.487 346.442 429.627 344.023L422.259 370.721L427.417 380.979C434.703 383.799 441.437 387.877 447.311 393.028C457.626 401.87 467.941 404.282 464.994 414.135C462.047 423.988 456.152 434.607 425.207 422.298C394.261 409.989 368.472 361.62 368.472 361.62" stroke="#263238" stroke-linecap="round" stroke-linejoin="round"/>
<path d="M460.574 311.575C449.521 314.565 436.635 312.355 431.838 292.794C427.042 273.232 436.635 252.341 442.89 250.42" stroke="#263238" stroke-linecap="round" stroke-linejoin="round"/>
<path d="M429.627 344.023C429.627 344.023 428.89 318.871 438.108 312.658" stroke="#263238" stroke-linecap="round" stroke-linejoin="round"/>
<path opacity="0.4" d="M160.866 468.948C160.866 468.948 133.864 465.582 127.84 453.504C122.855 443.507 95.8391 480.954 63.8674 497.308C90.5948 470.061 119.114 439.519 127.84 424.407C135.641 410.972 145.509 387.654 154.105 365.737C153.671 383.912 143.992 411.737 146.751 426.228C143.794 427.01 141.265 428.925 139.71 431.559C138.155 434.193 137.7 437.333 138.444 440.299C140.51 451.814 160.866 468.948 160.866 468.948Z" fill="#A435F0"/>
<path d="M349.229 404.354C349.229 404.354 309.152 482.933 236.902 500.761C236.902 500.761 234.157 516.306 221.934 522.98C215.404 526.534 189.067 566.019 165.908 602.064" stroke="#263238" stroke-linecap="round" stroke-linejoin="round"/>
<path d="M37.8047 523.472C68.6639 492.974 116.094 444.619 127.84 424.407C145.61 393.823 174.071 311.95 174.071 311.95L283.869 189.843" stroke="#263238" stroke-linecap="round" stroke-linejoin="round"/>
<path d="M221.212 283.099C221.212 283.099 238.086 298.211 242.883 311.994" stroke="#263238" stroke-linecap="round" stroke-linejoin="round"/>
<path d="M420.395 62.9961H238.837C233.468 62.9961 229.115 67.3492 229.115 72.7191V459.225C229.115 464.595 233.468 468.948 238.837 468.948H420.395C425.765 468.948 430.118 464.595 430.118 459.225V72.7191C430.118 67.3492 425.765 62.9961 420.395 62.9961Z" fill="#263238"/>
<path d="M369.455 74.0484L365.612 81.0842C365.205 81.8477 364.6 82.4871 363.86 82.9347C363.12 83.3823 362.273 83.6215 361.408 83.6269H297.84C296.976 83.6223 296.13 83.3868 295.388 82.9448C294.646 82.5027 294.036 81.8703 293.621 81.1131L289.793 74.0773C289.381 73.317 288.772 72.6821 288.03 72.2396C287.287 71.7971 286.439 71.5635 285.574 71.5635H241.149C240.516 71.5654 239.89 71.6922 239.306 71.9366C238.722 72.181 238.192 72.5383 237.746 72.9879C237.301 73.4375 236.948 73.9706 236.709 74.5567C236.47 75.1428 236.349 75.7703 236.353 76.4033V456.365C236.353 457.638 236.858 458.86 237.757 459.761C238.656 460.663 239.876 461.172 241.149 461.176H418.07C418.704 461.179 419.332 461.058 419.919 460.818C420.507 460.578 421.04 460.224 421.49 459.777C421.94 459.33 422.297 458.798 422.54 458.212C422.784 457.627 422.909 456.999 422.909 456.365V76.4033C422.909 75.1274 422.402 73.9037 421.5 73.0015C420.598 72.0992 419.374 71.5924 418.098 71.5924H373.688C372.827 71.5841 371.979 71.8077 371.234 72.2399C370.49 72.672 369.875 73.2967 369.455 74.0484Z" fill="#A435F0" stroke="#263238" stroke-linecap="round" stroke-linejoin="round"/>
<path d="M315.827 77.458C317.255 77.458 318.413 76.3002 318.413 74.8719C318.413 73.4437 317.255 72.2859 315.827 72.2859C314.399 72.2859 313.241 73.4437 313.241 74.8719C313.241 76.3002 314.399 77.458 315.827 77.458Z" stroke="white" stroke-miterlimit="10"/>
<path d="M345.978 74.872C345.975 75.1885 345.879 75.4971 345.701 75.759C345.523 76.0208 345.272 76.2241 344.978 76.3432C344.685 76.4624 344.363 76.4921 344.053 76.4286C343.743 76.3651 343.458 76.2112 343.236 75.9864C343.013 75.7616 342.861 75.4758 342.801 75.1651C342.74 74.8544 342.773 74.5328 342.894 74.2406C343.016 73.9484 343.222 73.6988 343.485 73.5232C343.749 73.3476 344.058 73.2539 344.375 73.2539C344.586 73.2539 344.796 73.2959 344.992 73.3773C345.187 73.4588 345.365 73.5782 345.514 73.7287C345.663 73.8791 345.781 74.0576 345.86 74.2539C345.94 74.4501 345.98 74.6602 345.978 74.872Z" stroke="white" stroke-miterlimit="10"/>
<path d="M338.783 73.8604H323.065C322.933 73.8603 322.802 73.8866 322.68 73.9376C322.558 73.9886 322.448 74.0633 322.355 74.1574C322.262 74.2515 322.189 74.3631 322.14 74.4857C322.09 74.6084 322.066 74.7395 322.068 74.8717C322.068 75.136 322.173 75.3896 322.36 75.5765C322.547 75.7635 322.8 75.8685 323.065 75.8685H338.783C339.048 75.8685 339.301 75.7635 339.488 75.5765C339.675 75.3896 339.78 75.136 339.78 74.8717C339.782 74.7395 339.758 74.6084 339.709 74.4857C339.659 74.3631 339.586 74.2515 339.493 74.1574C339.401 74.0633 339.29 73.9886 339.168 73.9376C339.046 73.8866 338.916 73.8603 338.783 73.8604Z" fill="white"/>
<path d="M269.249 81.1997H252.303V88.3944H269.249V81.1997Z" stroke="#263238" stroke-linecap="round" stroke-linejoin="round"/>
<path d="M271.864 82.4133H269.235V87.1953H271.864V82.4133Z" stroke="#263238" stroke-linecap="round" stroke-linejoin="round"/>
<path d="M389.334 85.7937H386.329V88.4086H389.334V85.7937Z" stroke="#263238" stroke-linecap="round" stroke-linejoin="round"/>
<path d="M395.2 83.1643H392.195V88.4086H395.2V83.1643Z" stroke="#263238" stroke-linecap="round" stroke-linejoin="round"/>
<path d="M401.065 80.5349H398.06V88.3942H401.065V80.5349Z" stroke="#263238" stroke-linecap="round" stroke-linejoin="round"/>
<path d="M406.916 77.9055H403.911V88.3942H406.916V77.9055Z" stroke="#263238" stroke-linecap="round" stroke-linejoin="round"/>
<path opacity="0.5" d="M421.667 155.516H237.552V331.122H421.667V155.516Z" fill="white"/>
<path d="M288.406 127.474V130.522C288.406 134.293 286.6 136.301 282.902 136.301H281.154V145.129H277.455V121.652H282.902C286.6 121.652 288.406 123.703 288.406 127.474ZM281.182 125.018V132.978H282.931C284.101 132.978 284.736 132.444 284.736 130.768V127.228C284.736 125.553 284.101 125.018 282.931 125.018H281.182Z" fill="#263238"/>
<path d="M301.654 145.172H297.927L297.276 140.91H292.754L292.104 145.172H288.709L292.48 121.652H297.883L301.654 145.172ZM293.217 137.717H296.785L295.037 125.827H294.965L293.217 137.717Z" fill="#263238"/>
<path d="M305.179 137.385L300.513 121.652H304.442L307.231 132.372H307.303L310.091 121.652H313.616L308.95 137.385V145.172H305.251L305.179 137.385Z" fill="#263238"/>
<path d="M322.819 138.353H322.891L325.376 121.652H330.52V145.172H327.023V128.312L324.538 145.172H321.042L318.355 128.543V145.172H314.989V121.652H320.132L322.819 138.353Z" fill="#263238"/>
<path d="M336.905 131.563H342.005V134.929H336.934V141.82H343.32V145.172H333.207V121.652H343.32V125.018H336.934L336.905 131.563Z" fill="#263238"/>
<path d="M348.94 128.139H348.868V145.172H345.545V121.652H350.182L353.91 135.738V121.652H357.204V145.172H353.418L348.94 128.139Z" fill="#263238"/>
<path d="M358.851 121.652H370.278V125.018H366.406V145.172H362.708V125.018H358.851V121.652Z" fill="#263238"/>
<path d="M376.866 121.392C380.449 121.392 382.298 123.545 382.298 127.301V128.038H378.802V127.07C378.802 125.38 378.138 124.744 376.953 124.744C375.768 124.744 375.118 125.38 375.118 127.07C375.118 128.76 375.855 130.06 378.268 132.17C381.359 134.9 382.342 136.836 382.342 139.523C382.342 143.294 380.449 145.447 376.823 145.447C373.197 145.447 371.319 143.294 371.319 139.523V138.079H374.815V139.769C374.815 141.445 375.552 142.052 376.722 142.052C377.892 142.052 378.643 141.445 378.643 139.769C378.643 138.093 377.907 136.778 375.479 134.655C372.388 131.939 371.42 129.988 371.42 127.301C371.42 123.545 373.269 121.392 376.866 121.392Z" fill="#263238"/>
<path d="M406.917 176.797H252.303V199.898H406.917V176.797Z" fill="white" stroke="#263238" stroke-linecap="round" stroke-linejoin="round"/>
<path d="M406.917 220.124H252.303V243.225H406.917V220.124Z" fill="white" stroke="#263238" stroke-linecap="round" stroke-linejoin="round"/>
<path d="M406.917 259.521H252.303V282.623H406.917V259.521Z" fill="white" stroke="#263238" stroke-linecap="round" stroke-linejoin="round"/>
<path d="M325.507 291.045H252.303V318.091H325.507V291.045Z" fill="white" stroke="#263238" stroke-linecap="round" stroke-linejoin="round"/>
<path d="M406.931 291.045H333.727V318.091H406.931V291.045Z" fill="white" stroke="#263238" stroke-linecap="round" stroke-linejoin="round"/>
<path d="M261.939 172.766V173.387H257.099V166.554H261.794V167.175H257.836V169.617H261.361V170.223H257.836V172.766H261.939Z" fill="#263238"/>
<path d="M271.965 170.411V173.387H271.214V170.498C271.214 169.414 270.665 168.851 269.769 168.851C269.528 168.841 269.288 168.883 269.065 168.975C268.842 169.067 268.641 169.207 268.478 169.384C268.314 169.562 268.191 169.773 268.117 170.002C268.043 170.232 268.021 170.475 268.05 170.715V173.402H267.357V170.512C267.357 169.429 266.808 168.865 265.912 168.865C265.671 168.855 265.43 168.898 265.207 168.99C264.984 169.082 264.784 169.221 264.62 169.399C264.457 169.576 264.334 169.787 264.26 170.017C264.186 170.247 264.163 170.49 264.193 170.729V173.416H263.499V168.288H264.164V169.227C264.361 168.907 264.642 168.647 264.975 168.475C265.308 168.302 265.682 168.222 266.056 168.244C266.435 168.212 266.814 168.3 267.14 168.494C267.467 168.688 267.724 168.98 267.877 169.328C268.087 168.98 268.388 168.696 268.746 168.506C269.105 168.315 269.508 168.225 269.914 168.244C270.198 168.225 270.483 168.269 270.749 168.373C271.014 168.477 271.254 168.638 271.45 168.845C271.646 169.052 271.793 169.3 271.883 169.57C271.972 169.841 272 170.128 271.965 170.411Z" fill="#263238"/>
<path d="M277.73 170.209V173.387H277.065V172.593C276.87 172.879 276.603 173.108 276.291 173.258C275.979 173.407 275.633 173.472 275.288 173.445C274.132 173.445 273.424 172.838 273.424 172C273.424 171.162 273.93 170.556 275.404 170.556H276.993V170.238C276.993 169.357 276.487 168.88 275.548 168.88C274.925 168.87 274.32 169.086 273.843 169.487L273.525 168.966C274.124 168.503 274.863 168.259 275.62 168.273C275.892 168.228 276.171 168.246 276.435 168.325C276.699 168.404 276.942 168.542 277.145 168.728C277.349 168.915 277.507 169.145 277.608 169.401C277.709 169.658 277.751 169.934 277.73 170.209ZM277.036 171.856V171.003H275.418C274.421 171.003 274.103 171.394 274.103 171.928C274.103 172.463 274.58 172.896 275.404 172.896C275.743 172.906 276.077 172.811 276.361 172.625C276.646 172.439 276.866 172.171 276.993 171.856H277.036Z" fill="#263238"/>
<path d="M279.449 166.641C279.453 166.509 279.508 166.384 279.602 166.292C279.697 166.201 279.823 166.149 279.955 166.149C280.085 166.149 280.21 166.201 280.302 166.293C280.394 166.385 280.446 166.51 280.446 166.641C280.446 166.771 280.394 166.896 280.302 166.988C280.21 167.08 280.085 167.132 279.955 167.132C279.823 167.132 279.697 167.081 279.602 166.989C279.508 166.897 279.453 166.772 279.449 166.641ZM279.608 168.259H280.301V173.387H279.608V168.259Z" fill="#263238"/>
<path d="M282.237 166.149H282.931V173.373H282.237V166.149Z" fill="#263238"/>
<path d="M266.72 190.536V191.157H261.881V184.323H266.576V184.945H262.545V187.372H266.085V187.993H262.545V190.536H266.72Z" fill="#263238"/>
<path d="M276.747 188.152V191.129H276.053V188.239C276.053 187.156 275.504 186.592 274.609 186.592C274.368 186.58 274.128 186.62 273.905 186.711C273.682 186.801 273.481 186.939 273.318 187.116C273.154 187.292 273.03 187.502 272.956 187.731C272.882 187.96 272.86 188.203 272.89 188.441V191.143H272.196V188.254C272.196 187.17 271.647 186.607 270.751 186.607C270.511 186.594 270.271 186.635 270.048 186.725C269.825 186.815 269.624 186.954 269.46 187.13C269.296 187.306 269.173 187.516 269.099 187.745C269.025 187.975 269.002 188.217 269.032 188.456V191.157H268.324V186.014H268.989V186.953C269.189 186.638 269.47 186.382 269.803 186.211C270.136 186.041 270.508 185.963 270.881 185.985C271.259 185.958 271.636 186.047 271.962 186.241C272.288 186.434 272.546 186.724 272.702 187.069C272.911 186.72 273.211 186.435 273.57 186.245C273.929 186.054 274.333 185.964 274.739 185.985C275.02 185.973 275.3 186.022 275.56 186.128C275.82 186.235 276.054 186.397 276.245 186.604C276.436 186.81 276.58 187.055 276.667 187.323C276.753 187.59 276.781 187.873 276.747 188.152Z" fill="#263238"/>
<path d="M282.497 187.95V191.128H281.833V190.334C281.64 190.618 281.376 190.846 281.066 190.993C280.756 191.141 280.412 191.202 280.07 191.172C278.914 191.172 278.192 190.565 278.192 189.727C278.192 188.889 278.712 188.282 280.186 188.282H281.818V187.979C281.818 187.098 281.312 186.621 280.373 186.621C279.747 186.613 279.137 186.828 278.654 187.228L278.351 186.708C278.945 186.236 279.687 185.99 280.446 186.014C280.713 185.979 280.986 186.004 281.242 186.087C281.499 186.171 281.734 186.31 281.931 186.495C282.127 186.681 282.28 186.907 282.378 187.159C282.476 187.41 282.517 187.681 282.497 187.95ZM281.818 189.583V188.745H280.2C279.203 188.745 278.885 189.135 278.885 189.669C278.885 190.204 279.362 190.637 280.186 190.637C280.534 190.657 280.881 190.566 281.174 190.376C281.467 190.187 281.693 189.909 281.818 189.583Z" fill="#263238"/>
<path d="M284.216 184.367C284.22 184.236 284.275 184.111 284.369 184.019C284.464 183.927 284.59 183.876 284.722 183.876C284.788 183.874 284.853 183.885 284.914 183.909C284.976 183.933 285.032 183.969 285.079 184.015C285.126 184.06 285.163 184.115 285.189 184.176C285.214 184.236 285.228 184.301 285.228 184.367C285.228 184.501 285.174 184.63 285.08 184.725C284.985 184.82 284.856 184.873 284.722 184.873C284.588 184.873 284.459 184.82 284.364 184.725C284.27 184.63 284.216 184.501 284.216 184.367ZM284.375 185.985H285.069V191.128H284.375V185.985Z" fill="#263238"/>
<path d="M287.019 183.876H287.698V191.1H287.019V183.876Z" fill="#263238"/>
<path d="M294.329 188.152V191.128H293.636V188.239C293.667 188.025 293.649 187.807 293.585 187.602C293.521 187.396 293.411 187.207 293.264 187.049C293.117 186.891 292.937 186.768 292.736 186.689C292.536 186.61 292.32 186.577 292.105 186.592C291.858 186.571 291.611 186.605 291.379 186.691C291.148 186.778 290.939 186.914 290.766 187.091C290.593 187.268 290.462 187.48 290.381 187.714C290.3 187.947 290.272 188.195 290.299 188.441V191.143H289.605V185.999H290.27V186.953C290.479 186.631 290.77 186.371 291.112 186.198C291.455 186.025 291.837 185.947 292.22 185.97C292.509 185.947 292.8 185.988 293.071 186.091C293.343 186.193 293.588 186.355 293.79 186.563C293.992 186.772 294.144 187.022 294.238 187.297C294.331 187.572 294.362 187.864 294.329 188.152Z" fill="#263238"/>
<path d="M300.108 187.95V191.128H299.443V190.334C299.251 190.618 298.986 190.846 298.676 190.993C298.366 191.141 298.023 191.202 297.681 191.172C296.511 191.172 295.803 190.565 295.803 189.727C295.803 188.889 296.308 188.282 297.782 188.282H299.415V187.979C299.415 187.098 298.923 186.621 297.97 186.621C297.347 186.611 296.742 186.827 296.265 187.228L295.947 186.708C296.543 186.238 297.284 185.993 298.042 186.014C298.311 185.977 298.585 186 298.843 186.082C299.102 186.164 299.339 186.303 299.537 186.489C299.735 186.674 299.889 186.902 299.988 187.155C300.087 187.408 300.128 187.679 300.108 187.95ZM299.415 189.583V188.745H297.811C296.814 188.745 296.482 189.135 296.482 189.669C296.482 190.204 296.959 190.637 297.782 190.637C298.133 190.661 298.483 190.571 298.779 190.381C299.075 190.191 299.303 189.911 299.429 189.583H299.415Z" fill="#263238"/>
<path d="M310.481 188.152V191.128H309.788V188.239C309.788 187.155 309.239 186.592 308.343 186.592C308.103 186.58 307.863 186.62 307.64 186.71C307.416 186.801 307.216 186.939 307.052 187.115C306.888 187.292 306.765 187.502 306.691 187.731C306.617 187.96 306.594 188.202 306.624 188.441V191.143H305.887V188.253C305.887 187.17 305.338 186.606 304.442 186.606C304.202 186.594 303.962 186.634 303.739 186.725C303.516 186.815 303.315 186.954 303.151 187.13C302.987 187.306 302.864 187.516 302.79 187.745C302.716 187.974 302.693 188.217 302.723 188.456V191.157H302.03V186.014H302.694V186.953C302.895 186.638 303.176 186.381 303.509 186.211C303.842 186.041 304.214 185.963 304.587 185.985C304.965 185.953 305.345 186.041 305.671 186.235C305.997 186.429 306.255 186.721 306.407 187.069C306.618 186.721 306.918 186.437 307.277 186.247C307.635 186.056 308.039 185.966 308.444 185.985C308.728 185.968 309.011 186.014 309.275 186.119C309.539 186.223 309.776 186.385 309.97 186.592C310.165 186.798 310.311 187.045 310.4 187.315C310.488 187.585 310.516 187.871 310.481 188.152Z" fill="#263238"/>
<path d="M316.853 188.773H312.518C312.555 189.277 312.791 189.745 313.173 190.076C313.554 190.406 314.052 190.572 314.555 190.536C314.852 190.544 315.146 190.487 315.418 190.37C315.69 190.253 315.933 190.078 316.13 189.857L316.52 190.305C316.152 190.692 315.677 190.961 315.156 191.08C314.634 191.198 314.09 191.16 313.59 190.971C313.09 190.781 312.657 190.448 312.346 190.013C312.035 189.579 311.858 189.062 311.839 188.528C311.821 188.189 311.874 187.85 311.992 187.532C312.111 187.214 312.294 186.924 312.53 186.68C312.766 186.436 313.05 186.243 313.363 186.114C313.677 185.984 314.014 185.921 314.353 185.927C314.691 185.921 315.027 185.984 315.339 186.114C315.652 186.244 315.933 186.437 316.167 186.682C316.401 186.926 316.581 187.216 316.696 187.534C316.812 187.852 316.86 188.19 316.838 188.528C316.838 188.528 316.853 188.701 316.853 188.773ZM312.518 188.253H316.159C316.159 187.77 315.967 187.307 315.626 186.966C315.285 186.625 314.822 186.433 314.339 186.433C313.856 186.433 313.393 186.625 313.052 186.966C312.71 187.307 312.518 187.77 312.518 188.253Z" fill="#263238"/>
<path d="M326.908 188.542C326.908 190.204 326.286 191.172 325.275 191.172C325.133 191.18 324.99 191.158 324.856 191.108C324.722 191.059 324.6 190.982 324.497 190.883C324.394 190.784 324.312 190.665 324.257 190.533C324.202 190.402 324.175 190.26 324.177 190.117C323.976 190.451 323.689 190.725 323.346 190.911C323.003 191.096 322.616 191.186 322.227 191.172C321.56 191.172 320.921 190.907 320.449 190.435C319.978 189.964 319.713 189.324 319.713 188.658C319.713 187.991 319.978 187.352 320.449 186.88C320.921 186.409 321.56 186.144 322.227 186.144C322.611 186.128 322.994 186.214 323.334 186.394C323.674 186.574 323.96 186.842 324.163 187.17V186.202H324.798V189.9C324.798 190.449 325.073 190.652 325.405 190.652C325.997 190.652 326.388 189.9 326.388 188.586C326.403 188.064 326.309 187.544 326.111 187.061C325.913 186.578 325.616 186.142 325.239 185.781C324.861 185.42 324.412 185.142 323.921 184.966C323.429 184.79 322.906 184.718 322.386 184.757C321.87 184.757 321.359 184.859 320.882 185.056C320.405 185.254 319.972 185.543 319.607 185.908C319.242 186.273 318.953 186.706 318.755 187.183C318.558 187.66 318.456 188.171 318.456 188.687C318.456 189.203 318.558 189.714 318.755 190.19C318.953 190.667 319.242 191.1 319.607 191.465C319.972 191.83 320.405 192.12 320.882 192.317C321.359 192.515 321.87 192.616 322.386 192.616C323.036 192.615 323.678 192.467 324.264 192.183L324.423 192.66C323.786 192.959 323.09 193.112 322.386 193.108C321.213 193.108 320.089 192.642 319.26 191.813C318.431 190.984 317.965 189.859 317.965 188.687C317.965 187.514 318.431 186.39 319.26 185.561C320.089 184.732 321.213 184.266 322.386 184.266C322.97 184.224 323.556 184.303 324.107 184.5C324.659 184.697 325.163 185.006 325.588 185.408C326.014 185.811 326.351 186.297 326.578 186.836C326.805 187.376 326.917 187.957 326.908 188.542ZM324.163 188.643C324.185 188.386 324.154 188.126 324.071 187.881C323.988 187.637 323.855 187.412 323.681 187.221C323.506 187.03 323.294 186.878 323.057 186.774C322.821 186.67 322.565 186.616 322.306 186.616C322.048 186.616 321.792 186.67 321.555 186.774C321.319 186.878 321.106 187.03 320.932 187.221C320.757 187.412 320.624 187.637 320.541 187.881C320.458 188.126 320.427 188.386 320.45 188.643C320.427 188.901 320.458 189.16 320.541 189.405C320.624 189.65 320.757 189.875 320.932 190.066C321.106 190.257 321.319 190.409 321.555 190.513C321.792 190.617 322.048 190.671 322.306 190.671C322.565 190.671 322.821 190.617 323.057 190.513C323.294 190.409 323.506 190.257 323.681 190.066C323.855 189.875 323.988 189.65 324.071 189.405C324.154 189.16 324.185 188.901 324.163 188.643Z" fill="#263238"/>
<path d="M332.831 188.773H328.497C328.511 189.024 328.576 189.269 328.685 189.495C328.795 189.721 328.948 189.923 329.136 190.089C329.324 190.256 329.543 190.383 329.78 190.465C330.018 190.547 330.269 190.581 330.519 190.565C330.815 190.573 331.11 190.516 331.382 190.399C331.654 190.282 331.897 190.107 332.094 189.886L332.484 190.334C332.115 190.721 331.641 190.99 331.119 191.109C330.598 191.227 330.053 191.189 329.554 191C329.054 190.81 328.621 190.477 328.31 190.042C327.998 189.608 327.822 189.091 327.803 188.557C327.785 188.218 327.837 187.879 327.956 187.561C328.075 187.243 328.258 186.953 328.494 186.709C328.73 186.465 329.013 186.273 329.327 186.143C329.641 186.013 329.978 185.95 330.317 185.956C330.655 185.95 330.991 186.013 331.303 186.143C331.615 186.273 331.897 186.466 332.131 186.711C332.364 186.955 332.545 187.245 332.66 187.563C332.776 187.881 332.824 188.219 332.802 188.557C332.802 188.557 332.831 188.701 332.831 188.773ZM328.497 188.253H332.137C332.137 187.771 331.946 187.308 331.604 186.966C331.263 186.625 330.8 186.433 330.317 186.433C329.834 186.433 329.371 186.625 329.03 186.966C328.689 187.308 328.497 187.771 328.497 188.253Z" fill="#263238"/>
<path d="M342.742 188.152V191.128H342.005V188.239C342.005 187.155 341.456 186.592 340.56 186.592C340.32 186.58 340.08 186.62 339.857 186.71C339.634 186.801 339.433 186.939 339.269 187.115C339.105 187.292 338.982 187.502 338.908 187.731C338.834 187.96 338.811 188.202 338.841 188.441V191.143H338.148V188.253C338.148 187.17 337.599 186.606 336.703 186.606C336.463 186.594 336.222 186.634 335.999 186.725C335.776 186.815 335.576 186.954 335.412 187.13C335.248 187.306 335.125 187.516 335.051 187.745C334.977 187.974 334.954 188.217 334.984 188.456V191.157H334.29V186.014H334.955V186.953C335.153 186.639 335.432 186.383 335.762 186.213C336.092 186.043 336.462 185.964 336.833 185.985C337.213 185.957 337.592 186.045 337.921 186.239C338.249 186.433 338.509 186.722 338.668 187.069C338.873 186.72 339.171 186.435 339.527 186.244C339.884 186.053 340.286 185.963 340.69 185.985C340.975 185.966 341.26 186.01 341.525 186.114C341.791 186.218 342.03 186.379 342.226 186.586C342.422 186.793 342.57 187.041 342.659 187.311C342.748 187.582 342.777 187.869 342.742 188.152Z" fill="#263238"/>
<path d="M348.492 187.95V191.128H347.784V190.334C347.591 190.617 347.326 190.844 347.016 190.991C346.706 191.138 346.363 191.201 346.021 191.172C344.851 191.172 344.143 190.565 344.143 189.727C344.143 188.889 344.649 188.282 346.123 188.282H347.784V187.979C347.784 187.098 347.293 186.621 346.339 186.621C345.716 186.611 345.111 186.827 344.635 187.228L344.317 186.708C344.912 186.238 345.654 185.993 346.411 186.014C346.681 185.974 346.957 185.996 347.217 186.077C347.478 186.158 347.717 186.296 347.917 186.482C348.116 186.668 348.272 186.897 348.371 187.151C348.471 187.405 348.512 187.678 348.492 187.95ZM347.798 189.582V188.745H346.195C345.198 188.745 344.866 189.135 344.866 189.669C344.866 190.204 345.342 190.637 346.166 190.637C346.512 190.654 346.855 190.561 347.146 190.372C347.436 190.183 347.66 189.906 347.784 189.582H347.798Z" fill="#263238"/>
<path d="M350.226 184.367C350.226 184.267 350.255 184.169 350.311 184.086C350.366 184.003 350.445 183.938 350.538 183.9C350.63 183.862 350.732 183.852 350.83 183.871C350.928 183.891 351.018 183.939 351.089 184.01C351.159 184.08 351.208 184.17 351.227 184.269C351.247 184.367 351.237 184.468 351.198 184.561C351.16 184.653 351.095 184.732 351.012 184.788C350.929 184.843 350.831 184.873 350.731 184.873C350.597 184.873 350.469 184.82 350.374 184.725C350.279 184.63 350.226 184.501 350.226 184.367ZM350.37 185.985H351.064V191.129H350.37V185.985Z" fill="#263238"/>
<path d="M352.999 183.876H353.693V191.1H352.999V183.876Z" fill="#263238"/>
<path d="M355.181 190.637C355.179 190.568 355.191 190.5 355.216 190.436C355.242 190.372 355.28 190.314 355.329 190.265C355.377 190.216 355.436 190.178 355.5 190.153C355.564 190.127 355.632 190.115 355.701 190.117C355.839 190.117 355.971 190.172 356.069 190.269C356.166 190.367 356.221 190.499 356.221 190.637C356.221 190.777 356.167 190.91 356.07 191.01C355.973 191.11 355.84 191.168 355.701 191.172C355.631 191.172 355.563 191.158 355.499 191.131C355.434 191.104 355.376 191.064 355.328 191.014C355.28 190.965 355.242 190.906 355.216 190.841C355.191 190.776 355.179 190.707 355.181 190.637Z" fill="#263238"/>
<path d="M357.03 188.557C357.02 188.209 357.082 187.862 357.211 187.539C357.341 187.216 357.536 186.923 357.784 186.679C358.033 186.435 358.329 186.245 358.654 186.121C358.979 185.996 359.326 185.94 359.674 185.956C360.071 185.93 360.467 186.01 360.822 186.188C361.178 186.366 361.48 186.635 361.697 186.968L361.176 187.314C361.014 187.082 360.798 186.893 360.546 186.762C360.295 186.631 360.015 186.563 359.732 186.563C359.23 186.606 358.763 186.835 358.423 187.205C358.083 187.576 357.894 188.061 357.894 188.564C357.894 189.067 358.083 189.552 358.423 189.922C358.763 190.293 359.23 190.522 359.732 190.565C360.016 190.568 360.296 190.5 360.548 190.369C360.8 190.238 361.016 190.048 361.176 189.814L361.697 190.16C361.477 190.491 361.175 190.759 360.82 190.936C360.465 191.114 360.07 191.195 359.674 191.172C359.325 191.188 358.976 191.132 358.65 191.006C358.324 190.881 358.027 190.689 357.779 190.444C357.53 190.198 357.336 189.903 357.207 189.579C357.078 189.254 357.018 188.906 357.03 188.557Z" fill="#263238"/>
<path d="M362.448 188.557C362.448 188.039 362.601 187.534 362.889 187.104C363.176 186.674 363.584 186.339 364.062 186.141C364.54 185.943 365.066 185.891 365.573 185.992C366.08 186.093 366.546 186.342 366.912 186.708C367.278 187.073 367.527 187.539 367.627 188.046C367.728 188.554 367.677 189.079 367.479 189.557C367.281 190.035 366.946 190.444 366.516 190.731C366.086 191.018 365.58 191.172 365.063 191.172C364.716 191.184 364.371 191.124 364.048 190.997C363.725 190.87 363.432 190.678 363.187 190.433C362.942 190.187 362.749 189.894 362.622 189.571C362.495 189.249 362.436 188.903 362.448 188.557ZM366.97 188.557C366.958 188.176 366.834 187.808 366.612 187.498C366.391 187.189 366.083 186.952 365.727 186.818C365.371 186.683 364.983 186.658 364.612 186.745C364.242 186.831 363.905 187.026 363.645 187.304C363.385 187.582 363.214 187.931 363.153 188.307C363.092 188.682 363.143 189.067 363.301 189.414C363.459 189.76 363.717 190.051 364.04 190.251C364.364 190.451 364.74 190.55 365.121 190.536C365.374 190.532 365.623 190.478 365.854 190.375C366.086 190.273 366.294 190.125 366.467 189.94C366.639 189.755 366.773 189.537 366.859 189.3C366.946 189.062 366.983 188.809 366.97 188.557Z" fill="#263238"/>
<path d="M377.56 188.152V191.128H376.866V188.239C376.866 187.155 376.317 186.592 375.421 186.592C375.181 186.58 374.941 186.62 374.718 186.71C374.495 186.801 374.294 186.939 374.13 187.115C373.966 187.292 373.843 187.502 373.769 187.731C373.695 187.96 373.672 188.202 373.702 188.441V191.143H373.009V188.253C373.009 187.17 372.46 186.606 371.564 186.606C371.324 186.594 371.083 186.634 370.86 186.725C370.637 186.815 370.437 186.954 370.273 187.13C370.109 187.306 369.986 187.516 369.912 187.745C369.838 187.974 369.815 188.217 369.845 188.456V191.157H369.151V186.014H369.816V186.953C370.014 186.639 370.293 186.383 370.623 186.213C370.953 186.043 371.323 185.964 371.694 185.985C372.074 185.957 372.454 186.045 372.782 186.239C373.11 186.433 373.37 186.722 373.529 187.069C373.736 186.721 374.033 186.437 374.39 186.246C374.746 186.055 375.148 185.965 375.551 185.985C375.832 185.973 376.113 186.021 376.373 186.128C376.633 186.235 376.867 186.397 377.058 186.603C377.249 186.81 377.393 187.055 377.479 187.323C377.566 187.59 377.593 187.873 377.56 188.152Z" fill="#263238"/>
<path d="M263.109 231.797L264.322 232.491L264.106 232.895L262.878 232.187V233.632H262.43V232.187L261.202 232.895L260.971 232.491L262.199 231.797L260.971 231.118L261.202 230.699L262.43 231.422V229.977H262.878V231.422L264.106 230.699L264.322 231.118L263.109 231.797Z" fill="#263238"/>
<path d="M267.082 231.797L268.295 232.491L268.064 232.895L266.851 232.187V233.632H266.388V232.187L265.175 232.895L264.929 232.491L266.157 231.797L264.929 231.118L265.175 230.699L266.388 231.422V229.977H266.88V231.422L268.093 230.699L268.324 231.118L267.082 231.797Z" fill="#263238"/>
<path d="M271.04 231.797L272.254 232.491L272.023 232.895L270.809 232.187V233.632H270.361V232.187L269.148 232.895L268.917 232.491L270.13 231.797L268.917 231.118L269.148 230.699L270.361 231.422V229.977H270.809V231.422L272.023 230.699L272.254 231.118L271.04 231.797Z" fill="#263238"/>
<path d="M274.999 231.797L276.213 232.491L275.996 232.895L274.768 232.187V233.632H274.32V232.187L273.092 232.895L272.861 232.491L274.089 231.797L272.861 231.118L273.092 230.699L274.32 231.422V229.977H274.768V231.422L275.996 230.699L276.213 231.118L274.999 231.797Z" fill="#263238"/>
<path d="M278.972 231.797L280.185 232.491L279.954 232.895L278.741 232.187V233.632H278.278V232.187L277.065 232.895L276.819 232.491L278.047 231.797L276.819 231.118L277.065 230.699L278.278 231.422V229.977H278.741V231.422L279.954 230.699L280.185 231.118L278.972 231.797Z" fill="#263238"/>
<path d="M282.93 231.797L284.144 232.491L283.913 232.895L282.699 232.187V233.632H282.251V232.187L281.038 232.895L280.807 232.491L282.02 231.797L280.807 231.118L281.038 230.699L282.251 231.422V229.977H282.771V231.422L283.985 230.699L284.216 231.118L282.93 231.797Z" fill="#263238"/>
<path d="M286.889 231.797L288.103 232.491L287.886 232.895L286.658 232.187V233.632H286.21V232.187L284.982 232.895L284.751 232.491L285.979 231.797L284.751 231.118L284.982 230.699L286.21 231.422V229.977H286.658V231.422L287.886 230.699L288.103 231.118L286.889 231.797Z" fill="#263238"/>
<path d="M290.862 231.797L292.075 232.491L291.844 232.895L290.616 232.187V233.632H290.168V232.187L288.955 232.895L288.709 232.491L289.937 231.797L288.709 231.118L288.955 230.699L290.168 231.422V229.977H290.616V231.422L291.844 230.699L292.075 231.118L290.862 231.797Z" fill="#263238"/>
<path d="M294.821 231.797L296.034 232.491L295.803 232.895L294.589 232.187V233.632H294.141V232.187L292.928 232.895L292.697 232.491L293.91 231.797L292.697 231.118L292.928 230.699L294.141 231.422V229.977H294.589V231.422L295.803 230.699L296.034 231.118L294.821 231.797Z" fill="#263238"/>
<path d="M298.779 231.797L299.993 232.491L299.776 232.895L298.548 232.187V233.632H298.1V232.187L296.872 232.895L296.641 232.491L297.854 231.797L296.641 231.118L296.872 230.699L298.1 231.422V229.977H298.548V231.422L299.776 230.699L299.993 231.118L298.779 231.797Z" fill="#263238"/>
<path d="M302.752 231.797L303.951 232.491L303.735 232.895L302.507 232.187V233.632H302.059V232.187L300.845 232.895L300.6 232.491L301.828 231.797L300.6 231.118L300.845 230.699L302.059 231.422V229.977H302.507V231.422L303.735 230.699L303.951 231.118L302.752 231.797Z" fill="#263238"/>
<path d="M262.459 212.207C262.459 213.652 261.404 214.548 259.67 214.548H257.836V216.7H257.099V209.896H259.656C261.404 209.896 262.459 210.762 262.459 212.207ZM261.736 212.207C261.736 211.109 261.014 210.488 259.642 210.488H257.836V213.912H259.656C261.014 213.941 261.736 213.32 261.736 212.207Z" fill="#263238"/>
<path d="M267.703 213.55V216.729H267.039V215.934C266.843 216.219 266.576 216.446 266.263 216.593C265.951 216.74 265.606 216.802 265.262 216.772C264.106 216.772 263.398 216.18 263.398 215.327C263.398 214.475 263.904 213.883 265.377 213.883H267.01V213.579C267.01 212.698 266.504 212.221 265.565 212.221C264.942 212.212 264.337 212.427 263.86 212.828L263.542 212.308C264.138 211.839 264.879 211.593 265.637 211.614C265.906 211.577 266.18 211.6 266.439 211.683C266.697 211.765 266.934 211.904 267.132 212.089C267.33 212.275 267.485 212.502 267.583 212.755C267.682 213.008 267.723 213.28 267.703 213.55ZM267.01 215.183V214.345H265.435C264.438 214.345 264.12 214.735 264.12 215.27C264.12 215.804 264.597 216.238 265.421 216.238C265.762 216.248 266.099 216.153 266.383 215.964C266.668 215.775 266.887 215.502 267.01 215.183Z" fill="#263238"/>
<path d="M268.874 216.151L269.177 215.602C269.714 215.98 270.355 216.182 271.012 216.18C271.98 216.18 272.384 215.848 272.384 215.328C272.384 213.998 269.061 215.053 269.061 213.016C269.061 212.178 269.784 211.571 271.084 211.571C271.723 211.563 272.352 211.728 272.904 212.048L272.601 212.597C272.15 212.304 271.622 212.153 271.084 212.164C270.159 212.164 269.755 212.525 269.755 213.016C269.755 214.461 273.078 213.363 273.078 215.328C273.078 216.223 272.298 216.772 270.954 216.772C270.211 216.796 269.481 216.578 268.874 216.151Z" fill="#263238"/>
<path d="M273.641 216.151L273.959 215.602C274.49 215.981 275.127 216.183 275.779 216.18C276.761 216.18 277.224 215.848 277.224 215.328C277.224 213.998 273.901 215.053 273.901 213.016C273.901 212.178 274.623 211.571 275.938 211.571C276.572 211.561 277.197 211.726 277.744 212.048L277.44 212.597C277.011 212.317 276.509 212.166 275.996 212.164C275.057 212.164 274.652 212.525 274.652 213.016C274.652 214.461 277.975 213.363 277.975 215.328C277.975 216.223 277.195 216.772 275.866 216.772C275.075 216.828 274.289 216.608 273.641 216.151Z" fill="#263238"/>
<path d="M286.571 211.6L284.621 216.729H283.971L282.353 212.524L280.735 216.729H280.07L278.149 211.6H278.813L280.417 215.934L282.064 211.6H282.671L284.303 215.934L285.936 211.6H286.571Z" fill="#263238"/>
<path d="M286.947 214.157C286.947 213.64 287.1 213.134 287.388 212.704C287.675 212.274 288.083 211.939 288.561 211.741C289.039 211.543 289.565 211.492 290.072 211.592C290.579 211.693 291.045 211.942 291.411 212.308C291.777 212.674 292.026 213.14 292.126 213.647C292.227 214.154 292.176 214.68 291.978 215.158C291.78 215.636 291.445 216.044 291.015 216.331C290.585 216.619 290.079 216.772 289.562 216.772C289.215 216.784 288.87 216.725 288.547 216.598C288.224 216.471 287.931 216.278 287.686 216.033C287.441 215.788 287.248 215.495 287.121 215.172C286.994 214.849 286.935 214.504 286.947 214.157ZM291.469 214.157C291.469 213.651 291.268 213.166 290.91 212.809C290.553 212.451 290.068 212.25 289.562 212.25C289.056 212.25 288.571 212.451 288.213 212.809C287.856 213.166 287.655 213.651 287.655 214.157C287.655 214.663 287.856 215.148 288.213 215.506C288.571 215.863 289.056 216.064 289.562 216.064C290.068 216.064 290.553 215.863 290.91 215.506C291.268 215.148 291.469 214.663 291.469 214.157Z" fill="#263238"/>
<path d="M296.179 211.557V212.207H296.005C295.761 212.196 295.518 212.239 295.293 212.333C295.067 212.426 294.865 212.569 294.701 212.749C294.537 212.93 294.415 213.145 294.343 213.378C294.271 213.611 294.252 213.858 294.286 214.099V216.714H293.593V211.586H294.329V212.582C294.503 212.249 294.771 211.975 295.1 211.792C295.429 211.61 295.804 211.528 296.179 211.557Z" fill="#263238"/>
<path d="M302.058 209.491V216.714H301.394V215.703C301.188 216.039 300.896 216.315 300.548 216.5C300.2 216.685 299.809 216.774 299.415 216.758C298.757 216.709 298.141 216.413 297.692 215.929C297.243 215.445 296.994 214.81 296.994 214.15C296.994 213.49 297.243 212.855 297.692 212.371C298.141 211.887 298.757 211.591 299.415 211.542C299.799 211.528 300.181 211.613 300.523 211.79C300.865 211.968 301.155 212.231 301.365 212.554V209.476L302.058 209.491ZM301.379 214.157C301.36 213.785 301.231 213.427 301.01 213.127C300.789 212.827 300.485 212.598 300.135 212.469C299.785 212.34 299.405 212.316 299.042 212.401C298.679 212.486 298.349 212.675 298.092 212.945C297.836 213.215 297.664 213.555 297.598 213.922C297.532 214.289 297.575 214.667 297.722 215.01C297.869 215.352 298.113 215.644 298.424 215.85C298.735 216.055 299.1 216.165 299.472 216.165C299.733 216.17 299.991 216.12 300.232 216.02C300.472 215.919 300.688 215.77 300.868 215.581C301.047 215.392 301.185 215.168 301.273 214.923C301.361 214.678 301.398 214.417 301.379 214.157Z" fill="#263238"/>
<path d="M312.331 268.551V275.399H311.666V269.187H310.048V268.551H312.331Z" fill="#263238"/>
<path d="M318.629 274.734V275.37H313.833V274.864L316.722 272.076C317.488 271.325 317.647 270.862 317.647 270.4C317.647 269.606 317.083 269.114 316.043 269.114C315.695 269.092 315.346 269.149 315.023 269.282C314.7 269.415 314.412 269.619 314.179 269.88L313.674 269.447C313.982 269.115 314.359 268.856 314.778 268.686C315.198 268.516 315.649 268.44 316.101 268.464C317.546 268.464 318.369 269.172 318.369 270.313C318.347 270.73 318.235 271.137 318.04 271.506C317.846 271.875 317.573 272.198 317.242 272.452L314.916 274.734H318.629Z" fill="#263238"/>
<path d="M324.033 273.405C324.033 274.547 323.195 275.428 321.548 275.428C320.647 275.456 319.769 275.141 319.092 274.547L319.424 273.983C320.002 274.514 320.764 274.799 321.548 274.778C322.689 274.778 323.31 274.258 323.31 273.405C323.31 272.553 322.732 272.047 321.461 272.047H320.97V271.527L322.863 269.158H319.366V268.551H323.7V269.057L321.779 271.44C323.296 271.542 324.033 272.307 324.033 273.405Z" fill="#263238"/>
<path d="M330.823 273.564H329.45V275.37H328.757V273.564H324.899V273.059L328.526 268.522H329.306L325.81 272.885H328.771V271.296H329.45V272.885H330.823V273.564Z" fill="#263238"/>
<path d="M338.668 273.347C338.668 274.518 337.859 275.428 336.183 275.428C335.282 275.455 334.405 275.14 333.727 274.546L334.074 273.983C334.352 274.248 334.681 274.455 335.041 274.592C335.401 274.728 335.784 274.791 336.169 274.778C337.339 274.778 337.946 274.214 337.946 273.333C337.946 272.452 337.397 271.888 335.663 271.888H334.218L334.579 268.45H338.321V269.085H335.186L334.955 271.252H335.836C337.888 271.325 338.668 272.148 338.668 273.347Z" fill="#263238"/>
<path d="M344.692 273.318C344.689 273.614 344.625 273.907 344.504 274.177C344.382 274.447 344.205 274.689 343.985 274.887C343.765 275.086 343.507 275.236 343.225 275.329C342.944 275.422 342.646 275.456 342.352 275.428C340.531 275.428 339.549 274.156 339.549 272.004C339.549 269.851 340.82 268.464 342.669 268.464C343.237 268.442 343.801 268.572 344.302 268.84L344.013 269.403C343.61 269.172 343.148 269.062 342.684 269.085C341.239 269.085 340.257 270.024 340.257 271.888C340.257 272.047 340.257 272.235 340.257 272.437C340.456 272.061 340.76 271.75 341.132 271.543C341.503 271.335 341.927 271.239 342.352 271.267C342.643 271.23 342.94 271.255 343.221 271.342C343.502 271.428 343.762 271.572 343.983 271.766C344.204 271.96 344.382 272.199 344.504 272.466C344.626 272.734 344.69 273.024 344.692 273.318ZM343.999 273.318C343.999 272.408 343.334 271.874 342.279 271.874C342.068 271.848 341.853 271.865 341.649 271.924C341.444 271.983 341.254 272.084 341.089 272.219C340.924 272.354 340.788 272.521 340.69 272.71C340.592 272.899 340.533 273.106 340.517 273.318C340.517 274.07 341.138 274.763 342.323 274.763C342.528 274.796 342.739 274.785 342.94 274.729C343.141 274.673 343.327 274.575 343.486 274.44C343.645 274.306 343.774 274.139 343.862 273.95C343.951 273.761 343.997 273.556 343.999 273.347V273.318Z" fill="#263238"/>
<path d="M350.24 268.551V269.057L347.351 275.399H346.585L349.402 269.187H345.891V270.458H345.198V268.551H350.24Z" fill="#263238"/>
<path d="M356.236 273.463C356.236 274.677 355.21 275.428 353.578 275.428C351.945 275.428 350.948 274.677 350.948 273.463C350.944 273.074 351.071 272.695 351.31 272.388C351.549 272.081 351.885 271.864 352.263 271.773C351.948 271.688 351.67 271.499 351.476 271.237C351.282 270.975 351.183 270.654 351.194 270.328C351.194 269.216 352.133 268.522 353.578 268.522C355.022 268.522 355.99 269.216 355.99 270.328C355.985 270.655 355.876 270.971 355.678 271.231C355.481 271.491 355.205 271.68 354.892 271.773C355.274 271.861 355.615 272.076 355.859 272.383C356.103 272.69 356.236 273.071 356.236 273.463ZM355.513 273.463C355.513 272.625 354.791 272.091 353.578 272.091C352.364 272.091 351.656 272.625 351.656 273.463C351.656 274.301 352.364 274.908 353.578 274.908C354.791 274.908 355.513 274.33 355.513 273.449V273.463ZM353.563 271.527C354.632 271.527 355.268 271.05 355.268 270.299C355.268 269.548 354.589 269.071 353.563 269.071C352.537 269.071 351.873 269.534 351.873 270.299C351.873 271.065 352.508 271.527 353.563 271.527Z" fill="#263238"/>
<path d="M364.702 271.888C364.702 274.214 363.43 275.428 361.567 275.428C361.004 275.447 360.445 275.318 359.949 275.052L360.237 274.489C360.641 274.72 361.102 274.83 361.567 274.807C363.011 274.807 363.979 273.853 363.979 272.004C363.993 271.821 363.993 271.638 363.979 271.455C363.785 271.832 363.485 272.144 363.115 272.352C362.745 272.56 362.322 272.655 361.899 272.625C361.609 272.657 361.316 272.629 361.039 272.54C360.761 272.452 360.505 272.307 360.287 272.113C360.069 271.92 359.894 271.683 359.774 271.418C359.653 271.152 359.59 270.865 359.587 270.573C359.59 270.277 359.654 269.985 359.776 269.715C359.898 269.445 360.074 269.203 360.294 269.004C360.514 268.806 360.773 268.656 361.054 268.563C361.335 268.47 361.633 268.436 361.928 268.464C363.676 268.464 364.702 269.736 364.702 271.888ZM363.734 270.53C363.734 269.779 363.113 269.085 361.928 269.085C361.72 269.052 361.507 269.064 361.304 269.121C361.101 269.179 360.913 269.28 360.753 269.417C360.594 269.555 360.466 269.726 360.379 269.918C360.293 270.11 360.249 270.319 360.252 270.53C360.252 271.44 360.917 271.975 361.971 271.975C362.388 272.007 362.801 271.873 363.12 271.603C363.44 271.332 363.639 270.947 363.676 270.53H363.734Z" fill="#263238"/>
<path d="M367.591 268.551V275.399H366.883V269.187H365.265V268.551H367.591Z" fill="#263238"/>
<path d="M369.209 271.946C369.209 269.765 370.365 268.464 371.94 268.464C373.514 268.464 374.67 269.765 374.67 271.946C374.67 274.128 373.529 275.428 371.94 275.428C370.35 275.428 369.209 274.128 369.209 271.946ZM373.948 271.946C373.948 270.126 373.139 269.057 371.94 269.057C370.74 269.057 369.931 270.068 369.931 271.946C369.931 273.824 370.755 274.836 371.94 274.836C373.124 274.836 373.948 273.766 373.948 271.946Z" fill="#263238"/>
<path d="M377.56 268.551V275.399H376.852V269.187H375.234V268.551H377.56Z" fill="#263238"/>
<path d="M383.642 268.551V275.399H382.934V269.187H381.316V268.551H383.642Z" fill="#263238"/>
<path d="M387.152 268.551V275.399H386.459V269.187H384.841V268.551H387.152Z" fill="#263238"/>
<path d="M393.452 274.734V275.37H388.655V274.864L391.545 272.076C392.31 271.325 392.469 270.863 392.469 270.4C392.469 269.606 391.906 269.114 390.866 269.114C390.517 269.092 390.168 269.149 389.845 269.282C389.522 269.415 389.234 269.619 389.002 269.88L388.496 269.447C388.806 269.117 389.183 268.858 389.602 268.689C390.021 268.519 390.472 268.442 390.923 268.464C392.368 268.464 393.192 269.172 393.192 270.314C393.169 270.73 393.057 271.137 392.863 271.506C392.668 271.875 392.396 272.198 392.065 272.452L389.681 274.734H393.452Z" fill="#263238"/>
<path d="M396.225 268.551V275.399H395.46V269.187H393.856V268.551H396.225Z" fill="#263238"/>
<path d="M281.023 266.962V265.922C281.023 265.439 280.832 264.976 280.49 264.634C280.149 264.293 279.686 264.101 279.203 264.101H260.754C260.271 264.101 259.808 264.293 259.467 264.634C259.125 264.976 258.934 265.439 258.934 265.922V266.962H281.023Z" fill="#263238"/>
<path d="M258.934 268.392V276.049C258.934 276.532 259.125 276.995 259.467 277.336C259.808 277.678 260.271 277.869 260.754 277.869H279.203C279.686 277.869 280.149 277.678 280.49 277.336C280.832 276.995 281.023 276.532 281.023 276.049V268.392H258.934Z" fill="#263238"/>
<path d="M259.208 308.714C259.208 306.533 260.35 305.247 261.939 305.247C263.528 305.247 264.669 306.533 264.669 308.714C264.669 310.896 263.514 312.196 261.939 312.196C260.364 312.196 259.208 310.896 259.208 308.714ZM263.947 308.714C263.947 306.894 263.123 305.825 261.939 305.825C260.754 305.825 259.931 306.836 259.931 308.714C259.931 310.593 260.74 311.604 261.939 311.604C263.138 311.604 263.99 310.549 263.99 308.714H263.947Z" fill="#263238"/>
<path d="M270.925 310.231C270.925 311.445 269.899 312.196 268.267 312.196C266.634 312.196 265.637 311.445 265.637 310.231C265.631 309.843 265.758 309.465 265.997 309.16C266.237 308.855 266.574 308.641 266.952 308.555C266.645 308.456 266.378 308.263 266.186 308.004C265.994 307.745 265.888 307.433 265.883 307.11C265.883 305.998 266.822 305.304 268.267 305.304C269.711 305.304 270.679 305.998 270.679 307.11C270.671 307.434 270.562 307.747 270.368 308.005C270.174 308.264 269.904 308.456 269.596 308.555C269.975 308.641 270.314 308.854 270.556 309.159C270.798 309.463 270.928 309.842 270.925 310.231ZM270.203 310.231C270.203 309.393 269.48 308.873 268.267 308.873C267.053 308.873 266.345 309.393 266.345 310.231C266.345 311.069 267.067 311.676 268.267 311.676C269.466 311.676 270.203 311.069 270.203 310.216V310.231ZM268.324 308.295C269.393 308.295 270.029 307.818 270.029 307.081C270.029 306.345 269.35 305.839 268.324 305.839C267.299 305.839 266.634 306.301 266.634 307.067C266.634 307.833 267.212 308.295 268.324 308.295Z" fill="#263238"/>
<path d="M274.378 303.918H275.013L271.777 313.106H271.214L274.378 303.918Z" fill="#263238"/>
<path d="M279.882 311.503V312.138H275.086V311.633L277.975 308.859C278.741 308.093 278.885 307.631 278.885 307.168C278.885 306.374 278.336 305.883 277.296 305.883C276.946 305.86 276.594 305.917 276.269 306.05C275.944 306.183 275.653 306.387 275.418 306.648L274.927 306.215C275.235 305.885 275.612 305.626 276.032 305.459C276.452 305.292 276.903 305.219 277.354 305.247C278.799 305.247 279.608 305.94 279.608 307.082C279.593 307.498 279.485 307.907 279.293 308.277C279.101 308.646 278.828 308.969 278.495 309.22L276.169 311.503H279.882Z" fill="#263238"/>
<path d="M285.358 310.116C285.358 311.286 284.549 312.196 282.873 312.196C281.972 312.223 281.095 311.908 280.417 311.315L280.763 310.751C281.042 311.017 281.371 311.223 281.731 311.36C282.09 311.496 282.474 311.56 282.858 311.546C284.029 311.546 284.635 310.982 284.635 310.101C284.635 309.22 284.101 308.656 282.353 308.656H280.908L281.255 305.232H284.997V305.854H281.861L281.63 308.035H282.512C284.578 308.107 285.358 308.916 285.358 310.116Z" fill="#263238"/>
<path d="M262.401 300.898V301.288H259.396V297.041H262.286V297.446H259.83V298.89H262.026V299.28H259.83V300.855L262.401 300.898Z" fill="#263238"/>
<path d="M266.056 301.288L264.698 299.41L263.253 301.288H262.733L264.351 299.107L262.907 297.041H263.412L264.698 298.775L265.969 297.041H266.446L265.001 299.093L266.619 301.288H266.056Z" fill="#263238"/>
<path d="M270.564 298.5C270.564 299.396 269.899 299.945 268.83 299.945H267.689V301.288H267.241V297.041H268.83C269.899 297.041 270.564 297.59 270.564 298.5ZM270.116 298.5C270.116 297.821 269.668 297.431 268.815 297.431H267.689V299.555H268.815C269.668 299.555 270.116 299.165 270.116 298.5Z" fill="#263238"/>
<path d="M273.193 297.041H274.912C275.475 297.041 276.016 297.265 276.414 297.663C276.812 298.061 277.036 298.602 277.036 299.165C277.036 299.728 276.812 300.268 276.414 300.666C276.016 301.065 275.475 301.288 274.912 301.288H273.193V297.041ZM274.883 300.898C275.343 300.898 275.784 300.716 276.109 300.391C276.434 300.066 276.617 299.625 276.617 299.165C276.617 298.705 276.434 298.264 276.109 297.939C275.784 297.614 275.343 297.431 274.883 297.431H273.641V300.898H274.883Z" fill="#263238"/>
<path d="M280.518 299.309V301.288H280.099V300.783C279.982 300.963 279.817 301.108 279.624 301.202C279.43 301.296 279.215 301.336 279.001 301.317C278.293 301.317 277.845 300.942 277.845 300.393C277.845 299.844 278.163 299.482 279.073 299.482H280.084V299.295C280.097 299.176 280.082 299.056 280.041 298.944C279.999 298.831 279.933 298.73 279.846 298.648C279.76 298.566 279.655 298.504 279.541 298.468C279.427 298.433 279.307 298.424 279.189 298.442C278.799 298.436 278.42 298.569 278.119 298.818L277.932 298.5C278.301 298.207 278.761 298.054 279.232 298.067C279.403 298.041 279.577 298.055 279.742 298.108C279.907 298.161 280.057 298.251 280.181 298.371C280.305 298.491 280.4 298.638 280.459 298.801C280.517 298.963 280.537 299.137 280.518 299.309ZM280.084 300.32V299.8H279.087C278.466 299.8 278.264 300.046 278.264 300.378C278.264 300.71 278.567 300.97 279.073 300.97C279.287 300.986 279.501 300.932 279.683 300.818C279.864 300.704 280.005 300.534 280.084 300.335V300.32Z" fill="#263238"/>
<path d="M283.364 301.086C283.18 301.245 282.942 301.328 282.699 301.317C282.574 301.33 282.447 301.316 282.328 301.274C282.209 301.233 282.101 301.165 282.011 301.077C281.921 300.988 281.852 300.881 281.809 300.763C281.765 300.645 281.749 300.518 281.76 300.393V298.457H281.197V298.095H281.76V297.445H282.194V298.139H283.162V298.5H282.194V300.335C282.182 300.411 282.188 300.488 282.212 300.562C282.235 300.635 282.274 300.702 282.327 300.758C282.38 300.813 282.445 300.856 282.517 300.883C282.589 300.91 282.666 300.92 282.743 300.913C282.915 300.916 283.083 300.86 283.219 300.754L283.364 301.086Z" fill="#263238"/>
<path d="M286.817 299.829H284.216C284.238 300.141 284.383 300.431 284.618 300.637C284.854 300.843 285.161 300.947 285.473 300.927C285.658 300.935 285.842 300.901 286.012 300.829C286.181 300.756 286.333 300.647 286.455 300.508L286.701 300.797C286.543 300.968 286.351 301.103 286.136 301.193C285.922 301.282 285.691 301.325 285.459 301.317C285.24 301.329 285.021 301.296 284.815 301.219C284.61 301.141 284.423 301.022 284.267 300.868C284.111 300.714 283.988 300.53 283.907 300.326C283.826 300.122 283.789 299.904 283.797 299.685C283.785 299.475 283.817 299.265 283.889 299.069C283.962 298.872 284.074 298.692 284.219 298.54C284.364 298.388 284.538 298.268 284.732 298.187C284.925 298.105 285.133 298.064 285.343 298.067C285.557 298.05 285.771 298.081 285.971 298.158C286.171 298.234 286.352 298.354 286.5 298.509C286.648 298.664 286.759 298.85 286.827 299.053C286.894 299.256 286.915 299.472 286.889 299.685L286.817 299.829ZM284.144 299.497H286.412C286.381 299.218 286.248 298.961 286.038 298.774C285.829 298.587 285.558 298.484 285.278 298.484C284.997 298.484 284.727 298.587 284.518 298.774C284.308 298.961 284.175 299.218 284.144 299.497Z" fill="#263238"/>
<path d="M339.896 305.304V312.138H339.202V305.926H337.584V305.304H339.896Z" fill="#263238"/>
<path d="M346.195 311.502V312.138H341.398V311.632L344.288 308.858C345.054 308.093 345.212 307.63 345.212 307.168C345.212 306.374 344.649 305.882 343.609 305.882C343.26 305.86 342.911 305.917 342.589 306.05C342.266 306.183 341.977 306.387 341.745 306.648L341.24 306.215C341.549 305.886 341.926 305.629 342.346 305.462C342.765 305.294 343.216 305.221 343.667 305.247C345.111 305.247 345.935 305.94 345.935 307.081C345.913 307.498 345.8 307.905 345.606 308.274C345.411 308.643 345.139 308.966 344.808 309.22L342.482 311.502H346.195Z" fill="#263238"/>
<path d="M351.598 310.173C351.598 311.314 350.76 312.196 349.113 312.196C348.212 312.224 347.335 311.909 346.657 311.314L347.004 310.751C347.284 311.018 347.616 311.226 347.978 311.362C348.34 311.499 348.726 311.561 349.113 311.546C350.255 311.546 350.876 311.026 350.876 310.173C350.876 309.321 350.298 308.815 349.027 308.815H348.535V308.295L350.428 305.926H346.932V305.304H351.266V305.796L349.33 308.223C350.861 308.309 351.598 309.075 351.598 310.173Z" fill="#263238"/>
<path d="M337.816 299.164C337.811 298.874 337.867 298.585 337.978 298.317C338.089 298.048 338.253 297.805 338.462 297.602C338.67 297.399 338.917 297.241 339.189 297.137C339.46 297.033 339.75 296.986 340.041 296.997C340.327 296.988 340.613 297.038 340.879 297.145C341.145 297.252 341.386 297.413 341.586 297.619L341.312 297.908C341.148 297.743 340.951 297.613 340.735 297.526C340.519 297.439 340.288 297.397 340.055 297.402C339.811 297.38 339.565 297.409 339.333 297.487C339.101 297.565 338.888 297.691 338.707 297.856C338.526 298.021 338.382 298.222 338.283 298.446C338.184 298.67 338.133 298.912 338.133 299.157C338.133 299.402 338.184 299.644 338.283 299.868C338.382 300.093 338.526 300.294 338.707 300.459C338.888 300.624 339.101 300.749 339.333 300.828C339.565 300.906 339.811 300.935 340.055 300.913C340.288 300.921 340.521 300.881 340.737 300.794C340.954 300.707 341.15 300.575 341.312 300.407L341.586 300.696C341.386 300.905 341.143 301.069 340.874 301.176C340.605 301.283 340.315 301.331 340.026 301.317C339.738 301.329 339.45 301.282 339.18 301.178C338.91 301.075 338.664 300.918 338.457 300.717C338.251 300.515 338.087 300.274 337.977 300.007C337.866 299.74 337.811 299.453 337.816 299.164Z" fill="#263238"/>
<path d="M348.333 297.041L346.888 301.288H346.412L345.169 297.662L343.927 301.288H343.45L342.005 297.041H342.467L343.695 300.696L344.967 297.041H345.386L346.628 300.711L347.871 297.041H348.333Z" fill="#263238"/>
<path d="M302.001 348.848H298.187L297.363 350.683H296.612L299.732 343.85H300.455L303.575 350.683H302.81L302.001 348.848ZM301.726 348.27L300.108 344.601L298.461 348.27H301.726Z" fill="#263238"/>
<path d="M303.995 348.112C303.982 347.763 304.042 347.415 304.171 347.09C304.3 346.765 304.495 346.471 304.743 346.225C304.992 345.979 305.288 345.788 305.615 345.662C305.941 345.537 306.289 345.481 306.638 345.497C307.034 345.473 307.429 345.556 307.782 345.736C308.135 345.917 308.434 346.188 308.647 346.523L308.141 346.869C307.979 346.635 307.763 346.444 307.512 346.31C307.26 346.177 306.981 346.106 306.696 346.104C306.164 346.104 305.653 346.315 305.276 346.692C304.9 347.068 304.688 347.579 304.688 348.112C304.688 348.644 304.9 349.155 305.276 349.532C305.653 349.908 306.164 350.12 306.696 350.12C306.979 350.118 307.258 350.049 307.509 349.918C307.76 349.787 307.977 349.599 308.141 349.369L308.647 349.715C308.43 350.045 308.13 350.312 307.778 350.489C307.425 350.667 307.032 350.749 306.638 350.727C306.289 350.743 305.941 350.687 305.615 350.561C305.288 350.436 304.992 350.244 304.743 349.999C304.495 349.753 304.3 349.458 304.171 349.134C304.042 348.809 303.982 348.461 303.995 348.112Z" fill="#263238"/>
<path d="M312.764 350.365C312.459 350.615 312.073 350.743 311.68 350.727C311.487 350.739 311.294 350.711 311.112 350.643C310.931 350.574 310.767 350.468 310.63 350.332C310.493 350.195 310.387 350.03 310.319 349.849C310.251 349.668 310.223 349.475 310.235 349.282V346.132H309.325V345.54H310.221V344.413H310.914V345.54H312.489V346.132H310.914V349.195C310.896 349.319 310.906 349.445 310.944 349.564C310.982 349.684 311.047 349.793 311.133 349.883C311.22 349.974 311.325 350.043 311.443 350.087C311.56 350.13 311.686 350.146 311.81 350.134C312.088 350.139 312.358 350.047 312.576 349.874L312.764 350.365Z" fill="#263238"/>
<path d="M313.876 343.922C313.876 343.788 313.93 343.659 314.025 343.564C314.119 343.47 314.248 343.416 314.382 343.416C314.516 343.416 314.645 343.47 314.74 343.564C314.834 343.659 314.888 343.788 314.888 343.922C314.888 344.056 314.834 344.185 314.74 344.279C314.645 344.374 314.516 344.428 314.382 344.428C314.248 344.428 314.119 344.374 314.025 344.279C313.93 344.185 313.876 344.056 313.876 343.922ZM314.035 345.54H314.729V350.683H314.035V345.54Z" fill="#263238"/>
<path d="M316.13 348.112C316.13 347.595 316.283 347.09 316.57 346.66C316.856 346.231 317.264 345.896 317.741 345.697C318.218 345.499 318.743 345.446 319.25 345.546C319.757 345.646 320.223 345.893 320.589 346.258C320.955 346.622 321.205 347.086 321.308 347.593C321.41 348.099 321.361 348.624 321.165 349.102C320.969 349.581 320.636 349.99 320.208 350.279C319.78 350.568 319.276 350.724 318.759 350.727C318.412 350.739 318.066 350.679 317.743 350.552C317.419 350.425 317.125 350.233 316.879 349.988C316.632 349.743 316.439 349.45 316.31 349.128C316.181 348.805 316.12 348.459 316.13 348.112ZM320.652 348.112C320.632 347.739 320.503 347.38 320.281 347.08C320.06 346.779 319.754 346.551 319.404 346.422C319.053 346.294 318.673 346.271 318.309 346.357C317.946 346.443 317.616 346.633 317.36 346.905C317.104 347.177 316.933 347.518 316.869 347.885C316.805 348.253 316.85 348.632 316.999 348.974C317.148 349.316 317.394 349.608 317.707 349.811C318.02 350.015 318.386 350.122 318.759 350.12C319.019 350.123 319.275 350.071 319.514 349.97C319.752 349.868 319.967 349.719 320.145 349.53C320.323 349.341 320.46 349.118 320.547 348.874C320.634 348.63 320.67 348.37 320.652 348.112Z" fill="#263238"/>
<path d="M327.558 347.707V350.684H326.864V347.794C326.893 347.58 326.873 347.363 326.807 347.158C326.741 346.953 326.63 346.765 326.481 346.608C326.333 346.452 326.152 346.33 325.951 346.253C325.749 346.176 325.533 346.145 325.318 346.162C325.073 346.143 324.827 346.179 324.598 346.266C324.368 346.354 324.161 346.49 323.99 346.667C323.819 346.843 323.689 347.055 323.609 347.287C323.529 347.519 323.501 347.767 323.527 348.011V350.712H322.833V345.569H323.498V346.566C323.706 346.243 323.997 345.98 324.339 345.805C324.682 345.63 325.064 345.549 325.448 345.569C325.733 345.549 326.018 345.591 326.285 345.692C326.552 345.793 326.794 345.951 326.994 346.154C327.195 346.357 327.349 346.601 327.446 346.869C327.543 347.137 327.581 347.423 327.558 347.707Z" fill="#263238"/>
<path d="M332.817 344.471V347.158H336.342V347.779H332.817V350.669H332.094V343.835H336.775V344.456L332.817 344.471Z" fill="#263238"/>
<path d="M337.873 343.922C337.873 343.788 337.926 343.659 338.021 343.564C338.116 343.47 338.245 343.416 338.379 343.416C338.513 343.416 338.641 343.47 338.736 343.564C338.831 343.659 338.884 343.788 338.884 343.922C338.884 344.056 338.831 344.185 338.736 344.279C338.641 344.374 338.513 344.428 338.379 344.428C338.245 344.428 338.116 344.374 338.021 344.279C337.926 344.185 337.873 344.056 337.873 343.922ZM338.018 345.54H338.711V350.683H338.018V345.54Z" fill="#263238"/>
<path d="M345.4 345.54V350.062C345.455 350.41 345.426 350.766 345.317 351.101C345.207 351.436 345.02 351.741 344.771 351.99C344.522 352.239 344.217 352.426 343.882 352.535C343.547 352.645 343.191 352.673 342.843 352.619C341.976 352.657 341.124 352.38 340.445 351.839L340.792 351.304C341.36 351.774 342.077 352.025 342.814 352.012C344.115 352.012 344.707 351.406 344.707 350.149V349.455C344.488 349.779 344.19 350.041 343.841 350.215C343.492 350.39 343.103 350.471 342.713 350.452C342.37 350.478 342.025 350.433 341.7 350.32C341.375 350.206 341.077 350.027 340.824 349.793C340.572 349.559 340.371 349.275 340.233 348.96C340.095 348.645 340.024 348.304 340.024 347.96C340.024 347.616 340.095 347.275 340.233 346.96C340.371 346.644 340.572 346.361 340.824 346.127C341.077 345.893 341.375 345.713 341.7 345.6C342.025 345.487 342.37 345.442 342.713 345.468C343.11 345.452 343.504 345.538 343.858 345.717C344.212 345.897 344.514 346.164 344.736 346.493V345.511L345.4 345.54ZM344.736 347.982C344.747 347.594 344.643 347.211 344.436 346.883C344.228 346.554 343.928 346.295 343.573 346.139C343.217 345.982 342.824 345.935 342.442 346.004C342.06 346.073 341.707 346.254 341.428 346.524C341.149 346.794 340.958 347.142 340.878 347.521C340.798 347.901 340.833 348.296 340.979 348.656C341.124 349.016 341.374 349.324 341.696 349.541C342.018 349.758 342.397 349.874 342.785 349.874C343.038 349.89 343.292 349.853 343.53 349.767C343.768 349.68 343.986 349.545 344.169 349.369C344.352 349.194 344.497 348.983 344.595 348.749C344.692 348.515 344.74 348.264 344.736 348.01V347.982Z" fill="#263238"/>
<path d="M351.974 345.54V350.683H351.309V349.744C351.118 350.059 350.845 350.316 350.519 350.489C350.194 350.662 349.828 350.744 349.46 350.727C349.165 350.754 348.867 350.716 348.588 350.614C348.31 350.512 348.058 350.349 347.85 350.137C347.642 349.926 347.485 349.67 347.388 349.39C347.292 349.109 347.259 348.811 347.293 348.516V345.54H347.986V348.43C347.955 348.644 347.973 348.863 348.038 349.07C348.103 349.277 348.214 349.467 348.363 349.625C348.511 349.783 348.693 349.906 348.896 349.984C349.098 350.062 349.316 350.094 349.532 350.077C349.775 350.089 350.017 350.048 350.243 349.957C350.468 349.866 350.671 349.727 350.837 349.549C351.004 349.372 351.13 349.161 351.206 348.93C351.282 348.699 351.308 348.454 351.28 348.213V345.511L351.974 345.54Z" fill="#263238"/>
<path d="M356.452 345.496V346.175H356.279C356.033 346.165 355.788 346.208 355.561 346.303C355.334 346.397 355.13 346.54 354.965 346.722C354.799 346.904 354.676 347.121 354.603 347.356C354.531 347.591 354.511 347.839 354.545 348.082V350.697H353.852V345.554H354.516V346.566C354.696 346.215 354.976 345.926 355.321 345.735C355.666 345.545 356.06 345.462 356.452 345.496Z" fill="#263238"/>
<path d="M362.231 348.328H357.897C357.912 348.579 357.976 348.824 358.086 349.05C358.195 349.276 358.349 349.478 358.536 349.644C358.724 349.81 358.943 349.938 359.181 350.02C359.418 350.101 359.669 350.135 359.92 350.12C360.216 350.128 360.51 350.071 360.782 349.954C361.054 349.837 361.297 349.662 361.494 349.441L361.885 349.889C361.516 350.276 361.041 350.545 360.52 350.664C359.998 350.782 359.454 350.744 358.954 350.554C358.454 350.365 358.022 350.032 357.71 349.597C357.399 349.163 357.223 348.646 357.204 348.112C357.186 347.772 357.238 347.432 357.357 347.114C357.475 346.795 357.658 346.504 357.894 346.259C358.129 346.014 358.413 345.82 358.727 345.689C359.04 345.558 359.377 345.492 359.717 345.497C360.057 345.49 360.394 345.554 360.707 345.684C361.02 345.815 361.303 346.01 361.537 346.256C361.771 346.502 361.951 346.794 362.065 347.113C362.18 347.433 362.227 347.773 362.202 348.112C362.202 348.112 362.231 348.242 362.231 348.328ZM357.897 347.808H361.538C361.538 347.325 361.346 346.862 361.005 346.521C360.663 346.18 360.2 345.988 359.717 345.988C359.235 345.988 358.772 346.18 358.43 346.521C358.089 346.862 357.897 347.325 357.897 347.808Z" fill="#263238"/>
<path d="M305.063 378.089V381.094H302.391V378.205C300.003 378.131 297.684 377.385 295.702 376.052L297.146 372.787C298.69 373.865 300.487 374.522 302.362 374.694V370.216C299.371 369.479 296.048 368.496 296.048 364.653C296.048 361.764 298.114 359.366 302.362 358.875V355.898H305.035V358.788C306.955 358.897 308.822 359.461 310.481 360.435L309.138 363.729C307.879 362.981 306.484 362.49 305.035 362.284V366.849C308.011 367.543 311.29 368.54 311.29 372.325C311.319 375.171 309.282 377.584 305.063 378.089ZM302.391 366.243V362.457C300.946 362.775 300.397 363.555 300.397 364.437C300.397 365.318 301.206 365.867 302.391 366.243ZM306.999 372.701C306.999 371.761 306.219 371.256 305.063 370.851V374.55C306.407 374.261 306.999 373.567 306.999 372.701Z" fill="#263238"/>
<path d="M327.139 374.333V377.887H312.952V375.07L320.175 368.222C321.851 366.633 322.14 365.679 322.14 364.755C322.14 363.31 321.114 362.429 319.135 362.429C318.383 362.399 317.635 362.555 316.958 362.883C316.28 363.21 315.693 363.699 315.249 364.307L312.085 362.27C312.94 361.115 314.069 360.19 315.371 359.58C316.672 358.97 318.105 358.693 319.54 358.774C323.729 358.774 326.518 360.926 326.518 364.336C326.518 366.156 325.998 367.817 323.368 370.259L319.034 374.333H327.139Z" fill="#263238"/>
<path d="M328.887 368.497C328.887 362.299 332.325 358.774 336.934 358.774C341.542 358.774 344.981 362.299 344.981 368.497C344.981 374.694 341.571 378.205 336.934 378.205C332.296 378.205 328.887 374.694 328.887 368.497ZM340.618 368.497C340.618 364.162 339.173 362.458 336.934 362.458C334.695 362.458 333.293 364.22 333.293 368.497C333.293 372.773 334.738 374.521 336.934 374.521C339.13 374.521 340.56 372.759 340.56 368.497H340.618Z" fill="#263238"/>
<path d="M347.105 368.497C347.105 362.299 350.543 358.774 355.152 358.774C359.761 358.774 363.199 362.299 363.199 368.497C363.199 374.694 359.79 378.205 355.152 378.205C350.515 378.205 347.105 374.694 347.105 368.497ZM358.822 368.497C358.822 364.162 357.377 362.458 355.152 362.458C352.927 362.458 351.497 364.22 351.497 368.497C351.497 372.773 352.942 374.521 355.152 374.521C357.363 374.521 358.822 372.759 358.822 368.497Z" fill="#263238"/>
<path d="M359.558 425.708H299.66C295.945 425.704 292.383 424.226 289.755 421.599C287.128 418.972 285.65 415.409 285.646 411.694C285.646 407.976 287.122 404.41 289.75 401.779C292.378 399.149 295.942 397.669 299.66 397.666H359.558C361.4 397.666 363.223 398.028 364.925 398.734C366.626 399.439 368.171 400.472 369.473 401.775C370.774 403.078 371.806 404.625 372.51 406.326C373.213 408.028 373.574 409.852 373.572 411.694C373.572 415.41 372.096 418.975 369.468 421.603C366.84 424.231 363.275 425.708 359.558 425.708Z" fill="#263238"/>
<path d="M310.395 410.134C310.395 411.896 309.123 412.951 307.028 412.951H304.804V415.551H303.937V407.316H307.028C309.123 407.374 310.395 408.429 310.395 410.134ZM309.513 410.134C309.513 408.819 308.647 408.068 307 408.068H304.804V412.185H307C308.647 412.243 309.513 411.492 309.513 410.134Z" fill="white"/>
<path d="M316.708 411.766V415.609H315.913V414.641C315.681 414.987 315.36 415.265 314.984 415.445C314.608 415.625 314.191 415.702 313.775 415.667C312.331 415.667 311.521 414.945 311.521 413.861C311.521 412.777 312.128 412.113 313.905 412.113H315.87V411.737C315.87 410.683 315.278 410.105 314.122 410.105C313.37 410.093 312.637 410.349 312.056 410.827L311.68 410.206C312.399 409.64 313.294 409.343 314.209 409.368C314.539 409.32 314.876 409.348 315.194 409.45C315.512 409.552 315.803 409.725 316.044 409.957C316.285 410.188 316.47 410.471 316.585 410.785C316.7 411.098 316.742 411.434 316.708 411.766ZM315.87 413.745V412.734H313.934C312.735 412.734 312.345 413.211 312.345 413.847C312.345 414.482 312.923 415.017 313.905 415.017C314.326 415.044 314.744 414.934 315.098 414.706C315.451 414.477 315.722 414.14 315.87 413.745Z" fill="white"/>
<path d="M324.062 409.411L320.97 416.346C320.45 417.559 319.8 417.95 318.919 417.95C318.37 417.949 317.842 417.736 317.445 417.357L317.835 416.736C317.981 416.888 318.156 417.009 318.349 417.091C318.543 417.173 318.752 417.214 318.962 417.213C319.525 417.213 319.901 416.953 320.248 416.172L320.522 415.566L317.748 409.382H318.63L320.956 414.656L323.224 409.411H324.062Z" fill="white"/>
<path d="M331.126 415.667V417.025H330.534V415.681C329.497 415.673 328.498 415.294 327.717 414.612L328.064 413.933C328.746 414.542 329.62 414.894 330.534 414.93V411.838C329.234 411.52 327.919 411.116 327.919 409.556C327.919 408.429 328.728 407.446 330.534 407.316V405.958H331.126V407.244C331.973 407.258 332.798 407.509 333.51 407.966L333.221 408.66C332.589 408.265 331.87 408.032 331.126 407.981V411.101C332.455 411.419 333.857 411.795 333.857 413.37C333.857 414.569 332.99 415.566 331.126 415.667ZM330.534 411.015V408.125C329.32 408.226 328.771 408.848 328.771 409.57C328.771 410.292 329.566 410.755 330.534 411.015ZM332.99 413.485C332.99 412.546 332.138 412.228 331.126 412.041V414.93C332.412 414.829 332.99 414.237 332.99 413.485Z" fill="white"/>
<path d="M340.647 414.857V415.609H334.868V415.016L338.292 411.65C339.217 410.74 339.39 410.206 339.39 409.613C339.39 408.66 338.726 408.082 337.469 408.082C337.049 408.061 336.631 408.131 336.241 408.288C335.852 408.446 335.502 408.686 335.215 408.992L334.608 408.472C334.977 408.081 335.427 407.773 335.925 407.571C336.424 407.37 336.96 407.277 337.498 407.302C339.159 407.302 340.228 408.154 340.228 409.526C340.207 410.029 340.075 410.521 339.84 410.966C339.605 411.411 339.274 411.797 338.87 412.098L336.067 414.857H340.647Z" fill="white"/>
<path d="M341.658 411.491C341.658 408.862 343.031 407.302 344.938 407.302C346.845 407.302 348.232 408.862 348.232 411.491C348.232 414.121 346.787 415.681 344.938 415.681C343.088 415.681 341.658 414.121 341.658 411.491ZM347.365 411.491C347.365 409.295 346.382 408.082 344.938 408.082C343.493 408.082 342.511 409.295 342.511 411.491C342.511 413.687 343.507 414.901 344.938 414.901C346.368 414.901 347.365 413.687 347.365 411.491Z" fill="white"/>
<path d="M349.445 411.491C349.445 408.862 350.89 407.302 352.739 407.302C354.588 407.302 356.033 408.862 356.033 411.491C356.033 414.121 354.588 415.681 352.739 415.681C350.89 415.681 349.445 414.121 349.445 411.491ZM355.224 411.491C355.224 409.295 354.242 408.082 352.811 408.082C351.381 408.082 350.384 409.295 350.384 411.491C350.384 413.687 351.367 414.901 352.811 414.901C354.256 414.901 355.152 413.687 355.152 411.491H355.224Z" fill="white"/>
<path d="M238.982 381.586C241.149 414.887 225.72 451.973 225.72 451.973L142.374 428.51L127.84 424.407C142.287 404.34 149.164 364.813 145.393 332.827C145.104 330.414 144.931 328.146 144.801 325.979C143.356 299.598 154.322 291.883 163.582 280.224C173.695 267.597 196.204 219.922 196.204 208.638C196.204 197.355 224.448 169.732 218.164 138.382C218.164 138.382 226.702 133.08 235.284 137.428C239.184 139.393 243.071 143.337 246.206 150.647C253.559 167.825 243.23 216.382 234.446 228.287L217.528 298.327C217.528 298.327 223.235 308.165 228.84 326.022C234.412 344.076 237.817 362.728 238.982 381.586Z" fill="white"/>
<path opacity="0.4" d="M144.801 325.979C149.525 338.909 154.538 347.65 154.105 365.766C153.671 383.883 143.992 411.766 146.751 426.257C145.175 426.722 143.703 427.487 142.417 428.511L127.883 424.408C142.33 404.34 149.207 364.813 145.436 332.827C145.104 330.414 144.931 328.146 144.801 325.979Z" fill="#A435F0"/>
<path opacity="0.4" d="M234.446 228.287L217.528 298.327C217.528 298.327 223.235 308.165 228.84 326.022C217.383 307.558 207.646 302.04 207.646 302.04C215.274 292.895 221.154 226.004 221.154 226.004C221.154 226.004 245.064 197.904 242.825 168.504C242.106 157.791 239.556 147.28 235.283 137.428C239.184 139.393 243.071 143.337 246.206 150.647C253.559 167.825 243.229 216.382 234.446 228.287Z" fill="#A435F0"/>
<path d="M127.84 424.407C142.287 404.34 149.164 364.813 145.408 332.827C141.651 300.841 153.556 292.837 163.597 280.21C173.637 267.583 196.204 219.922 196.204 208.624C196.204 197.326 224.434 169.747 218.164 138.382C218.164 138.382 236.179 127.214 246.206 150.647C253.559 167.84 243.23 216.382 234.446 228.301L217.543 298.327C217.543 298.327 235.587 329.46 238.982 381.586C241.149 414.887 225.72 451.987 225.72 451.987" stroke="#263238" stroke-linecap="round" stroke-linejoin="round"/>
<path d="M183.548 478.628C183.548 478.628 202.517 490.301 213.584 508.765" stroke="#263238" stroke-linecap="round" stroke-linejoin="round"/>
<path d="M236.83 500.717C236.83 500.717 220.49 503.043 205.725 485.374C196.262 474.062 167.526 468.948 160.938 439.36" stroke="#263238" stroke-linecap="round" stroke-linejoin="round"/>
<path opacity="0.2" d="M474.313 588.209C432.488 568.2 457.814 552.164 400.271 527.329C342.727 502.494 342.15 481.271 349.084 432.469C356.019 383.666 350.529 331.757 367.259 327.351C383.989 322.944 354.17 255.635 373.673 231.84L469.661 418.556L474.313 588.209Z" fill="black" fill-opacity="0.7"/>
<path d="M630.154 586.259C628.189 580.639 626.196 574.499 624.65 568.922C622.656 561.699 621.096 555.92 617.426 549.202C616.848 548.133 616.227 547.006 615.534 545.792C611.618 538.814 606.258 529.265 603.123 517.534C601.014 509.631 603.123 490.171 605.088 471.303C606.533 457.751 607.848 444.965 607.458 437.713L607.342 435.141C606.36 416.172 604.308 376.702 600.118 365.795C596.001 355.277 592.158 353.703 585.151 350.9C584.429 350.582 583.706 350.293 582.868 349.946C580.239 348.848 575.76 346.537 570.603 343.864C558.973 337.84 544.497 330.341 537.143 329.417C530.264 328.644 523.305 328.966 516.527 330.37C507.468 323.421 492.053 314.478 487.459 314.291C483.703 314.103 475.497 316.458 471.567 317.686L469.588 318.321C467.1 316.391 464.462 314.662 461.7 313.149C461.512 313.048 461.324 312.976 461.165 312.904C456.065 310.809 448.365 310.737 444.161 310.852C442.889 310.852 441.893 310.982 441.445 311.025C433.513 298.818 425.712 286.668 422.317 281.336C415.238 270.125 393.321 223.996 393.104 223.548C393.079 223.488 393.04 223.436 392.989 223.396C392.939 223.355 392.879 223.328 392.816 223.317C392.748 223.307 392.68 223.307 392.613 223.317C390.908 222.825 378.354 219.632 373.312 231.797C367.793 245.045 375.667 274.127 383.353 284.688C387.051 289.774 397.15 310.52 407.393 331.988C404.763 334.43 383.728 353.861 373.514 357.488C365.149 360.449 367.114 403.329 368.689 437.756C369.281 450.47 369.772 461.406 369.628 467.98C369.339 480.693 392.469 498.203 414.891 515.136C435.117 530.478 456.094 546.327 458.55 557.841C459.229 561.078 461.165 563.707 463.477 566.669C467.334 571.581 472.304 577.374 474.413 588.34C475.034 591.633 480.322 595.939 484.526 602.975H636.28C635.008 599.551 632.61 593.309 630.154 586.259ZM419.702 357.849C427.055 373.25 431.606 382.409 432.704 383.435C433.802 384.461 433.73 389.344 433.701 394.097C433.543 398.258 433.687 402.425 434.134 406.565C432.343 408.14 421.031 418.44 418.748 426.791L409.141 415.479L406.714 379.982C408.158 378.451 418.04 368.005 419.702 357.849Z" fill="white"/>
<path opacity="0.4" d="M586.611 456.813C590.179 490.113 590.223 508.172 594.224 517.809C600.986 534.076 610.94 537.37 610.94 537.37C607.629 531.065 605 524.425 603.095 517.563C601 509.66 603.095 490.2 605.06 471.332C606.505 457.781 607.834 444.98 607.458 437.728L607.328 435.156C606.346 416.202 604.294 376.732 600.105 365.81C596.002 355.292 592.144 353.717 585.137 350.9C584.415 350.597 583.692 350.308 582.855 349.961C580.225 348.863 575.761 346.552 570.589 343.879C558.959 337.854 544.483 330.356 537.129 329.432C530.25 328.65 523.29 328.972 516.513 330.385C507.455 323.436 492.039 314.493 487.445 314.305C483.689 314.118 473.504 317.079 469.545 318.336C486.882 332.48 511.847 350.12 511.847 350.12C531.596 354.05 529.068 362.617 537.057 367.457C544.281 371.791 551.186 359.106 557.283 357.994C565.258 356.549 574.316 364.957 573.912 375.157C572.669 403.257 583.548 428.222 586.611 456.813Z" fill="#A435F0"/>
<path opacity="0.4" d="M486.781 353.616C486.781 353.616 471.134 340.613 463.665 336.279C456.196 331.945 454.997 317.007 460.891 313.38C461.115 313.246 461.368 313.167 461.628 313.149L461.093 312.904C455.994 310.809 448.293 310.722 444.089 310.852C452.757 326.99 459.678 339.371 461.541 342.087C467.826 351.16 486.781 353.616 486.781 353.616Z" fill="#A435F0"/>
<path opacity="0.4" d="M463.044 555.819C463.708 552.366 458.016 542.253 455.517 538.15C449.839 528.788 383.916 470.537 393.466 454.992C403.016 439.447 411.742 450.947 417.781 451.958C422.115 452.681 434.019 445.587 433.961 444.995C432.603 433.018 443.656 425.231 443.656 425.231C443.656 425.231 442.644 377.555 440.102 378.364C437.559 379.173 407.133 306.778 407.133 306.778C407.133 306.778 374.974 264.015 376.794 244.063C378.614 224.111 392.57 223.765 392.57 223.765V223.23C390.865 222.739 378.311 219.546 373.269 231.711C367.75 244.959 375.624 274.041 383.31 284.602C387.008 289.687 397.107 310.433 407.35 331.902C404.72 334.344 383.685 353.775 373.471 357.401C365.106 360.363 367.071 403.242 368.646 437.67C369.238 450.383 369.729 461.32 369.585 467.893C369.296 480.607 392.426 498.117 414.848 515.049C435.074 530.392 456.051 546.241 458.507 557.755C459.186 560.991 461.122 563.621 463.434 566.582C462.974 563.014 462.843 559.411 463.044 555.819ZM419.702 357.892C427.056 373.293 431.607 382.453 432.705 383.478C433.803 384.504 433.73 389.387 433.701 394.14C433.543 398.301 433.688 402.468 434.135 406.608C432.343 408.183 421.031 418.484 418.749 426.834L409.141 415.522L406.714 380.026C408.159 378.451 418.041 368.005 419.702 357.849V357.892Z" fill="#A435F0"/>
<path d="M477.809 353.428C471.352 351.397 465.681 347.421 461.57 342.044C454.968 333.202 429.035 292.923 421.855 281.568C414.675 270.212 392.57 223.765 392.57 223.765C392.57 223.765 378.99 219.214 373.702 231.899C368.415 244.583 375.653 273.246 383.7 284.284C391.747 295.322 429.989 380.315 433.023 383.06C436.056 385.805 431.506 408.487 437.588 413.977" stroke="#263238" stroke-linecap="round" stroke-linejoin="round"/>
<path d="M434.669 406.767C434.669 406.767 420.655 418.975 419.008 427.889L408.606 415.652L406.15 379.794C406.15 379.794 418.705 367.225 419.398 356.043" stroke="#263238" stroke-linecap="round" stroke-linejoin="round"/>
<path d="M407.928 331.945C407.928 331.945 384.653 353.905 373.587 357.82C362.52 361.735 370.596 444.012 370.047 467.835C369.498 491.659 453.769 533.166 458.941 557.553C460.992 567.261 469.487 569.24 474.674 587.892" stroke="#263238" stroke-linecap="round" stroke-linejoin="round"/>
<path d="M441.055 311.502C441.055 311.502 453.725 310.361 460.862 313.337C467.999 316.313 496.98 341.206 503.973 345.959C510.965 350.712 521.483 352.518 523.476 357.647" stroke="#263238" stroke-linecap="round" stroke-linejoin="round"/>
<path d="M469.386 318.841C469.386 318.841 482.388 314.507 487.358 314.753C492.328 314.998 511.023 326.022 519.402 333.39C525.823 339.086 533.218 343.579 541.232 346.652" stroke="#263238" stroke-linecap="round" stroke-linejoin="round"/>
<path d="M516.354 330.89C523.14 329.43 530.119 329.093 537.014 329.894C547.589 331.338 574.143 346.941 582.609 350.466C591.075 353.991 595.12 354.642 599.57 366.026C604.02 377.41 606.057 420.694 606.952 437.8C607.848 454.905 598.934 503.896 602.618 517.678C606.302 531.461 612.948 542.094 616.979 549.462" stroke="#263238" stroke-linecap="round" stroke-linejoin="round"/>
<path d="M406.151 379.794C406.151 379.794 404.128 371.343 401.239 370.259" stroke="#263238" stroke-linecap="round" stroke-linejoin="round"/>
<path d="M408.607 415.652C409.581 420.578 410.899 425.43 412.551 430.172C414.631 435.3 411.395 442.726 411.395 442.726" stroke="#263238" stroke-linecap="round" stroke-linejoin="round"/>
<path d="M419.009 427.889C418.676 436.095 426.839 445.688 428.818 444.33" stroke="#263238" stroke-linecap="round" stroke-linejoin="round"/>
<path d="M460.573 379.794C460.573 379.794 469.343 365.607 477.751 364.914C486.159 364.22 495.868 376.154 501.054 375.027C506.241 373.9 512.771 366.272 521.497 364.914C530.223 363.556 534.312 367.717 541.232 368.063C548.152 368.41 548.86 359.164 557.124 357.95C565.388 356.737 568.205 360.84 573.753 361.909C579.3 362.978 580.687 358.6 585.18 356.13" stroke="#263238" stroke-linecap="round" stroke-linejoin="round"/>
</svg>
